<svg xmlns="http://www.w3.org/2000/svg" xmlns:xlink="http://www.w3.org/1999/xlink" width="541.998" height="132" viewBox="0 0 541.998 132">
  <defs>
    <linearGradient id="linear-gradient" x1="0.051" y1="0.238" x2="1.06" y2="1" gradientUnits="objectBoundingBox">
      <stop offset="0" stop-color="#ccebff"/>
      <stop offset="1" stop-color="#e2e8fe"/>
    </linearGradient>
  </defs>
  <g id="Group_2194" data-name="Group 2194" transform="translate(-231.001 -184.999)">
    <path id="Union_1" data-name="Union 1" d="M-11230.5-12969.724a5.487,5.487,0,0,1-4,1.723,5.476,5.476,0,0,1-3.5-1.256,5.468,5.468,0,0,1-3.5,1.256,5.5,5.5,0,0,1-5.5-5.5,5.5,5.5,0,0,1-5.5,5.5,5.5,5.5,0,0,1-5-3.205,5.5,5.5,0,0,1-5,3.205,5.5,5.5,0,0,1-5-3.205,5.5,5.5,0,0,1-5,3.205,5.5,5.5,0,0,1-5-3.205,5.5,5.5,0,0,1-5,3.205,5.5,5.5,0,0,1-5.5-5.5,5.5,5.5,0,0,1-5.5,5.5,5.5,5.5,0,0,1-5-3.205,5.5,5.5,0,0,1-5,3.205,5.49,5.49,0,0,1-5-3.205,5.5,5.5,0,0,1-5,3.205,5.5,5.5,0,0,1-5-3.205,5.5,5.5,0,0,1-5,3.205,5.5,5.5,0,0,1-5.5-5.5,5.5,5.5,0,0,1-5.5,5.5,5.5,5.5,0,0,1-5-3.205,5.5,5.5,0,0,1-5,3.205,5.5,5.5,0,0,1-5.5-5.5,5.5,5.5,0,0,1-5.5,5.5,5.5,5.5,0,0,1-5-3.205,5.5,5.5,0,0,1-5,3.205,5.5,5.5,0,0,1-5.5-5.5,5.5,5.5,0,0,1-5.5,5.5,5.5,5.5,0,0,1-5-3.205,5.5,5.5,0,0,1-5,3.205,5.5,5.5,0,0,1-5-3.205,5.5,5.5,0,0,1-5,3.205,5.5,5.5,0,0,1-5-3.205,5.5,5.5,0,0,1-5,3.205,5.5,5.5,0,0,1-5.5-5.5,5.5,5.5,0,0,1-5.5,5.5,5.5,5.5,0,0,1-5-3.205,5.49,5.49,0,0,1-5,3.205,5.5,5.5,0,0,1-5-3.205,5.5,5.5,0,0,1-5,3.205,5.5,5.5,0,0,1-5-3.205,5.5,5.5,0,0,1-5,3.205,5.5,5.5,0,0,1-5.5-5.5,5.5,5.5,0,0,1-5.5,5.5,5.5,5.5,0,0,1-5-3.205,5.5,5.5,0,0,1-5,3.205,5.5,5.5,0,0,1-5.5-5.5,5.5,5.5,0,0,1-5.5,5.5,5.5,5.5,0,0,1-5-3.205,5.5,5.5,0,0,1-5,3.205,5.5,5.5,0,0,1-5.5-5.5,5.5,5.5,0,0,1-5.5,5.5,5.5,5.5,0,0,1-5-3.205,5.5,5.5,0,0,1-5,3.205,5.5,5.5,0,0,1-5-3.205,5.5,5.5,0,0,1-5,3.205,5.5,5.5,0,0,1-5-3.205,5.5,5.5,0,0,1-5,3.205,5.5,5.5,0,0,1-5.5-5.5,5.5,5.5,0,0,1-5.5,5.5,5.5,5.5,0,0,1-5-3.205,5.5,5.5,0,0,1-5,3.205,5.5,5.5,0,0,1-5-3.205,5.5,5.5,0,0,1-5,3.205,5.5,5.5,0,0,1-5-3.205,5.5,5.5,0,0,1-5,3.205,5.5,5.5,0,0,1-5.5-5.5,5.5,5.5,0,0,1-5.5,5.5,5.5,5.5,0,0,1-5-3.205,5.5,5.5,0,0,1-5,3.205,5.5,5.5,0,0,1-5.5-5.5,5.5,5.5,0,0,1-5.5,5.5,5.5,5.5,0,0,1-5-3.205,5.5,5.5,0,0,1-5,3.205,5.5,5.5,0,0,1-5.5-5.5,5.5,5.5,0,0,1-5.5,5.5,5.5,5.5,0,0,1-5-3.205,5.5,5.5,0,0,1-5,3.205,5.5,5.5,0,0,1-5-3.205,5.5,5.5,0,0,1-5,3.205,5.5,5.5,0,0,1-5-3.205,5.5,5.5,0,0,1-5,3.205,5.5,5.5,0,0,1-5.5-5.5,5.5,5.5,0,0,1-5.5,5.5,5.5,5.5,0,0,1-5-3.205,5.5,5.5,0,0,1-5,3.205,5.5,5.5,0,0,1-5-3.205,5.5,5.5,0,0,1-5,3.205,5.5,5.5,0,0,1-5-3.205,5.5,5.5,0,0,1-5,3.205,5.5,5.5,0,0,1-5.5-5.5,5.5,5.5,0,0,1-5.5,5.5,5.5,5.5,0,0,1-5-3.205,5.5,5.5,0,0,1-5,3.205,5.491,5.491,0,0,1-4.5-2.336,5.494,5.494,0,0,1-4.5,2.336,5.5,5.5,0,0,1-5-3.205,5.5,5.5,0,0,1-5,3.205,5.5,5.5,0,0,1-5.5-5.5,5.5,5.5,0,0,1-5.5,5.5,5.49,5.49,0,0,1-5-3.205,5.5,5.5,0,0,1-5,3.205,5.5,5.5,0,0,1-5.5-5.5,5.477,5.477,0,0,1,.735-2.749,5.476,5.476,0,0,1-.735-2.751,5.5,5.5,0,0,1,3.205-5,5.5,5.5,0,0,1-3.205-5,5.5,5.5,0,0,1,5.5-5.5,5.5,5.5,0,0,1-5.5-5.5,5.5,5.5,0,0,1,3.205-5,5.5,5.5,0,0,1-3.205-5,5.5,5.5,0,0,1,3.205-5,5.5,5.5,0,0,1-3.205-5,5.5,5.5,0,0,1,3.205-5,5.5,5.5,0,0,1-3.205-5,5.5,5.5,0,0,1,5.5-5.5,5.5,5.5,0,0,1-5.5-5.5,5.5,5.5,0,0,1,3.205-5,5.5,5.5,0,0,1-3.205-5,5.5,5.5,0,0,1,3.205-5,5.5,5.5,0,0,1-3.205-5,5.5,5.5,0,0,1,3.205-5,5.5,5.5,0,0,1-3.205-5,5.5,5.5,0,0,1,5.5-5.5,5.5,5.5,0,0,1-5.5-5.5,5.5,5.5,0,0,1,3.205-5,5.5,5.5,0,0,1-3.205-5,5.51,5.51,0,0,1,.143-1.252,5.493,5.493,0,0,1-.143-1.25,5.5,5.5,0,0,1,5.5-5.5,5.506,5.506,0,0,1,5,3.206,5.5,5.5,0,0,1,5-3.206,5.5,5.5,0,0,1,5.126,3.5h.749a5.5,5.5,0,0,1,5.125-3.5,5.5,5.5,0,0,1,5,3.206,5.5,5.5,0,0,1,5-3.206,5.494,5.494,0,0,1,4.5,2.336,5.491,5.491,0,0,1,4.5-2.336,5.5,5.5,0,0,1,5,3.206,5.505,5.505,0,0,1,5-3.206,5.5,5.5,0,0,1,5.126,3.5h.749a5.5,5.5,0,0,1,5.125-3.5,5.505,5.505,0,0,1,5,3.206,5.5,5.5,0,0,1,5-3.206,5.5,5.5,0,0,1,5,3.206,5.5,5.5,0,0,1,5-3.206,5.5,5.5,0,0,1,5,3.206,5.5,5.5,0,0,1,5-3.206,5.5,5.5,0,0,1,5.126,3.5h.749a5.5,5.5,0,0,1,5.126-3.5,5.5,5.5,0,0,1,5,3.206,5.5,5.5,0,0,1,5-3.206,5.5,5.5,0,0,1,5,3.206,5.505,5.505,0,0,1,5-3.206,5.5,5.5,0,0,1,5,3.206,5.5,5.5,0,0,1,5-3.206,5.5,5.5,0,0,1,5.126,3.5h.749a5.5,5.5,0,0,1,5.125-3.5,5.5,5.5,0,0,1,5,3.206,5.5,5.5,0,0,1,5-3.206,5.5,5.5,0,0,1,5.126,3.5h.749a5.5,5.5,0,0,1,5.126-3.5,5.5,5.5,0,0,1,5,3.206,5.5,5.5,0,0,1,5-3.206,5.5,5.5,0,0,1,5.126,3.5h.749a5.5,5.5,0,0,1,5.125-3.5,5.5,5.5,0,0,1,5,3.206,5.5,5.5,0,0,1,5-3.206,5.5,5.5,0,0,1,5,3.206,5.5,5.5,0,0,1,5-3.206,5.505,5.505,0,0,1,5,3.206,5.5,5.5,0,0,1,5-3.206,5.506,5.506,0,0,1,5.126,3.5h.749a5.5,5.5,0,0,1,5.123-3.5,5.5,5.5,0,0,1,5,3.206,5.505,5.505,0,0,1,5-3.206,5.5,5.5,0,0,1,5,3.206,5.5,5.5,0,0,1,5-3.206,5.5,5.5,0,0,1,5,3.206,5.5,5.5,0,0,1,5-3.206,5.5,5.5,0,0,1,5.126,3.5h.75a5.5,5.5,0,0,1,5.125-3.5,5.5,5.5,0,0,1,5,3.206,5.5,5.5,0,0,1,5-3.206,5.5,5.5,0,0,1,5.126,3.5h.749a5.5,5.5,0,0,1,5.126-3.5,5.5,5.5,0,0,1,5,3.206,5.5,5.5,0,0,1,5-3.206,5.5,5.5,0,0,1,5.126,3.5h.749a5.5,5.5,0,0,1,5.126-3.5,5.5,5.5,0,0,1,5,3.206,5.5,5.5,0,0,1,5-3.206,5.506,5.506,0,0,1,5,3.206,5.5,5.5,0,0,1,5-3.206,5.5,5.5,0,0,1,5,3.206,5.506,5.506,0,0,1,5-3.206,5.5,5.5,0,0,1,5.126,3.5h.749a5.5,5.5,0,0,1,5.125-3.5,5.505,5.505,0,0,1,5,3.206,5.5,5.5,0,0,1,5-3.206,5.5,5.5,0,0,1,5,3.206,5.5,5.5,0,0,1,5-3.206,5.5,5.5,0,0,1,5,3.206,5.5,5.5,0,0,1,5-3.206,5.5,5.5,0,0,1,5.126,3.5h.749a5.5,5.5,0,0,1,5.126-3.5,5.507,5.507,0,0,1,5,3.206,5.5,5.5,0,0,1,5-3.206,5.5,5.5,0,0,1,5.126,3.5h.749a5.5,5.5,0,0,1,5.126-3.5,5.5,5.5,0,0,1,5,3.206,5.5,5.5,0,0,1,5-3.206,5.5,5.5,0,0,1,5.126,3.5h.749a5.5,5.5,0,0,1,5.126-3.5,5.5,5.5,0,0,1,5,3.206,5.507,5.507,0,0,1,5-3.206,5.507,5.507,0,0,1,5,3.206,5.5,5.5,0,0,1,5-3.206,5.5,5.5,0,0,1,5,3.206,5.505,5.505,0,0,1,5-3.206,5.5,5.5,0,0,1,5.126,3.5h.749a5.5,5.5,0,0,1,5.125-3.5,5.505,5.505,0,0,1,5,3.206,5.5,5.5,0,0,1,5-3.206,5.5,5.5,0,0,1,5,3.206,5.5,5.5,0,0,1,5-3.206,5.505,5.505,0,0,1,5,3.206,5.5,5.5,0,0,1,5-3.206,5.5,5.5,0,0,1,5.126,3.5h.749a5.5,5.5,0,0,1,5.126-3.5,5.5,5.5,0,0,1,5,3.206,5.5,5.5,0,0,1,5-3.206,5.5,5.5,0,0,1,4.708,2.655,5.518,5.518,0,0,1,1.292-.153,5.5,5.5,0,0,1,5.5,5.5,5.494,5.494,0,0,1-3,4.9v.2a5.5,5.5,0,0,1,3,4.9,5.5,5.5,0,0,1-3,4.9v1.2a5.5,5.5,0,0,1,3,4.9,5.5,5.5,0,0,1-3,4.9v.2a5.5,5.5,0,0,1,3,4.9,5.5,5.5,0,0,1-3,4.9v.2a5.5,5.5,0,0,1,3,4.9,5.5,5.5,0,0,1-3,4.9v.2a5.5,5.5,0,0,1,3,4.9,5.5,5.5,0,0,1-3,4.9v1.2a5.5,5.5,0,0,1,3,4.9,5.5,5.5,0,0,1-3,4.9v.2a5.5,5.5,0,0,1,3,4.9,5.5,5.5,0,0,1-3,4.9v.2a5.5,5.5,0,0,1,3,4.9,5.5,5.5,0,0,1-3,4.9v.2a5.5,5.5,0,0,1,3,4.9,5.5,5.5,0,0,1-3,4.9v1.2a5.5,5.5,0,0,1,3,4.9,5.5,5.5,0,0,1-3,4.9v.2a5.5,5.5,0,0,1,3,4.9,5.477,5.477,0,0,1-1.338,3.6,5.492,5.492,0,0,1,.338,1.9,5.5,5.5,0,0,1-5.5,5.5A5.484,5.484,0,0,1-11230.5-12969.724Zm-524.5-24.568v-.415a5.465,5.465,0,0,1-1.5.208A5.5,5.5,0,0,1-11755-12994.292Zm0-41v-.414a5.5,5.5,0,0,1-1.5.207A5.5,5.5,0,0,1-11755-13035.293Zm0-41v-.415a5.465,5.465,0,0,1-1.5.208A5.5,5.5,0,0,1-11755-13076.293Z" transform="translate(11993 13285)" fill="url(#linear-gradient)"/>
  </g>
</svg>
