<svg xmlns="http://www.w3.org/2000/svg" width="40.635" height="17.364" viewBox="0 0 40.635 17.364">
  <g id="Group_1019" data-name="Group 1019" transform="translate(-1103 -212.133)">
    <path id="Icon_ionic-ios-star" data-name="Icon ionic-ios-star" d="M20.241,9.386H14.1L12.235,3.817a.676.676,0,0,0-1.269,0L9.1,9.386H2.918a.67.67,0,0,0-.668.668.491.491,0,0,0,.013.113.642.642,0,0,0,.28.472l5.047,3.556L5.652,19.825a.67.67,0,0,0,.23.751.646.646,0,0,0,.376.163.818.818,0,0,0,.417-.15l4.926-3.51,4.926,3.51a.782.782,0,0,0,.417.15.6.6,0,0,0,.372-.163.662.662,0,0,0,.23-.751l-1.937-5.631,5-3.59.121-.1a.7.7,0,0,0,.217-.447A.707.707,0,0,0,20.241,9.386Z" transform="translate(1100.75 208.758)" fill="#f3ac41"/>
    <path id="Icon_ionic-ios-star-2" data-name="Icon ionic-ios-star" d="M20.241,9.386H14.1L12.235,3.817a.676.676,0,0,0-1.269,0L9.1,9.386H2.918a.67.67,0,0,0-.668.668.491.491,0,0,0,.013.113.642.642,0,0,0,.28.472l5.047,3.556L5.652,19.825a.67.67,0,0,0,.23.751.646.646,0,0,0,.376.163.818.818,0,0,0,.417-.15l4.926-3.51,4.926,3.51a.782.782,0,0,0,.417.15.6.6,0,0,0,.372-.163.662.662,0,0,0,.23-.751l-1.937-5.631,5-3.59.121-.1a.7.7,0,0,0,.217-.447A.707.707,0,0,0,20.241,9.386Z" transform="translate(1122.684 208.758)" fill="#f3ac41"/>
  </g>
</svg>
