<svg xmlns="http://www.w3.org/2000/svg" width="21.514" height="20.289" viewBox="0 0 21.514 20.289">
  <g id="Group_1959" data-name="Group 1959" transform="translate(-1464 -13271)">
    <path id="Path_83603" data-name="Path 83603" d="M110.074,22.777a7.3,7.3,0,0,1,6.314-1.22c.015-.178.032-.348.032-.526a6.364,6.364,0,0,0-12.729,0v0c0,.178.017.357.033.535A7.328,7.328,0,0,1,110.074,22.777Z" transform="translate(1364.663 13256.333)" fill="#5c6878"/>
    <path id="Path_83604" data-name="Path 83604" d="M239.559,268.3a5.44,5.44,0,0,0,1.338-.005,5.532,5.532,0,0,0-.67-1.172A5.562,5.562,0,0,0,239.559,268.3Z" transform="translate(1234.507 13014.488)" fill="#5c6878"/>
    <path id="Path_83605" data-name="Path 83605" d="M279.782,208.76a6.354,6.354,0,0,0-1.117-.643,7.291,7.291,0,0,1-4.185,4.9,7.079,7.079,0,0,1,.059.874,7.207,7.207,0,0,1-2.187,5.186,6.355,6.355,0,0,0,7.429-10.311Z" transform="translate(1203.091 13071.015)" fill="#5c6878"/>
    <path id="Path_83606" data-name="Path 83606" d="M7.94,214.658A6.981,6.981,0,0,1,8,213.8a7.275,7.275,0,0,1-4.218-4.879,6.356,6.356,0,1,0,6.368,10.94A7.208,7.208,0,0,1,7.94,214.658Z" transform="translate(1463.905 13070.242)" fill="#5c6878"/>
    <path id="Path_83607" data-name="Path 83607" d="M231.362,336.66a7.276,7.276,0,0,1-2.191.006c-.009.12-.013.241-.013.357a5.428,5.428,0,0,0,1.109,3.3,5.427,5.427,0,0,0,1.109-3.3C231.376,336.905,231.371,336.782,231.362,336.66Z" transform="translate(1244.471 12947.875)" fill="#5c6878"/>
    <path id="Path_83608" data-name="Path 83608" d="M137.051,217.526a7.256,7.256,0,0,1,1.107-1.931,5.485,5.485,0,0,0-3.8-.91A5.5,5.5,0,0,0,137.051,217.526Z" transform="translate(1335.281 13064.766)" fill="#5c6878"/>
    <path id="Path_83609" data-name="Path 83609" d="M286.4,215.66a7.221,7.221,0,0,1,1.1,1.916,5.516,5.516,0,0,0,2.651-2.827A5.459,5.459,0,0,0,286.4,215.66Z" transform="translate(1189.631 13064.701)" fill="#5c6878"/>
  </g>
</svg>
