<svg xmlns="http://www.w3.org/2000/svg" width="33" height="33" viewBox="0 0 33 33">
  <g id="Group_694" data-name="Group 694" transform="translate(-841 -379)">
    <circle id="Ellipse_261" data-name="Ellipse 261" cx="16.5" cy="16.5" r="16.5" transform="translate(841 379)" fill="rgba(73,156,252,0.17)"/>
    <path id="Subtraction_13" data-name="Subtraction 13" d="M8.722,12.894H7.565v-2.4H6.987v2.4H5.829v-2.4H5.251v2.4H4.094v-2.4H3.516v2.4H2.359v-2.4H1.78v2.4H1.312A1.265,1.265,0,0,1,0,11.684V5.136a.316.316,0,0,1,.327-.3H11.909a.316.316,0,0,1,.327.3v6.548a1.26,1.26,0,0,1-1.2,1.205v-2.4h-.578v2.4H9.3v-2.4H8.722v2.4Zm3.187-8.865H.327A.316.316,0,0,1,0,3.726V2.82A1.264,1.264,0,0,1,1.312,1.612h1.31V.3A.316.316,0,0,1,2.949,0H4.041A.316.316,0,0,1,4.37.3V1.612h3.5V.3A.316.316,0,0,1,8.194,0H9.287a.316.316,0,0,1,.327.3V1.612h1.31A1.265,1.265,0,0,1,12.236,2.82v.906A.316.316,0,0,1,11.909,4.029Z" transform="translate(851 389)" fill="#499cfc"/>
  </g>
</svg>
