<svg xmlns="http://www.w3.org/2000/svg" width="134.899" height="108.824" viewBox="0 0 134.899 108.824">
  <g id="Group_1910" data-name="Group 1910" transform="translate(-12387.289 -3547.489)">
    <g id="Group_1907" data-name="Group 1907" transform="translate(12387.289 3550.105)" opacity="0.25">
      <path id="Path_83586" data-name="Path 83586" d="M12813.678-5161.172l9.911,59.976h39.922v-58.678Z" transform="translate(-12813.678 5207.403)" fill="#838995"/>
      <path id="Path_83587" data-name="Path 83587" d="M12900.4-5100.708c1.417.033,38.534,0,38.534,0l10.438-59.409-48.9.729Z" transform="translate(-12850.571 5206.9)" fill="#b5b9c3"/>
      <ellipse id="Ellipse_473" data-name="Ellipse 473" cx="3.219" cy="1.537" rx="3.219" ry="1.537" transform="translate(9.612 74.989)" fill="#fff"/>
      <ellipse id="Ellipse_474" data-name="Ellipse 474" cx="3.219" cy="1.422" rx="3.219" ry="1.422" transform="translate(37.062 76.219)" fill="#fff"/>
      <path id="Path_83588" data-name="Path 83588" d="M12849.328-5104.372c.042-.056-.187-5.216,5.751-5.216s5.628,5.216,5.628,5.216" transform="translate(-12828.463 5183.505)" fill="none" stroke="#585858" stroke-linecap="round" stroke-width="2"/>
      <g id="Group_1906" data-name="Group 1906" transform="translate(40.281 0)">
        <path id="Path_83589" data-name="Path 83589" d="M6033.152-739.293l12.309-10.672,17.233,25.379-13.574,12.75Z" transform="translate(-6033.152 750.326)" fill="#b5b9c3"/>
        <path id="Path_83590" data-name="Path 83590" d="M6063.709-690.054l54.972,54.315,15.767-12.5-57.1-54.706Z" transform="translate(-6047.742 728.544)" fill="#dddfe5"/>
        <path id="Path_83591" data-name="Path 83591" d="M6060.433-750.638l14.488,13.822,38.141,36.39,21.608,29.763L6077.752-724.8Z" transform="translate(-6048.138 750.638)" fill="#b5b9c3"/>
        <path id="Path_83592" data-name="Path 83592" d="M6119.864-687.439s19.288-12.544,29.625-11.792,13.742,7.341,13.742,13.642-7.566,11.5-17.9,10.752S6119.864-687.439,6119.864-687.439Z" transform="translate(-6071.614 724.859)" fill="none" stroke="#838997" stroke-width="6"/>
        <path id="Path_83593" data-name="Path 83593" d="M0,9.89S14.568-.775,24.047.045s12.6,8.006,12.6,14.877S29.711,27.467,20.232,26.647,0,9.89,0,9.89Z" transform="translate(37.837 37.032) rotate(-90)" fill="none" stroke="#838997" stroke-width="6"/>
        <path id="Path_83594" data-name="Path 83594" d="M6031.235-670.742c1.262-.789,13.671-13.6,13.671-13.6l-5.169-9.48,23.813,22.242,5.093,6.944-17.685-17.162,3.4,5.665-14.625,13.755Z" transform="translate(-5989.679 734.024)" fill="#838997" stroke="#838997" stroke-width="1"/>
        <path id="Path_83595" data-name="Path 83595" d="M5969.526-741.043l12.416-11.384,33.942,33.261,2.425,3.646L5986.6-744.956l-12.366,11.339Z" transform="translate(-5964.088 761.177)" fill="#838997" stroke="#838997" stroke-width="1"/>
        <path id="Path_83596" data-name="Path 83596" d="M6119.864-690.751s13.885-9.03,21.327-8.489,9.893,5.285,9.893,9.821-5.446,8.281-12.888,7.74S6119.864-690.751,6119.864-690.751Z" transform="translate(-6070.002 726.723)" fill="none" stroke="#838997" stroke-width="3"/>
        <path id="Path_83597" data-name="Path 83597" d="M0,7.12S10.487-.558,17.311.032s9.072,5.763,9.072,10.71-4.994,9.031-11.818,8.441S0,7.12,0,7.12Z" transform="translate(42.365 35.694) rotate(-90)" fill="none" stroke="#838997" stroke-width="3"/>
        <path id="Path_83598" data-name="Path 83598" d="M6119.864-693.467s9.456-6.149,14.523-5.781,6.736,3.6,6.736,6.688-3.707,5.639-8.775,5.271S6119.864-693.467,6119.864-693.467Z" transform="translate(-6068.297 730.331)" fill="none" stroke="#838997" stroke-width="1"/>
        <path id="Path_83599" data-name="Path 83599" d="M0,4.848S7.142-.38,11.789.022s6.178,3.925,6.178,7.293-3.4,6.15-8.048,5.748S0,4.848,0,4.848Z" transform="translate(46.462 36.675) rotate(-90)" fill="none" stroke="#838997" stroke-width="1"/>
      </g>
    </g>
  </g>
</svg>
