<svg xmlns="http://www.w3.org/2000/svg" width="20.27" height="16.151" viewBox="0 0 20.27 16.151">
  <path id="Icon_metro-tags" data-name="Icon metro-tags" d="M22.55,7.716H16.373a2.149,2.149,0,0,0-1.318.546L7.4,15.921a.774.774,0,0,0,0,1.092l6.629,6.629a.774.774,0,0,0,1.092,0l7.659-7.659a2.148,2.148,0,0,0,.546-1.318V8.488A.774.774,0,0,0,22.55,7.716ZM18.69,13.893a1.544,1.544,0,1,1,1.544-1.544A1.544,1.544,0,0,1,18.69,13.893Zm-13.9,2.574,8.751-8.751H12.255a2.149,2.149,0,0,0-1.318.546L3.278,15.921a.774.774,0,0,0,0,1.092l6.629,6.629a.774.774,0,0,0,1.092,0l.484-.484L4.791,16.467Z" transform="translate(-3.053 -7.716)" fill="#787f9f"/>
</svg>
