<svg xmlns="http://www.w3.org/2000/svg" width="17.312" height="17.29" viewBox="0 0 17.312 17.29">
  <path id="Icon_open-euro" data-name="Icon open-euro" d="M12.968,0a8.576,8.576,0,0,0-8.3,6.484H.54L0,8.645H4.344a7.93,7.93,0,0,0,.346,2.161H.432L.022,12.968H5.555a8.63,8.63,0,0,0,7.435,4.323,8.442,8.442,0,0,0,4.323-1.21V13.443a6.4,6.4,0,0,1-9.121-.475h4.8l.346-2.161H6.916a6.506,6.506,0,0,1-.411-2.161h7.219l.346-2.161H6.916a6.455,6.455,0,0,1,9.856-3.112l.346-2.291A8.57,8.57,0,0,0,12.989,0Z" fill="#efaf1b"/>
</svg>
