<svg xmlns="http://www.w3.org/2000/svg" width="14" height="13.987" viewBox="0 0 14 13.987">
  <path id="Path_83323" data-name="Path 83323" d="M2144.352-4243.637a2.052,2.052,0,0,1-1.072-.961,2.771,2.771,0,0,1-.159-.375l-.03-.121h-6.738l-.12-.06a.41.41,0,0,1-.238-.413.428.428,0,0,1,.21-.342l.091-.061h6.787l.06-.2a2.069,2.069,0,0,1,1.58-1.375,2.223,2.223,0,0,1,.889.046,1.851,1.851,0,0,1,.888.53,1.94,1.94,0,0,1,.522.84l.049.158h2.606l.091.063a.422.422,0,0,1,.21.34.412.412,0,0,1-.238.413c-.121.06-.128.06-1.4.06h-1.279l-.044.159a2.143,2.143,0,0,1-.386.7,2.1,2.1,0,0,1-1.592.729A1.835,1.835,0,0,1,2144.352-4243.637Zm.205-2.934a1.163,1.163,0,0,0-.449,1.663,1.16,1.16,0,0,0,1.611.331,1.162,1.162,0,0,0,.5-.787,1.16,1.16,0,0,0-.88-1.3,1.291,1.291,0,0,0-.291-.037A1.074,1.074,0,0,0,2144.557-4246.571Zm-3.735-1.919a1.56,1.56,0,0,1-.577-.1,2.61,2.61,0,0,1-.391-.175,2.139,2.139,0,0,1-.9-1.153l-.044-.154-1.324-.009c-1.288-.007-1.323-.011-1.4-.065a.387.387,0,0,1-.189-.367.385.385,0,0,1,.189-.366c.073-.055.109-.058,1.394-.065l1.321-.008.046-.156a2.048,2.048,0,0,1,1.452-1.373,2.549,2.549,0,0,1,.971-.011,2.6,2.6,0,0,1,.426.162,2.089,2.089,0,0,1,1.028,1.178l.063.2,3.41.006c3.395.007,3.411.007,3.484.065a.386.386,0,0,1,.189.366.387.387,0,0,1-.189.367c-.074.058-.09.058-3.484.065l-3.41.005-.063.2a2.077,2.077,0,0,1-1.017,1.173,1.664,1.664,0,0,1-.844.211Zm-.331-3.1a1.161,1.161,0,0,0-.637.576,1.165,1.165,0,0,0,.554,1.554.936.936,0,0,0,.441.1.87.87,0,0,0,.423-.049,1.17,1.17,0,0,0,.651-.552,1.163,1.163,0,0,0-.651-1.638,1.2,1.2,0,0,0-.373-.054A1.137,1.137,0,0,0,2140.49-4251.591Zm3.886-1.979a2.066,2.066,0,0,1-1.233-1.277l-.06-.2H2136.3l-.091-.063a.419.419,0,0,1-.21-.338.411.411,0,0,1,.238-.414l.12-.06h6.738l.03-.12a2.709,2.709,0,0,1,.156-.373,1.592,1.592,0,0,1,.365-.489,1.931,1.931,0,0,1,1-.563,2.83,2.83,0,0,1,.405-.039,2.037,2.037,0,0,1,1.591.728,2.412,2.412,0,0,1,.4.738l.03.118h1.277c1.271,0,1.279,0,1.4.06a.413.413,0,0,1,.238.414.419.419,0,0,1-.21.338l-.091.063h-2.611l-.019.074a2.144,2.144,0,0,1-1.017,1.288,2.044,2.044,0,0,1-.953.243A2.048,2.048,0,0,1,2144.376-4253.571Zm.424-3.036a1.463,1.463,0,0,0-.484.251,1.3,1.3,0,0,0-.359.583,1.168,1.168,0,0,0,.963,1.44,1.161,1.161,0,0,0,1.3-1.321,1.152,1.152,0,0,0-.8-.93,1.468,1.468,0,0,0-.384-.048A1.053,1.053,0,0,0,2144.8-4256.606Z" transform="translate(4257.506 2149.98) rotate(-90)" fill="#4e5970"/>
</svg>
