<svg xmlns="http://www.w3.org/2000/svg" width="119.662" height="105.074" viewBox="0 0 119.662 105.074">
  <g id="Group_692" data-name="Group 692" transform="translate(7270.143 -3425.148)">
    <path id="Path_606" data-name="Path 606" d="M12813.678-5161.172l8.766,57.85h35.311v-56.6Z" transform="translate(-20083.82 8633.543)" fill="#838995"/>
    <path id="Path_607" data-name="Path 607" d="M12900.4-5102.813c1.253.033,34.082,0,34.082,0l9.232-57.3-43.25.7Z" transform="translate(-20126.471 8633.021)" fill="#b5b9c3"/>
    <path id="Path_83296" data-name="Path 83296" d="M2.847,0C4.42,0,5.695.664,5.695,1.483S4.42,2.965,2.847,2.965,0,2.3,0,1.483,1.275,0,2.847,0Z" transform="translate(-7261.641 3500.109)" fill="#fff"/>
    <path id="Path_83295" data-name="Path 83295" d="M2.847,0C4.42,0,5.695.614,5.695,1.372S4.42,2.743,2.847,2.743,0,2.129,0,1.372,1.275,0,2.847,0Z" transform="translate(-7237.362 3501.296)" fill="#fff"/>
    <path id="Path_610" data-name="Path 610" d="M12849.327-5103.556a1,1,0,0,1-.564-.175,1,1,0,0,1-.428-.945s0-.01,0-.016a6.956,6.956,0,0,1,.861-3.179,5.564,5.564,0,0,1,5.217-2.717,5.81,5.81,0,0,1,4.411,1.679,6.455,6.455,0,0,1,1.565,4.407,1,1,0,0,1-1,.946h-.055a1,1,0,0,1-.945-1.053,4.456,4.456,0,0,0-1.03-2.934,3.913,3.913,0,0,0-2.949-1.044c-3.224,0-4,2.167-4.08,3.985a1.083,1.083,0,0,1-.181.611A1,1,0,0,1,12849.327-5103.556Z" transform="translate(-20101.016 8608.664)" fill="#585858"/>
    <path id="Path_630" data-name="Path 630" d="M6033.151-739.672l10.887-10.293,15.242,24.48-12.006,12.3Z" transform="translate(-13267.666 4178.091)" fill="#b5b9c3"/>
    <path id="Path_631" data-name="Path 631" d="M6063.709-690.511l48.622,52.391,13.945-12.061-50.506-52.767Z" transform="translate(-13284.102 4155.415)" fill="#dddfe5"/>
    <path id="Path_632" data-name="Path 632" d="M6060.433-750.638l12.814,13.333,33.734,35.1,19.112,28.709-50.343-52.217Z" transform="translate(-13284.073 4178.416)" fill="#b5b9c3"/>
    <path id="Path_83297" data-name="Path 83297" d="M34.5,53.869c-8.267-.656-19.036-8.685-22.844-11.724l-.65.478L9.45,40.311,7.335,38.5,8,38.034C5.459,33.858,0,23.975,0,16.189q0-.648.049-1.271C.921,3.919,8.963,0,16.2,0c7.537,0,13.441,7.507,13.441,17.089q0,.972-.079,1.983a18.52,18.52,0,0,1-2.918,8.021c3.787-1.608,7.667-2.775,10.955-2.775l1.054.041c11,.872,14.917,8.914,14.917,16.149,0,7.537-7.506,13.441-17.089,13.441C35.831,53.948,35.169,53.923,34.5,53.869Zm.474-5.981q.768.062,1.508.061c6.218,0,11.09-3.269,11.09-7.441a10.053,10.053,0,0,0-8.2-10.237,9.216,9.216,0,0,1,1.16,1.239,11.427,11.427,0,0,1,2.222,7.1,7.5,7.5,0,0,1-.933,3.617A9.058,9.058,0,0,1,39.31,45.1,12.949,12.949,0,0,1,32.9,47.529,12.538,12.538,0,0,0,34.97,47.887Zm-5-3.3c.382.03.764.045,1.139.045,4.846,0,8.643-2.642,8.643-6.016,0-2.518-.8-6.655-5.8-7.75a34.253,34.253,0,0,0-4.356,1.5,6.158,6.158,0,0,1,3.452,2.18,7.363,7.363,0,0,1,1.4,4.516,5.024,5.024,0,0,1-2.136,4,7.942,7.942,0,0,1-3.2,1.407Q29.552,44.549,29.968,44.582Zm-2.926-.9a7.709,7.709,0,0,0,4.664-1.412,4.046,4.046,0,0,0,1.742-3.206c0-1.659-.535-5.559-5.5-5.953l-.058,0A90.344,90.344,0,0,0,17.769,38.64a42.335,42.335,0,0,0,8.611,5.019C26.6,43.673,26.825,43.681,27.042,43.681ZM11.147,26.673c-.012.149-.018.307-.018.467a16.273,16.273,0,0,0,1.839,6.365,47.534,47.534,0,0,0,8.214-8.989,6.379,6.379,0,0,0-.877-1.6A4.045,4.045,0,0,0,17.1,21.175C15.441,21.175,11.541,21.711,11.147,26.673ZM8.529,20.479c-.016.2-.024.41-.024.626a19.3,19.3,0,0,0,1.667,6.868c-.028-.283-.043-.561-.043-.833,0-.186.007-.37.021-.546a6.7,6.7,0,0,1,2.434-5.016,7.357,7.357,0,0,1,4.516-1.4,5.024,5.024,0,0,1,4,2.136,7.087,7.087,0,0,1,.722,1.174c.254-.435.486-.87.693-1.3q.007-.217.007-.43c0-4.847-2.642-8.643-6.016-8.643C13.746,13.11,9.038,14.068,8.529,20.479Zm-2.5-5.088-.03.8q0,.576.056,1.186a10.979,10.979,0,0,1,.724-1.835,9.368,9.368,0,0,1,2.624-3.208,11.427,11.427,0,0,1,7.1-2.222,7.5,7.5,0,0,1,3.617.933,9.069,9.069,0,0,1,2.868,2.506q.2.259.38.532C22.513,9.37,19.668,6,16.2,6,11.9,6,6.646,7.629,6.03,15.392Z" transform="translate(-7204.049 3425.148)" fill="#838997"/>
    <path id="Path_635" data-name="Path 635" d="M6031.235-671.56c1.116-.761,12.092-13.114,12.092-13.114l-4.572-9.144,21.062,21.454,4.5,6.7-15.642-16.554,3.011,5.464-12.936,13.267Z" transform="translate(-13228.994 4160.377)" fill="#838997"/>
    <path id="Path_635_-_Outline" data-name="Path 635 - Outline" d="M6038.747-662.765l-.357-.384-7.917-8.5.481-.328c.768-.524,7.375-7.833,11.775-12.78l-4.42-8.841.8-.574,21.094,21.487.026.038,4.5,6.7-.778.622-12.946-13.7,1.3,2.351-.259.266Zm-6.795-8.759,6.812,7.31,12.311-12.626-2.833-5.139.8-.585,11.488,12.158-1.1-1.64L6040.621-691.2l3.3,6.608-.225.253C6042.664-683.175,6034.189-673.65,6031.952-671.524Z" transform="translate(-13228.994 4160.377)" fill="#838997"/>
    <path id="Path_637" data-name="Path 637" d="M5969.526-741.447l10.981-10.981,30.021,32.083,2.145,3.517-28.05-28.393-10.937,10.937Z" transform="translate(-13199.23 4188.645)" fill="#838997"/>
    <path id="Path_637_-_Outline" data-name="Path 637 - Outline" d="M5980.519-753.147l.354.377,30.056,32.12.026.044,2.145,3.517-.782.612-27.7-28.035L5973.58-733.47l-.327-.562-4.353-7.5Zm28.289,31.695L5980.5-751.709l-10.344,10.344,3.64,6.268,10.833-10.834.354.358Z" transform="translate(-13199.23 4188.645)" fill="#838997"/>
  </g>
</svg>
