<svg id="Group_1921" data-name="Group 1921" xmlns="http://www.w3.org/2000/svg" width="337" height="337" viewBox="0 0 337 337">
  <g id="Waves" transform="translate(65.746 57.795)">
    <path id="Path_125" data-name="Path 125" d="M2532.348,1313.117c-3.076-7.683-6.748-29.571,18.351-25.538,20.615,3.312,20.964-16.154,18.362-26.079" transform="translate(-2311.233 -1177.382)" fill="none" stroke="#000" stroke-linecap="round" stroke-width="1"/>
    <path id="Path_126" data-name="Path 126" d="M2227.812,535.235c-1.194-3.075-2.557-11.828,7.436-10.1,8.212,1.408,8.438-6.354,7.435-10.33" transform="translate(-2042.216 -514.8)" fill="none" stroke="#2039d2" stroke-linecap="round" stroke-width="1"/>
    <path id="Path_127" data-name="Path 127" d="M1768.484,731.884c-.406-1.048-.879-4.044,2.546-3.458,2.8.484,2.884-2.174,2.546-3.526" transform="translate(-1635.114 -701.232)" fill="none" stroke="#000" stroke-linecap="round" stroke-width="1"/>
    <path id="Path_128" data-name="Path 128" d="M1826.478,1119.1c-.631-1.611-1.341-6.184,3.887-5.295,4.292.744,4.416-3.323,3.886-5.407" transform="translate(-1686.439 -1041.53)" fill="none" stroke="#000" stroke-linecap="round" stroke-width="1"/>
    <path id="Path_129" data-name="Path 129" d="M2207.119,2002.943c-1.081-2.794-2.32-10.736,6.748-9.17,7.458,1.284,7.649-5.768,6.748-9.373" transform="translate(-2023.922 -1818.846)" fill="none" stroke="#2039d2" stroke-linecap="round" stroke-width="1"/>
    <path id="Path_130" data-name="Path 130" d="M2106.121,1588.045c-.552-1.115-1.341-4.36,2.467-4.033,3.132.27,2.963-2.659,2.467-4.112" transform="translate(-1934.55 -1459.914)" fill="none" stroke="#000" stroke-linecap="round" stroke-width="1"/>
    <path id="Path_131" data-name="Path 131" d="M2156.574,2347.15c-.9-1.847-2.208-7.2,4.078-6.658,5.16.451,4.889-4.382,4.067-6.793" transform="translate(-1979.055 -2128.796)" fill="none" stroke="#000" stroke-linecap="round" stroke-width="1"/>
    <path id="Path_132" data-name="Path 132" d="M1194.575,2430.724c-.395-.8-.958-3.12,1.768-2.884,2.242.191,2.118-1.893,1.769-2.94" transform="translate(-1125.81 -2209.723)" fill="none" stroke="#2039d2" stroke-linecap="round" stroke-width="1"/>
    <path id="Path_133" data-name="Path 133" d="M985.494,2382.378c-.867-1.781-2.129-6.939,3.932-6.421,4.979.428,4.72-4.225,3.932-6.557" transform="translate(-939.925 -2160.475)" fill="none" stroke="#000" stroke-linecap="round" stroke-width="1"/>
    <path id="Path_134" data-name="Path 134" d="M587.679,1126.663c-.879-1.78-2.366-6.646,2.839-4.675,4.281,1.622,3.684-2.546,2.828-4.788" transform="translate(-586.787 -1049.338)" fill="none" stroke="#2039d2" stroke-linecap="round" stroke-width="1"/>
  </g>
  <g id="Lines" transform="translate(16.012 49.651)">
    <path id="Path_135" data-name="Path 135" d="M1300.393,2369.1l-24.693,29.638" transform="translate(-1148.358 -2152.064)" fill="none" stroke="#000" stroke-linecap="round" stroke-width="1"/>
    <path id="Path_136" data-name="Path 136" d="M1033.493,2025.6l-24.693,29.628" transform="translate(-911.525 -1847.26)" fill="none" stroke="#000" stroke-linecap="round" stroke-width="1"/>
    <path id="Path_137" data-name="Path 137" d="M1478.588,2266.5,1447,2304.441" transform="translate(-1300.361 -2061.022)" fill="none" stroke="#000" stroke-linecap="round" stroke-width="1"/>
    <path id="Path_138" data-name="Path 138" d="M844.577,2044.6,813,2082.542" transform="translate(-737.782 -1864.119)" fill="none" stroke="#000" stroke-linecap="round" stroke-width="1"/>
    <path id="Path_139" data-name="Path 139" d="M1477.927,2453.2l-17.427,21.528" transform="translate(-1312.34 -2226.69)" fill="none" stroke="#000" stroke-linecap="round" stroke-width="1"/>
    <path id="Path_140" data-name="Path 140" d="M185.247,867.7l-19.973,23.95L145.3,915.6" transform="translate(-145.3 -819.8)" fill="none" stroke="#7432ff" stroke-linecap="round" stroke-width="1"/>
    <path id="Path_141" data-name="Path 141" d="M363.546,442.5,288.7,532.092" transform="translate(-272.546 -442.5)" fill="none" stroke="#7432ff" stroke-linecap="round" stroke-width="1"/>
    <path id="Path_142" data-name="Path 142" d="M337.777,701.8,276.1,777.142" transform="translate(-261.365 -672.589)" fill="none" stroke="#7432ff" stroke-linecap="round" stroke-width="1"/>
    <path id="Path_143" data-name="Path 143" d="M2367.087,1719.8l-69.687,84.32" transform="translate(-2054.961 -1575.909)" fill="none" stroke="#000" stroke-linecap="round" stroke-width="1"/>
    <path id="Path_144" data-name="Path 144" d="M2344.746,1960.6l-61.846,74.6" transform="translate(-2042.094 -1789.583)" fill="none" stroke="#000" stroke-linecap="round" stroke-width="1"/>
  </g>
  <g id="Black_Elipses" transform="translate(30.544 44.716)">
    <ellipse id="Ellipse_1" data-name="Ellipse 1" cx="6.489" cy="6.489" rx="6.489" ry="6.489" transform="translate(258.109 101.781)" fill="none" stroke="#000" stroke-width="1"/>
    <ellipse id="Ellipse_2" data-name="Ellipse 2" cx="3.166" cy="3.166" rx="3.166" ry="3.166" transform="translate(0 34.539)" fill="none" stroke="#000" stroke-width="1"/>
    <ellipse id="Ellipse_3" data-name="Ellipse 3" cx="1.464" cy="1.464" rx="1.464" ry="1.464" transform="translate(92.364 91.102)" fill="none" stroke="#000" stroke-width="1"/>
    <ellipse id="Ellipse_4" data-name="Ellipse 4" cx="1.464" cy="1.464" rx="1.464" ry="1.464" transform="translate(188.321 64.032)" fill="none" stroke="#000" stroke-width="1"/>
    <ellipse id="Ellipse_5" data-name="Ellipse 5" cx="1.464" cy="1.464" rx="1.464" ry="1.464" transform="translate(156.046 194.765)" fill="none" stroke="#000" stroke-width="1"/>
    <ellipse id="Ellipse_6" data-name="Ellipse 6" cx="1.555" cy="1.555" rx="1.555" ry="1.555" transform="translate(249.885 181.494)" fill="none" stroke="#000" stroke-width="1"/>
    <ellipse id="Ellipse_7" data-name="Ellipse 7" cx="7.66" cy="7.66" rx="7.66" ry="7.66" transform="translate(146.009)" fill="none" stroke="#000" stroke-width="1"/>
    <ellipse id="Ellipse_8" data-name="Ellipse 8" cx="11.727" cy="11.727" rx="11.727" ry="11.727" transform="translate(21.866 218.106)" fill="none" stroke="#000" stroke-width="1"/>
    <ellipse id="Ellipse_9" data-name="Ellipse 9" cx="5.024" cy="5.024" rx="5.024" ry="5.024" transform="translate(22.204 117.091)" fill="none" stroke="#000" stroke-width="1"/>
    <ellipse id="Ellipse_10" data-name="Ellipse 10" cx="2.951" cy="2.951" rx="2.951" ry="2.951" transform="translate(202.143 44.239)" fill="none" stroke="#000" stroke-width="1"/>
  </g>
  <g id="Color_Elipses" transform="translate(16.71 63.619)">
    <ellipse id="Ellipse_11" data-name="Ellipse 11" cx="33.424" cy="33.424" rx="33.424" ry="33.424" transform="translate(216.743 32.478)" fill="none" stroke="#ff7a00" stroke-width="1"/>
    <ellipse id="Ellipse_12" data-name="Ellipse 12" cx="56.394" cy="56.394" rx="56.394" ry="56.394" transform="translate(119.806)" fill="none" stroke="#ff7a00" stroke-width="1"/>
    <ellipse id="Ellipse_13" data-name="Ellipse 13" cx="20.807" cy="20.807" rx="20.807" ry="20.807" transform="translate(0 137.999)" fill="none" stroke="#ff7a00" stroke-width="1"/>
    <ellipse id="Ellipse_14" data-name="Ellipse 14" cx="11.243" cy="11.243" rx="11.243" ry="11.243" transform="translate(167.593 194.449)" fill="none" stroke="#ff7a00" stroke-width="1"/>
    <ellipse id="Ellipse_15" data-name="Ellipse 15" cx="4.461" cy="4.461" rx="4.461" ry="4.461" transform="translate(100.565 3.729)" fill="none" stroke="#ff7a00" stroke-width="1"/>
  </g>
  <rect id="Rectangle_29" data-name="Rectangle 29" width="337" height="337" fill="none"/>
  <path id="Path_145" data-name="Path 145" d="M1334.1,2010.862l31.667-36.86-17.112-5Z" transform="translate(-1184.167 -1747.386)" fill="#1870b5"/>
  <path id="Path_146" data-name="Path 146" d="M983.151,998.1l-69.371,28.388L812.9,1071.639l33.559,14.848,16.684,7.908,8.494,55.031,14.341-41.85,64.978,18.734Z" transform="translate(-721.682 -885.86)" fill="#389ded"/>
  <path id="Path_147" data-name="Path 147" d="M1088.636,1673.628l28.524-19.928c-4.022.912-14.825,3.1-25.9,4.54s-16.785,6-18.261,8.111Z" transform="translate(-952.481 -1467.605)" fill="#1870b5"/>
  <path id="Path_148" data-name="Path 148" d="M1375.163,1034.5,1261.6,1124.937l-2.3,1.724,8.449,54.772,14.634-41.851Z" transform="translate(-1117.793 -918.159)"/>
  <g id="Hand" transform="translate(190.082 175.889)">
    <path id="Path_149" data-name="Path 149" d="M1695.919,1579.547c-.383-.665-3.639-8.269-5.419-12.053l12.459-4.394,1.622,4.731c3.155,1.363,10.556,3.853,12.459,4.7,2.343,1.048,1.971,1.972,1.386,2.3,2.918.743,2.636,2.152,2.14,2.771.45.214,1.69,1,1.262,1.938-.439.958-1.78.766-2.625.484.518.395,1.408,1.476.383,1.893-1.4.574-7.593-.71-12.5-2.388,2.073.811,3.965,1.769,4.968,2.039,1.262.338,1.8,2.185,0,2.478C1702.869,1584.56,1696.4,1580.381,1695.919,1579.547Z" transform="translate(-1690.5 -1563.1)" fill="#ff6b6b"/>
    <path id="Path_150" data-name="Path 150" d="M1876.579,1691.17a69.675,69.675,0,0,0-8.179-2.67" transform="translate(-1848.359 -1674.373)" fill="none" stroke="#000" stroke-linecap="round" stroke-width="1"/>
    <path id="Path_151" data-name="Path 151" d="M1886.894,1668.99a65.654,65.654,0,0,0-7.694-2.49" transform="translate(-1857.942 -1654.852)" fill="none" stroke="#000" stroke-linecap="round" stroke-width="1"/>
    <path id="Path_152" data-name="Path 152" d="M1870.594,1644.79a65.665,65.665,0,0,0-7.694-2.49" transform="translate(-1843.479 -1633.378)" fill="none" stroke="#000" stroke-linecap="round" stroke-width="1"/>
    <path id="Path_153" data-name="Path 153" d="M1691.4,1567.941l12.336-4.641-10.364,8.911Z" transform="translate(-1691.299 -1563.277)" fill="#e34545"/>
  </g>
  <g id="Head" transform="translate(121.29 82.751)">
    <path id="Path_154" data-name="Path 154" d="M1139.089,788.322c13.54-9.485-2.4-22.35-5.329-25.313-1.036-2.253-1.983-3.977-5.914-5.464-14.341-5.43-19.083,8.46-19.872,10.33-2.523,5.948-21.179-4.743-27.363,7.728-3.785,7.627,7.244,14.431,13.3,13.631-1.385.7-5.475,1.927-1.217,6.151,5.137,3.853,47.945,14.859,49.421,3.3C1143.156,790.542,1138.571,788.165,1139.089,788.322Z" transform="translate(-1079.838 -754.045)"/>
    <path id="Path_155" data-name="Path 155" d="M1543.424,739.038c-5.475-5.734-11.907-1.059-14.431,1.994-1.172,4,4.179,8.832,6.185,9.418C1540.676,752.072,1550.274,746.214,1543.424,739.038Z" transform="translate(-1478.248 -736.326)"/>
    <path id="Path_156" data-name="Path 156" d="M1334.479,824.847c-6.252-2.411-4.979-12.223-1.848-16,7.593.045,12.076-5.024,11.941-4.574-3.56,12.1,4.191,15.479,4.033,16,2.827,9.654,4.563,10.848,4.54,10.86-3.988,5.1-9.4,3.886-13.214,2.332l-1.982-8.64A5.97,5.97,0,0,1,1334.479,824.847Z" transform="translate(-1301.848 -796.597)" fill="#ff6b6b"/>
    <path id="Path_157" data-name="Path 157" d="M1397.8,880.1a6.607,6.607,0,0,0,4.213,2.016" transform="translate(-1361.981 -863.904)" fill="none" stroke="#000" stroke-linecap="round" stroke-width="1"/>
    <path id="Path_158" data-name="Path 158" d="M1325.1,853.2a6.607,6.607,0,0,0,4.213,2.017" transform="translate(-1297.471 -840.034)" fill="none" stroke="#000" stroke-linecap="round" stroke-width="1"/>
    <path id="Path_159" data-name="Path 159" d="M1358.179,883.7s-1.679-.575-1.679-1.431c0-.552,1.9-3.47,1.9-3.47" transform="translate(-1325.333 -862.75)" fill="none" stroke="#000" stroke-linecap="round" stroke-width="1"/>
    <path id="Path_160" data-name="Path 160" d="M1406.348,959.7c-2.174,2.456-5.7,2.906-5.948,3.075l.98,4.247Z" transform="translate(-1364.288 -934.536)" fill="#e34545"/>
    <path id="Path_161" data-name="Path 161" d="M1420.572,940.6a18.321,18.321,0,0,1-6.872,4.968" transform="translate(-1376.09 -917.588)" fill="none" stroke="#000" stroke-linecap="round" stroke-width="1"/>
    <ellipse id="Ellipse_16" data-name="Ellipse 16" cx="1.769" cy="1.769" rx="1.769" ry="1.769" transform="translate(35.109 19.182)" fill="#e34545"/>
    <path id="Path_162" data-name="Path 162" d="M1332.461,879.839a1.788,1.788,0,0,1-2.061,1.453,15.566,15.566,0,0,1,.225-1.78,10.521,10.521,0,0,1,.428-1.712A1.746,1.746,0,0,1,1332.461,879.839Z" transform="translate(-1302.173 -861.863)" fill="#e34545"/>
  </g>
  <g id="Body" transform="translate(128.033 116.526)">
    <path id="Path_163" data-name="Path 163" d="M1180.108,1039.89c-3.92,1.329-9.2-1.757-10.026-2.084s-4.01-3.571-9.632,0c-9.958,6.32-20.751,37.93-20.751,38.336,2.906,2.163,11.31,2.906,11.31,2.5,2.523-11.839,8.483-18.351,11.141-20.131-1.138,5.88-3.312,17.63-2.906,17.63,13.1-1.127,23.319,4.855,26.777,7.987.338-6.737,1.16-20.21,1.825-20.21,2.456,2.061,6.692,30.563,9.5,37.2l16.864-5.6c-.282-1.577-2.242-6.748-9.891-28.524s-10.9-29.56-20.041-30.1A10.225,10.225,0,0,1,1180.108,1039.89Z" transform="translate(-1139.7 -1036.144)" fill="#013865"/>
    <path id="Path_164" data-name="Path 164" d="M1549.1,1230.6a99.6,99.6,0,0,1,1.16,18.43" transform="translate(-1502.98 -1208.694)" fill="none" stroke="#000" stroke-linecap="round" stroke-width="1"/>
    <path id="Path_165" data-name="Path 165" d="M1328.168,1195a32.62,32.62,0,0,0-4.168,9" transform="translate(-1303.238 -1177.104)" fill="none" stroke="#000" stroke-linecap="round" stroke-width="1"/>
    <path id="Path_166" data-name="Path 166" d="M1567.856,1219.6a20.039,20.039,0,0,0-1.656,4.934" transform="translate(-1518.154 -1198.933)" fill="none" stroke="#000" stroke-linecap="round" stroke-width="1"/>
    <path id="Path_167" data-name="Path 167" d="M1611.777,1391.9a32.054,32.054,0,0,0-.777,6.557" transform="translate(-1557.907 -1351.823)" fill="none" stroke="#000" stroke-linecap="round" stroke-width="1"/>
    <path id="Path_168" data-name="Path 168" d="M1697.022,1575.1c-2.715.867-6.263,1.971-9.722,3.267" transform="translate(-1625.612 -1514.385)" fill="none" stroke="#000" stroke-linecap="round" stroke-width="1"/>
    <path id="Path_169" data-name="Path 169" d="M1423,1048.639c2.591,1.431,8.325,2.636,12.426-1.239" transform="translate(-1391.085 -1046.132)" fill="none" stroke="#000" stroke-linecap="round" stroke-width="1"/>
    <path id="Path_170" data-name="Path 170" d="M1300.8,1386.636c2.14-.676,14.487-1.724,24.6,4.562" transform="translate(-1282.651 -1346.694)" fill="none" stroke="#000" stroke-linecap="round" stroke-width="1"/>
    <ellipse id="Ellipse_17" data-name="Ellipse 17" cx="1.949" cy="1.949" rx="1.949" ry="1.949" transform="translate(21.043 2.158)" fill="#fff"/>
    <ellipse id="Ellipse_18" data-name="Ellipse 18" cx="1.949" cy="1.949" rx="1.949" ry="1.949" transform="translate(37.243 16.769)" fill="#fff"/>
    <ellipse id="Ellipse_19" data-name="Ellipse 19" cx="1.949" cy="1.949" rx="1.949" ry="1.949" transform="translate(22.801 24.497)" fill="#fff"/>
    <ellipse id="Ellipse_20" data-name="Ellipse 20" cx="1.949" cy="1.949" rx="1.949" ry="1.949" transform="translate(46.661 6.044)" fill="#fff"/>
    <ellipse id="Ellipse_21" data-name="Ellipse 21" cx="1.949" cy="1.949" rx="1.949" ry="1.949" transform="translate(10.24 21.895)" fill="#fff"/>
    <ellipse id="Ellipse_22" data-name="Ellipse 22" cx="1.949" cy="1.949" rx="1.949" ry="1.949" transform="translate(28.501 34.996)" fill="#fff"/>
    <ellipse id="Ellipse_23" data-name="Ellipse 23" cx="1.949" cy="1.949" rx="1.949" ry="1.949" transform="translate(41.873 31.11)" fill="#fff"/>
    <ellipse id="Ellipse_24" data-name="Ellipse 24" cx="1.949" cy="1.949" rx="1.949" ry="1.949" transform="translate(62.928 54.845)" fill="#fff"/>
    <ellipse id="Ellipse_25" data-name="Ellipse 25" cx="1.949" cy="1.949" rx="1.949" ry="1.949" transform="translate(59.041 31.11)" fill="#fff"/>
    <ellipse id="Ellipse_26" data-name="Ellipse 26" cx="1.949" cy="1.949" rx="1.949" ry="1.949" transform="translate(6.342 36.438)" fill="#fff"/>
  </g>
  <g id="Legs" transform="translate(36.65 144.448)">
    <path id="Path_171" data-name="Path 171" d="M378.112,2007.878c3.74-4.653,6.939-13.958,7.739-17.157l-19.14-20.221a6.746,6.746,0,0,1-2.219,1.825c-2.771,1.273-7.581,1.5-17.664.575a30.51,30.51,0,0,0-18.329,4.574C345.2,1987.1,378.112,2007.878,378.112,2007.878Z" transform="translate(-328.5 -1893.164)"/>
    <path id="Path_172" data-name="Path 172" d="M735.214,1426.055c22.17-1.419,25.73-18.531,26.147-27.4-9.587-8.663-21.956-8.539-27.127-7.6,0,2.276,1.9,7.5-2.017,10.466s-27.476,5.565-34.731,7.6c-5.8,1.634-11.018,9.914-12.955,13.395-6.365,11.637-13.856,25.775-23.432,33.312l23.8,24.84c3.684-8.7,8.979-21.618,12.583-28.535C702.849,1441.838,707.5,1427.824,735.214,1426.055Z" transform="translate(-623.632 -1378.617)" fill="#ffb905"/>
    <path id="Path_173" data-name="Path 173" d="M1448.855,1434.6c-4.258-4.393-6.6-13.8-6.038-16.9-.935,1.746-2.084,8.01-.62,12.55C1443.414,1434.046,1446.32,1435.274,1448.855,1434.6Z" transform="translate(-1316.117 -1402.638)" fill="#ff7d05"/>
    <path id="Path_174" data-name="Path 174" d="M779.641,1321.318c1.96-.575,10.488-6.388,11.547-11.254-3.672-.721-.845,0-9.429,0-17.822-2.456-40.8-10.195-45.388-10.465-7.153-.428-11.186-2.265-17.912,9.226-5.385,9.193-1.848,42.357-.045,56.45l3.729-4.867,15.636-26.192a25.952,25.952,0,0,0-1.419-8.257s10.578,1.273,18.182,1.273C760.682,1326.365,777.4,1321.971,779.641,1321.318Z" transform="translate(-671.991 -1297.515)" fill="#ffb905"/>
    <path id="Path_175" data-name="Path 175" d="M739.221,1495.875c7.12-10.916,18.959-30.281,19.477-31.036a75.107,75.107,0,0,0-1.6-8.1s9.508,4.168,40.262-3.965c-27.577,2.974-43.168-4.946-43.7-5.813-1.284-2.129-.507,13.7-7.469,20.728C740.28,1473.671,738.726,1485.827,739.221,1495.875Z" transform="translate(-692.876 -1428.43)" fill="#ff7d05"/>
    <path id="Path_176" data-name="Path 176" d="M881.2,1483.7a52.576,52.576,0,0,1,4.033,8.865" transform="translate(-818.937 -1461.203)" fill="none" stroke="#000" stroke-linecap="round" stroke-width="1"/>
    <path id="Path_177" data-name="Path 177" d="M1057.7,1775.7c1.9-2.557,4.822-3.931,9.238-3.188" transform="translate(-975.554 -1717.305)" fill="none" stroke="#000" stroke-linecap="round" stroke-width="1"/>
    <path id="Path_178" data-name="Path 178" d="M969.854,1873.915l-2.276-6.815c-.518.89-1.611,2.783-1.847,3.233s-3.256,6.725-4.731,9.8Z" transform="translate(-889.747 -1801.412)"/>
    <path id="Path_179" data-name="Path 179" d="M712,1542.507c6.219-5.2,14.859-22,17.2-25.493,4.844-7.21,7.953-13.721,21.122-15.355,7.683-1.386,23.533-4.359,25.516-5.159" transform="translate(-668.798 -1472.561)" fill="none" stroke="#000" stroke-linecap="round" stroke-width="1"/>
    <path id="Path_180" data-name="Path 180" d="M730.7,1302.6c.011-6.117,2.073-18.227,12.55-18.6" transform="translate(-685.391 -1284)" fill="none" stroke="#000" stroke-linecap="round" stroke-width="1"/>
    <path id="Path_181" data-name="Path 181" d="M864.7,1810.1l6.061,1.329" transform="translate(-804.296 -1750.833)" fill="none" stroke="#000" stroke-linecap="round" stroke-width="1"/>
    <path id="Path_182" data-name="Path 182" d="M1444.068,1420.5c-2.974,11.637,2.129,16.447,2.129,16.447" transform="translate(-1317.57 -1405.123)" fill="none" stroke="#000" stroke-linecap="round" stroke-width="1"/>
    <path id="Path_183" data-name="Path 183" d="M1325.5,1440.424l5.667-2.524" transform="translate(-1213.186 -1420.563)" fill="none" stroke="#000" stroke-linecap="round" stroke-width="1"/>
    <path id="Path_184" data-name="Path 184" d="M918.4,1425.323l5.667-2.523" transform="translate(-851.946 -1407.164)" fill="none" stroke="#000" stroke-linecap="round" stroke-width="1"/>
    <path id="Path_185" data-name="Path 185" d="M1135.5,1428.028l.924-6.128" transform="translate(-1044.59 -1406.365)" fill="none" stroke="#000" stroke-linecap="round" stroke-width="1"/>
    <path id="Path_186" data-name="Path 186" d="M783.012,1469.674,778.1,1465.9" transform="translate(-727.452 -1445.408)" fill="none" stroke="#000" stroke-linecap="round" stroke-width="1"/>
    <path id="Path_187" data-name="Path 187" d="M828.612,1580.674,823.7,1576.9" transform="translate(-767.915 -1543.904)" fill="none" stroke="#000" stroke-linecap="round" stroke-width="1"/>
    <path id="Path_188" data-name="Path 188" d="M762.916,1617.8l-4.416,4.349" transform="translate(-710.059 -1580.196)" fill="none" stroke="#000" stroke-linecap="round" stroke-width="1"/>
    <path id="Path_189" data-name="Path 189" d="M1266.816,1581.6l-4.416,4.348" transform="translate(-1157.194 -1548.075)" fill="none" stroke="#000" stroke-linecap="round" stroke-width="1"/>
    <path id="Path_190" data-name="Path 190" d="M1049.016,1655.7l-4.416,4.348" transform="translate(-963.93 -1613.827)" fill="none" stroke="#000" stroke-linecap="round" stroke-width="1"/>
    <path id="Path_191" data-name="Path 191" d="M941.234,1612.5l-5.734,2.354" transform="translate(-867.12 -1575.494)" fill="none" stroke="#000" stroke-linecap="round" stroke-width="1"/>
    <path id="Path_192" data-name="Path 192" d="M825.734,1982.8,820,1985.166" transform="translate(-764.631 -1904.078)" fill="none" stroke="#000" stroke-linecap="round" stroke-width="1"/>
    <path id="Path_193" data-name="Path 193" d="M714,1953.1c1.881,1.059,14.1,13.384,21,21.134" transform="translate(-670.572 -1877.724)" fill="none" stroke="#000" stroke-linecap="round" stroke-width="1"/>
    <path id="Path_194" data-name="Path 194" d="M611.809,1874.933c.563-5.587.71-16.56-3.177-15.76S609.139,1870.011,611.809,1874.933Z" transform="translate(-575.715 -1794.342)" fill="none" stroke="#000" stroke-width="1"/>
    <path id="Path_195" data-name="Path 195" d="M573.25,1894.516c-1.893-5.43-6.466-15.715-9.564-13.383S568.766,1891.024,573.25,1894.516Z" transform="translate(-536.581 -1813.564)" fill="none" stroke="#000" stroke-width="1"/>
  </g>
</svg>
