<svg xmlns="http://www.w3.org/2000/svg" width="148" height="48.818" viewBox="0 0 148 48.818">
  <g id="Group_740" data-name="Group 740" transform="translate(-18 -27.182)">
    <text id="DiviDeals" transform="translate(77 70)" fill="#fff" font-size="18" font-family="Poppins-Regular, Poppins" letter-spacing="0.05em"><tspan x="0" y="0">DiviDeals</tspan></text>
    <g id="Artboard_1_1_" data-name="Artboard 1 (1)" transform="translate(18 27.182)">
      <path id="Path_83316" data-name="Path 83316" d="M162.031,90.516a.41.41,0,0,1-.41-.41c0-8.633-7.357-15.657-16.4-15.657s-16.4,7.024-16.4,15.657a.41.41,0,0,1-.82,0c0-9.085,7.725-16.476,17.221-16.476s17.22,7.391,17.22,16.476A.41.41,0,0,1,162.031,90.516Z" transform="translate(-123.684 -73.63)" fill="#fff"/>
      <path id="Path_83317" data-name="Path 83317" d="M85.87,269.41v23.86H99.836s4.21-.093,6.1-1.694a.5.5,0,0,0,.086-.66,18.059,18.059,0,0,1-2.382-4.668.238.238,0,0,0-.4-.114,7.166,7.166,0,0,1-4.761,2.228H91.849V269.411Z" transform="translate(-85.87 -249.355)" fill="#0081e9"/>
      <path id="Path_83318" data-name="Path 83318" d="M329.691,293.27V269.41H315.724s-4.21.093-6.1,1.694a.5.5,0,0,0-.086.66,18.06,18.06,0,0,1,2.382,4.668.238.238,0,0,0,.4.114,7.171,7.171,0,0,1,4.761-2.229h6.626v18.951Z" transform="translate(-286.552 -249.355)" fill="#0081e9"/>
      <path id="Path_83319" data-name="Path 83319" d="M190.426,288.407v4.863h-6.454c-3.242,0-4.133-.568-4.133-.568-3.661-1.653-5.82-4.865-6.609-11.767a10.4,10.4,0,0,0-.9-3.334,5.6,5.6,0,0,0-3.675-3.182,4.086,4.086,0,0,0-1.024-.146H162.87V269.41h6.454c3.243,0,4.133.568,4.133.568,3.665,1.653,5.816,4.864,6.61,11.767a10.379,10.379,0,0,0,.9,3.332,5.608,5.608,0,0,0,3.678,3.184,4.082,4.082,0,0,0,1.018.147Z" transform="translate(-154.982 -249.355)" fill="#fff"/>
    </g>
  </g>
</svg>
