<svg xmlns="http://www.w3.org/2000/svg" xmlns:xlink="http://www.w3.org/1999/xlink" width="274" height="260" viewBox="0 0 274 260">
  <defs>
    <clipPath id="clip-path">
      <rect id="Rectangle_735" data-name="Rectangle 735" width="274" height="260" transform="translate(1092)" fill="#fff" stroke="#707070" stroke-width="1"/>
    </clipPath>
    <linearGradient id="linear-gradient" x1="0.5" x2="0.5" y2="1" gradientUnits="objectBoundingBox">
      <stop offset="0" stop-color="#0081e9"/>
      <stop offset="1" stop-color="#0067bb"/>
    </linearGradient>
  </defs>
  <g id="Mask_Group_8" data-name="Mask Group 8" transform="translate(-1092)" clip-path="url(#clip-path)">
    <g id="Group_237" data-name="Group 237" transform="translate(14 -115)">
      <path id="Path_8" data-name="Path 8" d="M282.86,0c156.219,0,282.86,126.641,282.86,282.86s-126.641,282.86-282.86,282.86S0,439.079,0,282.86,126.641,0,282.86,0Z" transform="translate(1077.991 -204)" fill="url(#linear-gradient)"/>
      <circle id="Ellipse_2" data-name="Ellipse 2" cx="209.5" cy="209.5" r="209.5" transform="translate(1189 -180)" fill="#fff" opacity="0.08"/>
      <g id="Ellipse_3" data-name="Ellipse 3" transform="translate(1335 -178)" fill="#fff" stroke="#707070" stroke-width="1" opacity="0.08">
        <circle cx="142" cy="142" r="142" stroke="none"/>
        <circle cx="142" cy="142" r="141.5" fill="none"/>
      </g>
      <circle id="Ellipse_6" data-name="Ellipse 6" cx="16" cy="16" r="16" transform="translate(1235 34)" fill="#fff" opacity="0.1"/>
      <circle id="Ellipse_7" data-name="Ellipse 7" cx="13" cy="13" r="13" transform="translate(1329 179)" fill="#fff" opacity="0.1"/>
      <circle id="Ellipse_8" data-name="Ellipse 8" cx="10" cy="10" r="10" transform="translate(1256 296)" fill="#fff" opacity="0.1"/>
      <circle id="Ellipse_9" data-name="Ellipse 9" cx="5" cy="5" r="5" transform="translate(1154 110)" fill="#fff" opacity="0.1"/>
      <circle id="Ellipse_10" data-name="Ellipse 10" cx="15" cy="15" r="15" transform="translate(1141 4)" fill="#fff" opacity="0.1"/>
      <circle id="Ellipse_11" data-name="Ellipse 11" cx="8" cy="8" r="8" transform="translate(1410 290)" fill="#fff" opacity="0.1"/>
      <circle id="Ellipse_12" data-name="Ellipse 12" cx="4.5" cy="4.5" r="4.5" transform="translate(1418 96)" fill="#fff" opacity="0.1"/>
      <ellipse id="Ellipse_13" data-name="Ellipse 13" cx="12" cy="12.5" rx="12" ry="12.5" transform="translate(1398 -13)" fill="#fff" opacity="0.1"/>
    </g>
  </g>
</svg>
