<svg xmlns="http://www.w3.org/2000/svg" width="18" height="13.999" viewBox="0 0 18 13.999">
  <path id="Path_83300" data-name="Path 83300" d="M3327,76h-12a3,3,0,0,1-3-3V65a3,3,0,0,1,3-3h12a3,3,0,0,1,3,3v8A3,3,0,0,1,3327,76Zm-8.365-3.939h0a3.772,3.772,0,0,0,.878.5l.206,1.339a.251.251,0,0,0,.258.2h2.068a.279.279,0,0,0,.258-.2l.207-1.339a4.33,4.33,0,0,0,.878-.5l1.292.5a.282.282,0,0,0,.1.02.229.229,0,0,0,.208-.121l1.034-1.743a.3.3,0,0,0-.052-.328l-1.137-.834a3.248,3.248,0,0,0,.025-.5c0-.088-.006-.171-.012-.251s-.013-.163-.013-.254l1.086-.833a.233.233,0,0,0,.051-.328l-1.033-1.743a.251.251,0,0,0-.22-.121.211.211,0,0,0-.091.019l-1.292.506a3.779,3.779,0,0,0-.878-.506l-.181-1.338a.278.278,0,0,0-.258-.2h-2.067a.277.277,0,0,0-.258.2l-.207,1.338a4.313,4.313,0,0,0-.878.506l-1.292-.506a.285.285,0,0,0-.1-.019.231.231,0,0,0-.208.121l-1.033,1.743a.308.308,0,0,0,.051.329l1.112.833c0,.092-.007.181-.013.253s-.013.165-.013.253.007.171.013.251.013.163.013.254l-1.085.834a.231.231,0,0,0-.052.328l1.033,1.743a.25.25,0,0,0,.219.121.206.206,0,0,0,.091-.02l1.292-.5Zm2.352-1.238a1.769,1.769,0,1,1,1.808-1.768A1.771,1.771,0,0,1,3320.988,70.822Z" transform="translate(-3312 -62)" fill="#787f9f"/>
</svg>
