<svg xmlns="http://www.w3.org/2000/svg" width="20.353" height="20.563" viewBox="0 0 20.353 20.563">
  <g id="product-management" transform="translate(0 0.273)">
    <path id="Path_83345" data-name="Path 83345" d="M62.908-346.429c-.326.1-.6.175-.609.183s2.546.74,2.561.728a.481.481,0,0,0-.052-.167c-.056-.147-.08-.163-.5-.33-.445-.175-.632-.294-.748-.481l-.064-.1Z" transform="translate(-59.827 353.143)" fill="#5c6878"/>
    <path id="Path_83346" data-name="Path 83346" d="M386.544-345.924c-.048.151-.29.314-.728.485-.422.167-.445.183-.5.33a.5.5,0,0,0-.052.167c.016.012,2.573-.712,2.557-.728s-1.118-.33-1.185-.33A.116.116,0,0,0,386.544-345.924Z" transform="translate(-369.944 352.567)" fill="#5c6878"/>
    <path id="Path_83347" data-name="Path 83347" d="M1.378-326.518c-.127.167-1.161,1.945-1.2,2.072a1.033,1.033,0,0,0,.107.776c.219.354.143.326,3.755,1.34a23.48,23.48,0,0,0,3.54.919.986.986,0,0,0,.64-.294c.056-.06.426-.648.819-1.3.6-1.006.708-1.2.652-1.225-.036-.016-1.893-.537-4.125-1.161s-4.077-1.142-4.1-1.153A.091.091,0,0,0,1.378-326.518Z" transform="translate(-0.143 333.892)" fill="#5c6878"/>
    <path id="Path_83348" data-name="Path 83348" d="M274.653-324.532c-2.283.64-4.152,1.169-4.16,1.177-.024.024,1.42,2.4,1.523,2.51a.985.985,0,0,0,.64.294,22.432,22.432,0,0,0,3.536-.915c3.616-1.014,3.536-.986,3.759-1.344a1.033,1.033,0,0,0,.107-.776c-.048-.147-1.118-1.977-1.209-2.068C278.818-325.686,277.668-325.379,274.653-324.532Z" transform="translate(-259.74 333.032)" fill="#5c6878"/>
    <path id="Path_83349" data-name="Path 83349" d="M44.824-239.149c-.282.469-.573.923-.648,1.01a1.634,1.634,0,0,1-.784.489c-.5.155-.573.139-3.592-.712-1.488-.422-2.729-.764-2.752-.764A30.174,30.174,0,0,0,37-236.046v3.083l.088.1a34.441,34.441,0,0,0,4.164,1.237c2.239.624,4.077,1.13,4.085,1.122s.012-2.148.008-4.757L45.333-240Z" transform="translate(-35.534 250.783)" fill="#5c6878"/>
    <path id="Path_83350" data-name="Path 83350" d="M265-233.9c0,2.617.012,4.761.024,4.761s1.853-.509,4.089-1.134a32.26,32.26,0,0,0,4.152-1.237l.087-.1v-3.083c0-1.933-.016-3.079-.04-3.079s-1.285.35-2.812.78l-2.776.776-.358-.012a1.322,1.322,0,0,1-.628-.139c-.41-.195-.613-.43-1.157-1.344-.263-.438-.5-.831-.529-.875C265.008-238.65,265-237.894,265-233.9Z" transform="translate(-254.465 249.429)" fill="#5c6878"/>
    <path id="Icon_metro-tags" data-name="Icon metro-tags" d="M13.224,7.716H9.916a1.151,1.151,0,0,0-.706.292l-4.1,4.1a.415.415,0,0,0,0,.585l3.55,3.55a.415.415,0,0,0,.585,0l4.1-4.1a1.151,1.151,0,0,0,.292-.706V8.13A.415.415,0,0,0,13.224,7.716Zm-2.068,3.308a.827.827,0,1,1,.827-.827A.827.827,0,0,1,11.157,11.024Z" transform="translate(0.047 -7.99)" fill="#5c6878"/>
  </g>
</svg>
