<svg xmlns="http://www.w3.org/2000/svg" width="15.088" height="20" viewBox="0 0 15.088 20">
  <path id="receipt" d="M7.191,0A4.184,4.184,0,0,0,3,4.167v15a.833.833,0,0,0,.447.736.842.842,0,0,0,.864-.049l1.765-1.2,1.765,1.2a.842.842,0,0,0,.947,0l1.76-1.2,1.76,1.2a.842.842,0,0,0,.948,0l1.76-1.2,1.76,1.2a.842.842,0,0,0,.863.048.833.833,0,0,0,.447-.735v-15A4.184,4.184,0,0,0,13.9,0Zm5.029,11.667H7.191a.833.833,0,1,1,0-1.667h5.029a.833.833,0,1,1,0,1.667ZM14.735,7.5a.836.836,0,0,1-.838.833H7.191a.833.833,0,1,1,0-1.667H13.9A.836.836,0,0,1,14.735,7.5Z" transform="translate(-3)" fill="#5c6878"/>
</svg>
