<svg xmlns="http://www.w3.org/2000/svg" width="4.259" height="9.391" viewBox="0 0 4.259 9.391">
  <g id="Group_654" data-name="Group 654" transform="translate(10713 -634.774)">
    <path id="Icon_feather-triangle" data-name="Icon feather-triangle" d="M4.109,4.542,2.383,7.424a.408.408,0,0,0,.349.611H6.184a.408.408,0,0,0,.349-.611L4.806,4.542a.408.408,0,0,0-.7,0Z" transform="translate(-10715.328 630.428)" fill="#787f9f"/>
    <path id="Icon_feather-triangle-2" data-name="Icon feather-triangle" d="M4.109,7.839,2.383,4.957a.408.408,0,0,1,.349-.611H6.184a.408.408,0,0,1,.349.611L4.806,7.839a.408.408,0,0,1-.7,0Z" transform="translate(-10715.328 636.129)" fill="#787f9f"/>
  </g>
</svg>
