<svg xmlns="http://www.w3.org/2000/svg" width="19.095" height="23.043" viewBox="0 0 19.095 23.043">
  <g id="Group_1922" data-name="Group 1922" transform="translate(5775 -2813)">
    <path id="Path_83601" data-name="Path 83601" d="M2.427-449.584c-1.156.237-2.063,1.562-2.294,3.349a18.808,18.808,0,0,0-.048,2.417A9.916,9.916,0,0,0,.2-441.4a4.71,4.71,0,0,0,.7,1.706,2.464,2.464,0,0,0,1.492,1.18c.067.023.435.091.435.091l.924,2,1.144-1.87.411-.155,5.846-.029,6.133-.179a2.834,2.834,0,0,0,1.1-1.058,4.784,4.784,0,0,0,.679-1.7,10.127,10.127,0,0,0,.112-2.4,18.808,18.808,0,0,0-.048-2.417,3.95,3.95,0,0,0-1.929-3.245l-.272-.133-7.144-.006C5.848-449.624,2.539-449.607,2.427-449.584Zm13.766,3.019a.958.958,0,0,1,.276.74.963.963,0,0,1-.254.717l-.1.121H3.14l-.1-.121a.963.963,0,0,1-.254-.717.958.958,0,0,1,.276-.74l.123-.127H16.07Zm-7.6,3.4a.951.951,0,0,1,.388.665,1.274,1.274,0,0,1-.22.85l-.119.133-2.716.017c-2.444.011-2.731.006-2.843-.081a1.14,1.14,0,0,1-.179-1.278.781.781,0,0,1,.239-.289C3.3-443.239,8.381-443.251,8.59-443.164Z" transform="translate(-5775.08 3262.62)" fill="#5c6878"/>
    <path id="Icon_ionic-ios-star" data-name="Icon ionic-ios-star" d="M9.609,5.95H7.1L6.334,3.565a.272.272,0,0,0-.519,0L5.052,5.95H2.523a.281.281,0,0,0-.273.286.22.22,0,0,0,.005.048.278.278,0,0,0,.114.2L4.434,8.01l-.792,2.412a.3.3,0,0,0,.094.322.258.258,0,0,0,.154.07.325.325,0,0,0,.171-.064l2.015-1.5,2.015,1.5a.311.311,0,0,0,.171.064.24.24,0,0,0,.152-.07.291.291,0,0,0,.094-.322L7.714,8.01,9.761,6.472l.05-.045A.306.306,0,0,0,9.9,6.236.3.3,0,0,0,9.609,5.95Z" transform="translate(-5776.252 2825.23)" fill="#5c6878"/>
    <path id="Icon_ionic-ios-star-2" data-name="Icon ionic-ios-star" d="M9.609,5.95H7.1L6.334,3.565a.272.272,0,0,0-.519,0L5.052,5.95H2.523a.281.281,0,0,0-.273.286.22.22,0,0,0,.005.048.278.278,0,0,0,.114.2L4.434,8.01l-.792,2.412a.3.3,0,0,0,.094.322.258.258,0,0,0,.154.07.325.325,0,0,0,.171-.064l2.015-1.5,2.015,1.5a.311.311,0,0,0,.171.064.24.24,0,0,0,.152-.07.291.291,0,0,0,.094-.322L7.714,8.01,9.761,6.472l.05-.045A.306.306,0,0,0,9.9,6.236.3.3,0,0,0,9.609,5.95Z" transform="translate(-5767.271 2825.23)" fill="#5c6878"/>
  </g>
</svg>
