<svg xmlns="http://www.w3.org/2000/svg" width="125" height="125" viewBox="0 0 125 125">
  <g id="Group_803" data-name="Group 803" transform="translate(-268 -5448)">
    <circle id="Ellipse_306" data-name="Ellipse 306" cx="62.5" cy="62.5" r="62.5" transform="translate(268 5448)" fill="#fff"/>
    <g id="bank" transform="translate(307.698 6002.771)">
      <path id="Path_83324" data-name="Path 83324" d="M22.962-511.734c-.793.319-19.147,9.247-19.3,9.395a1.1,1.1,0,0,0-.093,1.524c.327.389.6.459,1.7.459h.972v1.944H39.675v-1.944h.972c1.1,0,1.369-.07,1.7-.459a1.1,1.1,0,0,0-.086-1.524c-.124-.124-4.13-2.17-9.449-4.83C23.655-511.75,23.351-511.89,22.962-511.734Zm2.45,5.4a1.248,1.248,0,0,1,.653,1,1.344,1.344,0,0,1-.614,1c-.288.163-.381.171-2.5.171s-2.209-.008-2.5-.171a1.344,1.344,0,0,1-.614-1,1.281,1.281,0,0,1,.645-1c.3-.156.459-.163,2.458-.163S25.1-506.493,25.412-506.337Z" transform="translate(0)" fill="#0081E9"/>
      <path id="Path_83325" data-name="Path 83325" d="M54.016-302.169l.023,7.839,4.223.023,4.215.016V-310H54Z" transform="translate(-46.755 -186.079)" fill="#0081E9"/>
      <path id="Path_83326" data-name="Path 83326" d="M202-302.145v7.855h8.4V-310H202Z" transform="translate(-183.245 -186.079)" fill="#0081E9"/>
      <path id="Path_83327" data-name="Path 83327" d="M349-302.145v7.855l4.223-.016,4.215-.023.023-7.839.016-7.831H349Z" transform="translate(-318.813 -186.079)" fill="#0081E9"/>
      <path id="Path_83328" data-name="Path 83328" d="M29.7-77.685a1.338,1.338,0,0,0-.568.5C29.016-77,29-76.728,29-74.729c0,2.209,0,2.255.179,2.512a1.269,1.269,0,0,0,.443.4c.257.132,1.229.14,17.032.14s16.775-.008,17.032-.14a1.269,1.269,0,0,0,.443-.4c.179-.257.179-.3.179-2.5,0-2.434-.008-2.489-.459-2.831-.2-.156-.358-.156-17.117-.171C37.43-77.731,29.762-77.716,29.7-77.685Z" transform="translate(-23.699 -400.29)" fill="#0081E9"/>
    </g>
  </g>
</svg>
