<svg xmlns="http://www.w3.org/2000/svg" width="15.105" height="15.11" viewBox="0 0 15.105 15.11">
  <g id="time-fast" transform="translate(0 0.007)">
    <path id="Path_85442" data-name="Path 85442" d="M5.664,23.259H.629A.629.629,0,1,1,.629,22H5.664a.629.629,0,1,1,0,1.259Z" transform="translate(0 -8.156)" fill="#96b1bc"/>
    <path id="Path_85443" data-name="Path 85443" d="M4.406,19.259H.629A.629.629,0,0,1,.629,18H4.406a.629.629,0,0,1,0,1.259Z" transform="translate(0 -6.674)" fill="#96b1bc"/>
    <path id="Path_85444" data-name="Path 85444" d="M3.147,15.259H.629A.629.629,0,1,1,.629,14H3.147a.629.629,0,1,1,0,1.259Z" transform="translate(0 -5.191)" fill="#96b1bc"/>
    <path id="Path_85445" data-name="Path 85445" d="M8.2,15.074a.63.63,0,0,1-.056-1.259A6.294,6.294,0,1,0,1.3,6.977.629.629,0,1,1,.047,6.864a7.553,7.553,0,1,1,8.208,8.208C8.236,15.074,8.217,15.074,8.2,15.074Z" transform="translate(-0.017)" fill="#96b1bc"/>
    <path id="Path_85446" data-name="Path 85446" d="M11.629,6A.629.629,0,0,0,11,6.629V9.776a.629.629,0,0,0,.184.445l1.888,1.888a.629.629,0,1,0,.89-.89l-1.7-1.7V6.629A.629.629,0,0,0,11.629,6Z" transform="translate(-4.077 -2.226)" fill="#96b1bc"/>
  </g>
</svg>
