<svg xmlns="http://www.w3.org/2000/svg" width="97.917" height="99.501" viewBox="0 0 97.917 99.501">
  <g id="Group_704" data-name="Group 704" transform="translate(-85 -77.119)">
    <g id="DiviDeals__1_-removebg-preview" transform="translate(85 77.119)">
      <path id="Path_404" data-name="Path 404" d="M156.508-448.714A40.071,40.071,0,0,0,131.1-427.19c-3.545,7.428-4.9,14.941-2.786,15.7,1.857.76,2.026.422,2.954-5.065,3.63-22.284,27.434-36.043,48.452-28.024,13.421,5.149,21.862,15.447,23.719,28.953.507,3.63.929,4.474,2.2,4.474,2.026,0,2.11-2.786.338-9.707-3.292-12.662-14.519-24.057-27.349-27.771C173.137-450.234,162.079-450.318,156.508-448.714Z" transform="translate(-118.607 449.876)" fill="#1d1d29"/>
      <path id="Path_405" data-name="Path 405" d="M117-368.989v27.011h18.4c18.655,0,22.706-.506,26.167-3.208l2.026-1.519-2.532-3.8a23.055,23.055,0,0,1-3.123-6.078c-.76-3.039-1.857-3.545-2.954-1.435-2.11,3.883-5.656,5.065-15.363,5.065H130.5V-396H117Z" transform="translate(-117 441.477)" fill="#0081e9"/>
      <path id="Path_406" data-name="Path 406" d="M138-390.629v5.571h5.318c12.746,0,16.882,3.883,18.4,17.473.928,8.694,3.8,15.109,8.863,20.174,4.474,4.558,7.6,5.4,20.005,5.4h9.876V-353.3H192.24a24.434,24.434,0,0,1-4.043-.288,17.5,17.5,0,0,1-3.717-1.043,9.283,9.283,0,0,1-4.043-2.935c-3.208-3.714-4.452-8.412-4.452-14.321,0-7.428-5.487-17.135-12.071-21.356-3.292-2.11-4.3-2.279-14.687-2.617L138-396.2Z" transform="translate(-120.274 441.508)" fill="#1d1d29"/>
      <path id="Path_407" data-name="Path 407" d="M185.6-395.24c-3.63,1.1-7.6,3.461-7.6,4.474a5.125,5.125,0,0,0,1.351,2.448,27.849,27.849,0,0,1,3.208,6.162l1.941,4.643,1.857-2.532c2.87-3.883,6.415-4.98,15.7-4.98h8.019v43.049h14.35V-396l-18.317.084C195.979-395.916,186.779-395.578,185.6-395.24Z" transform="translate(-126.509 441.477)" fill="#0081e9"/>
    </g>
  </g>
</svg>
