<svg xmlns="http://www.w3.org/2000/svg" width="99.45800018310547" height="130.88099670410156" style=""><rect id="backgroundrect" width="100%" height="100%" x="0" y="0" fill="none" stroke="none"/>
  
<g class="currentLayer" style=""><title>Layer 1</title><g id="Group_718" data-name="Group 718" class="">
    <g id="DiviDeals__1_-removebg-preview">
      <path id="Path_404" data-name="Path 404" d="M38.43009815978985,3.2784092292786227 A40.071,40.071 0 0 0 13.022098159789948,24.80240922927851 c-3.545,7.428 -4.9,14.941 -2.786,15.7 c1.8570000000000002,0.7600000000000008 2.026,0.4220000000000003 2.954,-5.065 c3.63,-22.284 27.434,-36.043 48.452,-28.024 c13.421,5.149 21.862000000000002,15.447 23.719,28.953 c0.507,3.63 0.929,4.474 2.195,4.474 c2.026,0 2.11,-2.786 0.33800000000000047,-9.707 c-3.292,-12.662 -14.519,-24.057 -27.349,-27.771 C55.05909815979021,1.7584092292786409 44.00109815979022,1.6744092292783535 38.43009815978985,3.2784092292786227 z" fill="#fff"/>
      <path id="Path_405" data-name="Path 405" d="M0.5291004180908203,74.60439189529416 v27.011 h18.4 c18.655,0 22.706,-0.506 26.167,-3.208 l2.026,-1.5190000000000001 l-2.532,-3.8 a23.055,23.055 0 0 1 -3.123,-6.078 c-0.7600000000000008,-3.039 -1.8570000000000002,-3.545 -2.954,-1.435 c-2.11,3.883 -5.6560000000000015,5.065 -15.363,5.065 h-9.116 V47.59339189529419 H0.5291004180908203 z" fill="#0081e9"/>
      <path id="Path_406" data-name="Path 406" d="M18.255098342895508,52.995397754669284 v5.571 h5.318 c12.746,0 16.882,3.883 18.4,17.473 c0.928,8.694 3.8,15.109 8.863,20.174 c4.474,4.558 7.6,5.4 20.005,5.4 h9.876 V90.32439775466901 H72.49509834289529 a24.433,24.433 0 0 1 -4.043,-0.2880000000000003 a17.5,17.5 0 0 1 -3.717,-1.043 a9.283,9.283 0 0 1 -4.043,-2.935 c-3.208,-3.714 -4.452,-8.412 -4.452,-14.321 c0,-7.428 -5.487,-17.135 -12.071,-21.356 c-3.292,-2.11 -4.3,-2.279 -14.687,-2.617 L18.255098342895508,47.42439775466937 z" fill="#fff"/>
      <path id="Path_407" data-name="Path 407" d="M59.620097732543854,48.35339189529441 c-3.63,1.1 -7.6,3.461 -7.6,4.474 a5.125,5.125 0 0 0 1.351,2.448 a27.849,27.849 0 0 1 3.208,6.162 l1.941,4.643 l1.8570000000000002,-2.532 c2.87,-3.883 6.415,-4.98 15.7,-4.98 h8.019 v43.049 h14.35 V47.59339189529419 l-18.317,0.0840000000000001 C69.99909773254376,47.67739189529402 60.79909773254394,48.015391895294215 59.620097732543854,48.35339189529441 z" fill="#0081e9"/>
    </g>
    <text id="DIVIDEALS" fill="#fff" font-size="18" font-family="Poppins-Medium, Poppins" font-weight="500" letter-spacing="0.07em" y="126.99750566482544" x="0.9871082305908203"><tspan x="0.9871082305908203" y="126.99750566482544" id="svg_1">DIVIDEALS</tspan></text>
  </g><rect fill="#1e1e2d" stroke-dashoffset="" fill-rule="nonzero" id="svg_2" x="1" y="111" width="106" height="18" style="color: rgb(0, 0, 0);" class="" stroke="#1e1e2d" stroke-opacity="1" opacity="0.99" fill-opacity="1" stroke-width="1"/></g></svg>