<svg xmlns="http://www.w3.org/2000/svg" xmlns:xlink="http://www.w3.org/1999/xlink" width="143" height="143" viewBox="0 0 143 143">
  <defs>
    <filter id="Ellipse_3568" x="0" y="0" width="143" height="143" filterUnits="userSpaceOnUse">
      <feOffset input="SourceAlpha"/>
      <feGaussianBlur stdDeviation="3" result="blur"/>
      <feFlood flood-opacity="0.161"/>
      <feComposite operator="in" in2="blur"/>
      <feComposite in="SourceGraphic"/>
    </filter>
  </defs>
  <g id="Group_62683" data-name="Group 62683" transform="translate(3352 -3470)">
    <g transform="matrix(1, 0, 0, 1, -3352, 3470)" filter="url(#Ellipse_3568)">
      <circle id="Ellipse_3568-2" data-name="Ellipse 3568" cx="62.5" cy="62.5" r="62.5" transform="translate(9 9)" fill="#fff"/>
    </g>
    <g id="Group_62682" data-name="Group 62682" transform="matrix(0.966, -0.259, 0.259, 0.966, -4429.257, 3395.646)">
      <path id="Rectangle_19796" data-name="Rectangle 19796" d="M4,0H21.119a0,0,0,0,1,0,0V29.566a0,0,0,0,1,0,0H4a4,4,0,0,1-4-4V4A4,4,0,0,1,4,0Z" transform="translate(1057.511 441.081)" fill="#0081e9"/>
      <path id="Rectangle_19797" data-name="Rectangle 19797" d="M0,0H17.119a4,4,0,0,1,4,4V25.566a4,4,0,0,1-4,4H0a0,0,0,0,1,0,0V0A0,0,0,0,1,0,0Z" transform="translate(1082.853 441.081)" fill="#0081e9"/>
      <path id="Rectangle_19798" data-name="Rectangle 19798" d="M3,0H24.5a0,0,0,0,1,0,0V13.516a0,0,0,0,1,0,0H3a3,3,0,0,1-3-3V3A3,3,0,0,1,3,0Z" transform="translate(1028.297 446.746) rotate(-39)" fill="#0081e9"/>
      <path id="Rectangle_19799" data-name="Rectangle 19799" d="M3,0H24.5a0,0,0,0,1,0,0V13.516a0,0,0,0,1,0,0H3a3,3,0,0,1-3-3V3A3,3,0,0,1,3,0Z" transform="translate(1077.805 424.093) rotate(141)" fill="#0081e9"/>
      <g id="Path_85440" data-name="Path 85440" transform="translate(1030.065 440.198) rotate(-120)" fill="none" stroke-linecap="round" stroke-linejoin="round">
        <path d="M6.387,0C9.653,0,12.72,2.6,12.72,7.731S5.934,19.484,5.934,19.484,0,13.355,0,8.223,3.121,0,6.387,0Z" stroke="none"/>
        <path d="M 6.386893272399902 3.000001907348633 C 5.624223232269287 3.000001907348633 4.870823383331299 3.396711349487305 4.265453338623047 4.117062568664551 C 3.449413299560547 5.088091850280762 3.000002861022949 6.546252250671387 3.000002861022949 8.222931861877441 C 3.000002861022949 9.67683219909668 3.850462913513184 11.73310279846191 5.394703388214111 14.01297187805176 C 5.604759693145752 14.32308959960938 5.815861701965332 14.61988925933838 6.022263526916504 14.89960670471191 C 6.311463832855225 14.54342651367188 6.612499713897705 14.15784645080566 6.913773059844971 13.74995231628418 C 8.696943283081055 11.33574199676514 9.719642639160156 9.142071723937988 9.719642639160156 7.731422424316406 C 9.719642639160156 6.098782539367676 9.318293571472168 4.794702529907227 8.558982849121094 3.960171699523926 C 7.836923122406006 3.166582107543945 6.979243278503418 3.000001907348633 6.386893272399902 3.000001907348633 M 6.386893272399902 1.9073486328125e-06 C 9.652703285217285 1.9073486328125e-06 12.71964359283447 2.599431991577148 12.71964359283447 7.731422424316406 C 12.71964359283447 12.86341285705566 5.934163093566895 19.48422241210938 5.934163093566895 19.48422241210938 C 5.934163093566895 19.48422241210938 2.86102294921875e-06 13.3549222946167 2.86102294921875e-06 8.222931861877441 C 2.86102294921875e-06 3.0909423828125 3.12108325958252 1.9073486328125e-06 6.386893272399902 1.9073486328125e-06 Z" stroke="none" fill="#0081e9"/>
      </g>
      <g id="Path_85441" data-name="Path 85441" transform="translate(1054.102 405.761) rotate(45)" fill="none" stroke-linecap="round" stroke-linejoin="round">
        <path d="M6.59,0C9.856,0,12.72,2.767,12.72,7.9S5.934,19.651,5.934,19.651,0,13.522,0,8.39,3.324,0,6.59,0Z" stroke="none"/>
        <path d="M 6.590253353118896 3.000001907348633 C 5.838163375854492 3.000001907348633 5.002523422241211 3.454221725463867 4.35493278503418 4.215042114257812 C 3.481193542480469 5.241531372070312 3.000002861022949 6.724241256713867 3.000002861022949 8.390031814575195 C 3.000002861022949 9.843931198120117 3.850462913513184 11.90020179748535 5.394703388214111 14.18007183074951 C 5.604759693145752 14.49019050598145 5.815861701965332 14.78698921203613 6.022263526916504 15.06670665740967 C 6.311463832855225 14.71052551269531 6.612499713897705 14.3249454498291 6.913773059844971 13.91705131530762 C 8.696943283081055 11.50284194946289 9.719642639160156 9.309171676635742 9.719642639160156 7.898521423339844 C 9.719642639160156 6.224711418151855 9.317092895507812 4.825511932373047 8.586153030395508 3.958662033081055 C 8.057313919067383 3.331501007080078 7.367143154144287 3.000001907348633 6.590253353118896 3.000001907348633 M 6.590253353118896 1.9073486328125e-06 C 9.856062889099121 1.9073486328125e-06 12.71964359283447 2.766530990600586 12.71964359283447 7.898521423339844 C 12.71964359283447 13.0305118560791 5.934163093566895 19.65132141113281 5.934163093566895 19.65132141113281 C 5.934163093566895 19.65132141113281 2.86102294921875e-06 13.52202224731445 2.86102294921875e-06 8.390031814575195 C 2.86102294921875e-06 3.258041381835938 3.324442863464355 1.9073486328125e-06 6.590253353118896 1.9073486328125e-06 Z" stroke="none" fill="#0081e9"/>
      </g>
      <path id="Polygon_4" data-name="Polygon 4" d="M5.491,0,7.413,3.036l3.569.836L8.6,6.584l.284,3.553L5.491,8.777,2.1,10.137l.284-3.553L0,3.872l3.569-.836Z" transform="translate(1080.319 425.876)" fill="#0081e9"/>
      <path id="Polygon_5" data-name="Polygon 5" d="M4.224,0,5.7,2.277,8.448,2.9,6.616,4.938,6.834,7.6l-2.61-1.02L1.613,7.6l.218-2.665L0,2.9l2.745-.627Z" transform="translate(1094.68 408.98)" fill="#0081e9"/>
    </g>
  </g>
</svg>
