<svg xmlns="http://www.w3.org/2000/svg" width="33.917" height="31.592" viewBox="0 0 33.917 31.592">
  <g id="Group_926" data-name="Group 926" transform="translate(6578 1214)">
    <path id="Path_311" data-name="Path 311" d="M16.311-493.9a5.914,5.914,0,0,0-1.606.637c-.285.166-2.084,1.925-7.161,7C.018-478.766.463-479.257.456-478.341a1.739,1.739,0,0,0,.631,1.42,1.9,1.9,0,0,0,2.157.285c.252-.133,1.892-1.732,6.869-6.716,3.683-3.683,6.643-6.6,6.783-6.677a1.444,1.444,0,0,1,.518-.126,1.444,1.444,0,0,1,.518.126c.139.073,3.1,2.993,6.783,6.677,4.978,4.984,6.617,6.584,6.869,6.716a1.9,1.9,0,0,0,2.157-.285,1.741,1.741,0,0,0,.631-1.387c0-.9.06-.816-2.96-3.849L28.7-484.885v-2.993c0-1.984-.027-3.119-.073-3.352a1.872,1.872,0,0,0-1.885-1.513,1.91,1.91,0,0,0-1.772,1.122c-.139.279-.153.411-.173,1.553l-.027,1.254-2.13-2.117c-2.19-2.164-2.442-2.376-3.3-2.721A5.731,5.731,0,0,0,16.311-493.9Z" transform="translate(-6578.453 -719.996)" fill="#143474" opacity="0.6"/>
    <path id="Path_312" data-name="Path 312" d="M82.946-379.822c-.2.08-11.714,11.561-11.853,11.82A30.827,30.827,0,0,0,71-363.409c0,2.927.027,4.533.073,4.765a3.75,3.75,0,0,0,1.759,2.356c.79.418.8.418,4.188.418h3.073V-364.5h6.371v8.628h3.073c3.385,0,3.4,0,4.188-.418a3.75,3.75,0,0,0,1.759-2.356c.046-.232.073-1.838.073-4.765A30.827,30.827,0,0,0,95.463-368c-.153-.279-11.661-11.747-11.873-11.827A.864.864,0,0,0,82.946-379.822Z" transform="translate(-6644.318 -826.538)" fill="#143474"/>
  </g>
</svg>
