<svg id="athletics" xmlns="http://www.w3.org/2000/svg" width="27.511" height="31.592" viewBox="0 0 27.511 31.592">
  <path id="Path_83300" data-name="Path 83300" d="M246.485-511.8a4.589,4.589,0,0,0-1.747.883,4.051,4.051,0,0,0-.3,5.926,4.074,4.074,0,0,0,4.778.8,4.145,4.145,0,0,0,1.759-1.778,3.661,3.661,0,0,0,.444-1.852,3.646,3.646,0,0,0-.426-1.821A4.083,4.083,0,0,0,246.485-511.8Z" transform="translate(-230.322 511.896)" fill="#0969d8" opacity="0.5"/>
  <path id="Path_83301" data-name="Path 83301" d="M58.6-394.891c-.951.259-1.8.747-4.068,2.339a1.382,1.382,0,0,1-1.062.309c-.093-.018-.778-.228-1.525-.457-4.944-1.537-4.593-1.451-5.827-1.4a9.452,9.452,0,0,0-1.426.167c-3.018.66-7.068,3.2-7.951,5a1.163,1.163,0,0,0,.432,1.66c.543.259,1.284.173,3.1-.37a14.541,14.541,0,0,1,4.093-.858c.667,0,.636-.056.315.691-.994,2.284-5.42,8.42-10.642,14.741-.827,1-.92,1.16-.877,1.531a.97.97,0,0,0,.481.741c.3.21.741.161,1.784-.191a21.575,21.575,0,0,0,8.889-6.136l.772-.821h.4a11.636,11.636,0,0,1,2.068.216c.907.241.988.37.938,1.543a17.092,17.092,0,0,1-.235,1.944,12.551,12.551,0,0,0-.2,1.821,1.668,1.668,0,0,0,.179,1.049,1.278,1.278,0,0,0,2.08.4c1.284-.957,3.111-4.21,3.617-6.451a4.592,4.592,0,0,0,.136-1.728c-.235-1.414-1.716-2.6-4.506-3.611a1.938,1.938,0,0,1-.636-.3c.012-.031.173-.3.358-.586a9.771,9.771,0,0,0,1.265-3.056c.08-.309-.08-.309,1.358-.012a10.906,10.906,0,0,0,2.667.3,1.843,1.843,0,0,0,.957-.222,13.647,13.647,0,0,0,3.87-4.136c1.284-1.938,1.568-3.049.944-3.759A1.661,1.661,0,0,0,58.6-394.891Z" transform="translate(-33.16 402.2)" fill="#0969d8"/>
</svg>
