<svg xmlns="http://www.w3.org/2000/svg" width="13.68" height="15.393" viewBox="0 0 13.68 15.393">
  <path id="Path_83297" data-name="Path 83297" d="M9.751,15.393H8.458V12.528H7.811v2.865H6.517V12.528H5.87v2.865H4.577V12.528H3.93v2.865H2.637V12.528H1.99v2.865H1.466A1.457,1.457,0,0,1,0,13.949V6.132a.363.363,0,0,1,.366-.36H13.314a.363.363,0,0,1,.366.36v7.817a1.461,1.461,0,0,1-1.344,1.439v-2.86h-.647v2.864H10.395V12.528H9.751v2.865ZM13.314,4.81H.366A.364.364,0,0,1,0,4.448V3.366A1.456,1.456,0,0,1,1.466,1.925H2.931V.36A.363.363,0,0,1,3.3,0H4.518a.364.364,0,0,1,.368.36V1.925H8.794V.36A.364.364,0,0,1,9.161,0h1.221a.363.363,0,0,1,.366.36V1.925h1.464a1.456,1.456,0,0,1,1.467,1.442V4.448A.364.364,0,0,1,13.314,4.81Z" fill="#09e6a2" opacity="0.5"/>
</svg>
