<svg xmlns="http://www.w3.org/2000/svg" width="27.794" height="27.847" viewBox="0 0 27.794 27.847">
  <g id="Group_925" data-name="Group 925" transform="translate(6422 884)">
    <path id="Path_83305" data-name="Path 83305" d="M3.314-511.891a2.226,2.226,0,0,0-.223,1.006.989.989,0,0,0,.337.326,1.428,1.428,0,0,1,.56,1.92,1.375,1.375,0,0,1-1.088.767,1.125,1.125,0,0,0-.419.147,1.5,1.5,0,0,0-.2.876c.016.185.049.228.332.413a1.482,1.482,0,0,1,.555,1.936,1.7,1.7,0,0,1-1.235.767c-.261,0-.364.158-.473.691-.076.364-.016.511.25.669a1.419,1.419,0,0,1,.778,1.311,1.418,1.418,0,0,1-1.316,1.436c-.315.049-.424.174-.511.6s-.044.62.158.723c.065.033,5.085,1.055,11.155,2.273L23-493.823l.147-.1a1.163,1.163,0,0,0,.267-.887c-.016-.228-.033-.256-.332-.451a1.433,1.433,0,0,1-.218-2.328,1.366,1.366,0,0,1,.794-.348c.37-.054.457-.152.555-.609.1-.479.06-.609-.228-.778a1.422,1.422,0,0,1-.778-1.294,1.388,1.388,0,0,1,1.24-1.43.923.923,0,0,0,.419-.158,1.3,1.3,0,0,0,.169-.473c.092-.435.049-.6-.212-.745a1.466,1.466,0,0,1-.4-2.306,1.468,1.468,0,0,1,.881-.44,1,1,0,0,0,.4-.136,2.177,2.177,0,0,0,.228-.881.506.506,0,0,0-.071-.256c-.049-.076-2.529-.587-11.177-2.323C8.568-511,3.532-512,3.488-512A.333.333,0,0,0,3.314-511.891Zm4.694,3.367a.809.809,0,0,1,.267.326l.1.223-.772,3.851c-.43,2.116-.816,3.927-.859,4.025a.7.7,0,0,1-.979.25,1.081,1.081,0,0,1-.256-.315l-.1-.207.772-3.867c.424-2.127.8-3.938.848-4.025A.715.715,0,0,1,8.008-508.525Zm12.76,2.578a.677.677,0,0,1,.261.348c.076.218.06.337-.7,4.079-.43,2.116-.81,3.916-.854,3.992a.7.7,0,0,1-1.115.125c-.245-.288-.256-.2.571-4.346.49-2.426.816-3.938.87-4.03A.718.718,0,0,1,20.768-505.947Z" transform="translate(-6422.618 -372)" fill="#f96d09"/>
    <path id="Path_83306" data-name="Path 83306" d="M44.687-258.793a1.413,1.413,0,0,1-1.169,1.039c-.43.076-.587.223-.566.517.016.2.049.239.364.462A1.6,1.6,0,0,1,44-255.764a3.473,3.473,0,0,1-.315,1.474,1.482,1.482,0,0,1-1.229.674c-.136,0-4.395-.832-9.458-1.849s-9.214-1.849-9.219-1.849-.011.152-.016.343a1.391,1.391,0,0,1-.8,1.246,1.363,1.363,0,0,1-.7.125c-.577.011-.62.044-.832.571-.147.359-.147.381-.06.517a1.132,1.132,0,0,0,.348.266c.81.408,20.244,9.333,20.32,9.333.19,0,.321-.125.473-.468.212-.468.207-.577-.082-.881a1.232,1.232,0,0,1-.441-1.044,1.26,1.26,0,0,1,.419-1.033,1.369,1.369,0,0,1,1.093-.4c.364.005.441-.011.555-.109a1.682,1.682,0,0,0,.37-.892,1.5,1.5,0,0,0-.25-.332,1.439,1.439,0,0,1,.027-2.1,1.345,1.345,0,0,1,1.05-.381,2.509,2.509,0,0,0,.522-.049,2.25,2.25,0,0,0,.43-.887.822.822,0,0,0-.228-.353,1.443,1.443,0,0,1,.3-2.366,1.388,1.388,0,0,1,.761-.152c.56-.011.577-.022.827-.6.228-.549.267-.517-1.517-1.343-.838-.381-1.539-.7-1.566-.7S44.714-258.908,44.687-258.793Z" transform="translate(-6442.186 -611.24)" fill="#f96d09" opacity="0.5"/>
  </g>
</svg>
