<svg xmlns="http://www.w3.org/2000/svg" xmlns:xlink="http://www.w3.org/1999/xlink" width="31" height="31" viewBox="0 0 31 31">
  <defs>
    <clipPath id="clip-path">
      <rect id="Rectangle_1519" data-name="Rectangle 1519" width="31" height="31" transform="translate(0.284)" fill="#fff" stroke="#707070" stroke-width="1"/>
    </clipPath>
  </defs>
  <g id="Mask_Group_25" data-name="Mask Group 25" transform="translate(-0.284)" clip-path="url(#clip-path)">
    <g id="park-tickets-couple" transform="translate(1.371 1.205)">
      <path id="Path_83809" data-name="Path 83809" d="M3.388-511.888a2.288,2.288,0,0,0-.229,1.034,1.018,1.018,0,0,0,.346.335,1.468,1.468,0,0,1,.576,1.973,1.413,1.413,0,0,1-1.118.788,1.156,1.156,0,0,0-.43.151,1.542,1.542,0,0,0-.207.9c.017.19.05.234.341.425a1.522,1.522,0,0,1,.57,1.99,1.742,1.742,0,0,1-1.269.788c-.268,0-.374.162-.486.71-.078.375-.017.525.257.688a1.458,1.458,0,0,1,.8,1.347,1.456,1.456,0,0,1-1.352,1.475c-.324.051-.436.179-.525.615s-.045.637.162.743c.067.033,5.225,1.084,11.462,2.336l11.333,2.269.151-.106a1.2,1.2,0,0,0,.274-.911c-.017-.234-.034-.263-.341-.464a1.472,1.472,0,0,1-.224-2.392,1.4,1.4,0,0,1,.816-.358c.38-.056.469-.157.57-.626.1-.492.061-.626-.235-.8a1.461,1.461,0,0,1-.8-1.33,1.426,1.426,0,0,1,1.274-1.47.949.949,0,0,0,.43-.162,1.34,1.34,0,0,0,.173-.486c.095-.447.05-.615-.218-.766a1.506,1.506,0,0,1-.414-2.37,1.508,1.508,0,0,1,.905-.453,1.031,1.031,0,0,0,.408-.14,2.237,2.237,0,0,0,.235-.905.52.52,0,0,0-.073-.263c-.05-.078-2.6-.6-11.484-2.386C8.787-510.972,3.612-512,3.567-512A.343.343,0,0,0,3.388-511.888Zm4.823,3.459a.832.832,0,0,1,.274.335l.106.229L7.8-503.908c-.441,2.174-.838,4.035-.883,4.135a.721.721,0,0,1-1.006.257,1.112,1.112,0,0,1-.263-.324l-.1-.212.794-3.973c.436-2.185.827-4.046.872-4.135A.735.735,0,0,1,8.211-508.429Zm13.11,2.649a.7.7,0,0,1,.268.358c.078.224.061.346-.715,4.191-.441,2.174-.833,4.024-.877,4.1a.719.719,0,0,1-1.146.129c-.251-.3-.263-.207.587-4.465.5-2.492.838-4.046.894-4.141A.738.738,0,0,1,21.322-505.78Z" transform="translate(-0.618 512)" fill="#f96d09"/>
      <path id="Path_83810" data-name="Path 83810" d="M45.329-258.788a1.452,1.452,0,0,1-1.2,1.067c-.441.078-.6.229-.581.531.017.2.05.246.374.475a1.644,1.644,0,0,1,.7,1.039,3.568,3.568,0,0,1-.324,1.514,1.522,1.522,0,0,1-1.263.693c-.14,0-4.515-.855-9.718-1.9s-9.467-1.9-9.472-1.9-.011.157-.017.352a1.429,1.429,0,0,1-.827,1.28,1.4,1.4,0,0,1-.715.129c-.592.011-.637.045-.855.587-.151.369-.151.391-.061.531a1.162,1.162,0,0,0,.358.274c.833.419,20.8,9.59,20.878,9.59.2,0,.33-.129.486-.481.218-.481.212-.592-.084-.905a1.266,1.266,0,0,1-.453-1.073,1.3,1.3,0,0,1,.43-1.062,1.406,1.406,0,0,1,1.123-.408c.374.006.453-.011.57-.112a1.728,1.728,0,0,0,.38-.917,1.543,1.543,0,0,0-.257-.341,1.478,1.478,0,0,1,.028-2.163,1.382,1.382,0,0,1,1.079-.391,2.575,2.575,0,0,0,.536-.05,2.312,2.312,0,0,0,.441-.911.845.845,0,0,0-.235-.363,1.483,1.483,0,0,1,.313-2.431,1.426,1.426,0,0,1,.782-.157c.576-.011.592-.022.849-.615.235-.565.274-.531-1.559-1.38-.861-.391-1.582-.715-1.609-.715S45.357-258.905,45.329-258.788Z" transform="translate(-20.154 273.139)" fill="#f96d09" opacity="0.5"/>
    </g>
  </g>
</svg>
