<svg xmlns="http://www.w3.org/2000/svg" width="9.972" height="9.915" viewBox="0 0 9.972 9.915">
  <g id="Group_61524" data-name="Group 61524" transform="translate(5430.084 -471.132)">
    <path id="Path_83916" data-name="Path 83916" d="M153.421-362.47c-2.237.168-3.648.764-3.9,1.654-.228.778.363,1.449,1.631,1.859a10.621,10.621,0,0,0,3.285.415c2.241,0,3.8-.382,4.552-1.109a1.057,1.057,0,0,0,.363-.55,1.1,1.1,0,0,0-.4-1.216,5.379,5.379,0,0,0-2.977-1A18.707,18.707,0,0,0,153.421-362.47Z" transform="translate(-5579.531 833.624)" fill="#787878"/>
    <path id="Path_83917" data-name="Path 83917" d="M149-267.683a1.306,1.306,0,0,0,.433,1.1c.746.727,2.32,1.109,4.552,1.109s3.8-.382,4.552-1.109a1.306,1.306,0,0,0,.433-1.1V-268l-.405.205a9.33,9.33,0,0,1-3,.778,21.162,21.162,0,0,1-3.35-.023,8.768,8.768,0,0,1-2.856-.778L149-268Z" transform="translate(-5579.084 743.535)" fill="#bbb"/>
    <path id="Path_83918" data-name="Path 83918" d="M149-203.683a1.306,1.306,0,0,0,.433,1.1c.746.727,2.32,1.109,4.552,1.109s3.8-.382,4.552-1.109a1.306,1.306,0,0,0,.433-1.1V-204l-.405.205a9.328,9.328,0,0,1-3,.778,21.164,21.164,0,0,1-3.35-.023,8.768,8.768,0,0,1-2.856-.778L149-204Z" transform="translate(-5579.084 682.517)" fill="#bbb"/>
  </g>
</svg>
