<svg xmlns="http://www.w3.org/2000/svg" xmlns:xlink="http://www.w3.org/1999/xlink" width="31" height="31" viewBox="0 0 31 31">
  <defs>
    <clipPath id="clip-path">
      <rect id="Rectangle_1520" data-name="Rectangle 1520" width="31" height="31" transform="translate(197.912 253)" fill="#fff" stroke="#707070" stroke-width="1"/>
    </clipPath>
  </defs>
  <g id="Mask_Group_26" data-name="Mask Group 26" transform="translate(-197.912 -253)" clip-path="url(#clip-path)">
    <g id="noun-cat-dining-646529" transform="translate(198.559 253.418)">
      <path id="Path_83811" data-name="Path 83811" d="M84.906,0a14.909,14.909,0,0,1,7.177,27.966l-.027-.564v-.04c-.027-.685-.04-1.344-.054-1.949-.054-1.922-.121-4.032-.04-5.954.04-.9.5-1.156,1.21-1.774a2.456,2.456,0,0,0,1.062-1.895,10.977,10.977,0,0,0-.081-2.741c-.081-.914-.148-1.841-.228-2.741-.148-1.787-.376-3.723-.443-5.51h-.43c.027,2.943-.027,5.9,0,8.843,0,.444.04.887-.43.887s-.43-.4-.43-.833c.014-2.93-.054-5.98,0-8.883l-.47-.027v9.031c.014.564-.027.753-.645.7-.3-.417-.215-.376-.215-.994V4.8L90.4,4.785v7.808c0,.591.255,2.325-.645,1.881-.3-.148-.2-.578-.2-1.008V4.785l-.47.014c-.094,1.868-.941,9.475-.766,10.939a3.054,3.054,0,0,0,.309,1.129,10.357,10.357,0,0,0,1.505,1.465c.726.551.484,2.916.484,3.991-.014,1.478-.04,3.319-.107,5.3l-.04,1.1a14.989,14.989,0,0,1-9.3.6l-.054-.927v-.04c-.107-2.432-.134-4.65-.148-6.155,0-1.089-.027-2.231.014-3.319.054-1.492,2.083-1.115,3.333-3.306a4.806,4.806,0,0,0,.632-2.688,13.161,13.161,0,0,0-2.056-6.222A6.287,6.287,0,0,0,81.2,4.986a2.2,2.2,0,0,0-1.411-.148A3.058,3.058,0,0,0,77.878,6.29a12.466,12.466,0,0,0-1.223,2.1c-1.035,2.325-1.908,5.537-.107,7.768a4.926,4.926,0,0,0,1.908,1.411,2.845,2.845,0,0,1,.914.712,2.9,2.9,0,0,1,.188,1.545c.054,2.11,0,5.08-.121,8.023l-.014.107V28.1l-.027.6v.04A14.9,14.9,0,0,1,84.907,0Z" transform="translate(-70.003)" fill="#e9b100" fill-rule="evenodd"/>
      <g id="Group_2156" data-name="Group 2156" transform="translate(0.003 29.946)">
        <path id="Path_83812" data-name="Path 83812" d="M.1-.89.1-.888H.089a.028.028,0,0,1-.02-.007A.024.024,0,0,1,.063-.912.026.026,0,0,1,.069-.931a.029.029,0,0,1,.02-.007H.1l.007,0v.01L.1-.927l-.007,0a.015.015,0,0,0-.011,0,.02.02,0,0,0,0,.012.018.018,0,0,0,0,.012A.014.014,0,0,0,.09-.9H.1L.1-.9Z" transform="translate(-0.063 0.938)"/>
      </g>
      <g id="Group_2157" data-name="Group 2157" transform="translate(0.055 29.959)">
        <path id="Path_83813" data-name="Path 83813" d="M.137-.692H.13a.008.008,0,0,0-.007,0,.012.012,0,0,0,0,.008v.017H.109V-.7H.121V-.7l0,0,.007,0h0Z" transform="translate(-0.109 0.703)"/>
      </g>
      <g id="Group_2158" data-name="Group 2158" transform="translate(0.085 29.959)">
        <path id="Path_83814" data-name="Path 83814" d="M.087-.684v0H.059a.009.009,0,0,0,0,.007l.007,0H.077l.008,0v.009l-.008,0H.068a.023.023,0,0,1-.016,0A.017.017,0,0,1,.047-.684.017.017,0,0,1,.053-.7a.022.022,0,0,1,.015,0,.018.018,0,0,1,.013,0,.018.018,0,0,1,.006.014Zm-.012,0a.008.008,0,0,0,0,0,.006.006,0,0,0,0,0l-.006,0a.009.009,0,0,0,0,0Z" transform="translate(-0.047 0.703)"/>
      </g>
      <g id="Group_2159" data-name="Group 2159" transform="translate(0.13 29.959)">
        <path id="Path_83815" data-name="Path 83815" d="M.067-.682l-.006,0a0,0,0,0,0,0,0,.008.008,0,0,0,0,0h0a.006.006,0,0,0,0,0,.008.008,0,0,0,0-.006v0Zm.017,0v.021H.073V-.672l-.006,0-.007,0a.015.015,0,0,1-.01,0,.011.011,0,0,1,0-.008.01.01,0,0,1,0-.009.028.028,0,0,1,.015,0H.073a0,0,0,0,0,0,0L.063-.7H.057l-.007,0V-.7H.066A.02.02,0,0,1,.08-.7a.016.016,0,0,1,0,.012Z" transform="translate(-0.047 0.703)"/>
      </g>
      <g id="Group_2160" data-name="Group 2160" transform="translate(0.174 29.949)">
        <path id="Path_83816" data-name="Path 83816" d="M.033-.891V-.88H.046v.008H.033v.016s0,0,0,0H.045v.008H.034a.016.016,0,0,1-.01,0,.016.016,0,0,1,0-.01V-.871H.016V-.88H.021V-.891Z" transform="translate(-0.016 0.891)"/>
      </g>
      <g id="Group_2161" data-name="Group 2161" transform="translate(0.208 29.959)">
        <path id="Path_83817" data-name="Path 83817" d="M.087-.684v0H.059a.009.009,0,0,0,0,.007l.007,0H.077l.008,0v.009l-.008,0H.068a.023.023,0,0,1-.016,0A.017.017,0,0,1,.047-.684.017.017,0,0,1,.053-.7a.022.022,0,0,1,.015,0,.018.018,0,0,1,.013,0,.018.018,0,0,1,.006.014Zm-.012,0a.008.008,0,0,0,0,0,.006.006,0,0,0,0,0l-.006,0a.009.009,0,0,0,0,0Z" transform="translate(-0.047 0.703)"/>
      </g>
      <g id="Group_2162" data-name="Group 2162" transform="translate(0.254 29.944)">
        <path id="Path_83818" data-name="Path 83818" d="M.09-.949v-.02H.1v.052H.09v0l-.006,0H.077a.013.013,0,0,1-.011,0,.022.022,0,0,1,0-.014.02.02,0,0,1,0-.013A.013.013,0,0,1,.077-.955l.007,0ZM.082-.925a.006.006,0,0,0,0,0,.013.013,0,0,0,0-.008.01.01,0,0,0,0-.007.006.006,0,0,0,0,0,.008.008,0,0,0-.007,0,.012.012,0,0,0,0,.007.016.016,0,0,0,0,.008A.009.009,0,0,0,.082-.925Z" transform="translate(-0.062 0.969)"/>
      </g>
      <g id="Group_2163" data-name="Group 2163" transform="translate(0.328 29.944)">
        <path id="Path_83819" data-name="Path 83819" d="M.129-.925a.007.007,0,0,0,.006,0,.013.013,0,0,0,0-.008.01.01,0,0,0,0-.007.006.006,0,0,0-.006,0,.007.007,0,0,0-.006,0,.012.012,0,0,0,0,.007.016.016,0,0,0,0,.008ZM.121-.949l0,0,.007,0a.013.013,0,0,1,.011.006.021.021,0,0,1,0,.013.024.024,0,0,1,0,.014.014.014,0,0,1-.011,0l-.007,0,0,0v0H.109V-.969H.121Z" transform="translate(-0.109 0.969)"/>
      </g>
      <g id="Group_2164" data-name="Group 2164" transform="translate(0.371 29.959)">
        <path id="Path_83820" data-name="Path 83820" d="M.016-.688H.027l.01.025L.046-.688H.057l-.015.04a.016.016,0,0,1-.006.008l-.008,0H.021V-.644H.029l0,0h0Z" transform="translate(-0.016 0.688)"/>
      </g>
      <g id="Group_2165" data-name="Group 2165" transform="translate(0.434 29.947)">
        <path id="Path_83821" data-name="Path 83821" d="M-.068-.922h.013v.044a.017.017,0,0,1,0,.013.02.02,0,0,1-.015,0h0V-.869h0a.007.007,0,0,0,.006,0,.012.012,0,0,0,0-.007Z" transform="translate(0.078 0.922)"/>
      </g>
      <g id="Group_2166" data-name="Group 2166" transform="translate(0.465 29.959)">
        <path id="Path_83822" data-name="Path 83822" d="M.087-.684v0H.059a.009.009,0,0,0,0,.007l.007,0H.077l.008,0v.009l-.008,0H.068a.023.023,0,0,1-.016,0A.017.017,0,0,1,.047-.684.017.017,0,0,1,.053-.7a.022.022,0,0,1,.015,0,.018.018,0,0,1,.013,0,.018.018,0,0,1,.006.014Zm-.012,0a.008.008,0,0,0,0,0,.006.006,0,0,0,0,0l-.006,0a.009.009,0,0,0,0,0Z" transform="translate(-0.047 0.703)"/>
      </g>
      <g id="Group_2167" data-name="Group 2167" transform="translate(0.514 29.959)">
        <path id="Path_83823" data-name="Path 83823" d="M.146-.688v.022H.134V-.689a.006.006,0,0,0,0,0l0,0h0a.007.007,0,0,0-.006,0,.012.012,0,0,0,0,.007v.018H.109V-.7H.121v0l0,0,.007,0a.012.012,0,0,1,.009,0,.016.016,0,0,1,0,.011Z" transform="translate(-0.109 0.703)"/>
      </g>
      <g id="Group_2168" data-name="Group 2168" transform="translate(0.562 29.944)">
        <path id="Path_83824" data-name="Path 83824" d="M.109-.954H.121v.037H.109Zm0-.015H.121v.01H.109Z" transform="translate(-0.109 0.969)"/>
      </g>
      <g id="Group_2169" data-name="Group 2169" transform="translate(0.582 29.959)">
        <path id="Path_83825" data-name="Path 83825" d="M.087-.684v0H.059a.009.009,0,0,0,0,.007l.007,0H.077l.008,0v.009l-.008,0H.068a.023.023,0,0,1-.016,0A.017.017,0,0,1,.047-.684.017.017,0,0,1,.053-.7a.022.022,0,0,1,.015,0,.018.018,0,0,1,.013,0,.018.018,0,0,1,.006.014Zm-.012,0a.008.008,0,0,0,0,0,.006.006,0,0,0,0,0l-.006,0a.009.009,0,0,0,0,0Z" transform="translate(-0.047 0.703)"/>
      </g>
      <g id="Group_2170" data-name="Group 2170" transform="translate(0.648 29.947)">
        <path id="Path_83826" data-name="Path 83826" d="M0-.922H.046v.009H.029v.04H.017v-.04H0Z" transform="translate(0 0.922)"/>
      </g>
      <g id="Group_2171" data-name="Group 2171" transform="translate(0.696 29.959)">
        <path id="Path_83827" data-name="Path 83827" d="M.068-.695a.008.008,0,0,0-.007,0,.012.012,0,0,0,0,.007.016.016,0,0,0,0,.008.009.009,0,0,0,.007,0,.007.007,0,0,0,.006,0,.019.019,0,0,0,0-.008.014.014,0,0,0,0-.007A.006.006,0,0,0,.068-.695Zm0-.008a.019.019,0,0,1,.014,0,.018.018,0,0,1,.006.014A.018.018,0,0,1,.082-.67a.019.019,0,0,1-.014,0,.023.023,0,0,1-.016,0,.019.019,0,0,1,0-.014.019.019,0,0,1,0-.014A.023.023,0,0,1,.068-.7Z" transform="translate(-0.047 0.703)"/>
      </g>
      <g id="Group_2172" data-name="Group 2172" transform="translate(0.746 29.959)">
        <path id="Path_83828" data-name="Path 83828" d="M.143-.7l0,0,.007,0a.012.012,0,0,1,.01,0,.016.016,0,0,1,0,.011v.022H.157V-.685h0v0a.008.008,0,0,0,0,0,0,0,0,0,0,0,0,.005.005,0,0,0,0,0,.016.016,0,0,0,0,.007v.018H.133V-.685a.026.026,0,0,0,0-.007,0,0,0,0,0,0,0,.005.005,0,0,0,0,0,.012.012,0,0,0,0,.007v.018H.109V-.7H.121v0l0,0,.006,0,.007,0,0,0Z" transform="translate(-0.109 0.703)"/>
      </g>
      <g id="Group_2173" data-name="Group 2173" transform="translate(0.816 29.944)">
        <path id="Path_83829" data-name="Path 83829" d="M.129-.925a.007.007,0,0,0,.006,0,.013.013,0,0,0,0-.008.01.01,0,0,0,0-.007.006.006,0,0,0-.006,0,.007.007,0,0,0-.006,0,.012.012,0,0,0,0,.007.016.016,0,0,0,0,.008ZM.121-.949l0,0,.007,0a.013.013,0,0,1,.011.006.021.021,0,0,1,0,.013.024.024,0,0,1,0,.014.014.014,0,0,1-.011,0l-.007,0,0,0v0H.109V-.969H.121Z" transform="translate(-0.109 0.969)"/>
      </g>
      <g id="Group_2174" data-name="Group 2174" transform="translate(0.861 29.959)">
        <path id="Path_83830" data-name="Path 83830" d="M.068-.695a.008.008,0,0,0-.007,0,.012.012,0,0,0,0,.007.016.016,0,0,0,0,.008.009.009,0,0,0,.007,0,.007.007,0,0,0,.006,0,.019.019,0,0,0,0-.008.014.014,0,0,0,0-.007A.006.006,0,0,0,.068-.695Zm0-.008a.019.019,0,0,1,.014,0,.018.018,0,0,1,.006.014A.018.018,0,0,1,.082-.67a.019.019,0,0,1-.014,0,.023.023,0,0,1-.016,0,.019.019,0,0,1,0-.014.019.019,0,0,1,0-.014A.023.023,0,0,1,.068-.7Z" transform="translate(-0.047 0.703)"/>
      </g>
      <g id="Group_2175" data-name="Group 2175" transform="translate(0.907 29.959)">
        <path id="Path_83831" data-name="Path 83831" d="M.08-.7v.01l0,0h0a.012.012,0,0,0-.008,0,.01.01,0,0,0,0,.007.013.013,0,0,0,0,.008.013.013,0,0,0,.008,0h0l0,0v.01H.068a.023.023,0,0,1-.016,0A.017.017,0,0,1,.047-.684.017.017,0,0,1,.053-.7a.023.023,0,0,1,.016,0H.08Z" transform="translate(-0.047 0.703)"/>
      </g>
      <g id="Group_2176" data-name="Group 2176" transform="translate(0.002 30.012)">
        <path id="Path_83832" data-name="Path 83832" d="M.06-.969V-.96H.05a0,0,0,0,0,0,0v0h.01v.008H.049v.028H.037V-.945H.031V-.954H.037v0a.011.011,0,0,1,0-.009.014.014,0,0,1,.01,0Z" transform="translate(-0.031 0.969)"/>
      </g>
      <g id="Group_2177" data-name="Group 2177" transform="translate(0.035 30.026)">
        <path id="Path_83833" data-name="Path 83833" d="M.137-.692H.13a.008.008,0,0,0-.007,0,.012.012,0,0,0,0,.008v.017H.109V-.7H.121V-.7l0,0,.007,0h0Z" transform="translate(-0.109 0.703)"/>
      </g>
      <g id="Group_2178" data-name="Group 2178" transform="translate(0.065 30.026)">
        <path id="Path_83834" data-name="Path 83834" d="M.068-.695a.008.008,0,0,0-.007,0,.012.012,0,0,0,0,.007.016.016,0,0,0,0,.008.009.009,0,0,0,.007,0,.007.007,0,0,0,.006,0,.019.019,0,0,0,0-.008.014.014,0,0,0,0-.007A.006.006,0,0,0,.068-.695Zm0-.008a.019.019,0,0,1,.014,0,.018.018,0,0,1,.006.014A.018.018,0,0,1,.082-.67a.019.019,0,0,1-.014,0,.023.023,0,0,1-.016,0,.019.019,0,0,1,0-.014.019.019,0,0,1,0-.014A.023.023,0,0,1,.068-.7Z" transform="translate(-0.047 0.703)"/>
      </g>
      <g id="Group_2179" data-name="Group 2179" transform="translate(0.114 30.026)">
        <path id="Path_83835" data-name="Path 83835" d="M.143-.7l0,0,.007,0a.012.012,0,0,1,.01,0,.016.016,0,0,1,0,.011v.022H.157V-.685h0v0a.008.008,0,0,0,0,0,0,0,0,0,0,0,0,.005.005,0,0,0,0,0,.016.016,0,0,0,0,.007v.018H.133V-.685a.026.026,0,0,0,0-.007,0,0,0,0,0,0,0,.005.005,0,0,0,0,0,.012.012,0,0,0,0,.007v.018H.109V-.7H.121v0l0,0,.006,0,.007,0,0,0Z" transform="translate(-0.109 0.703)"/>
      </g>
      <g id="Group_2180" data-name="Group 2180" transform="translate(0.203 30.016)">
        <path id="Path_83836" data-name="Path 83836" d="M.033-.891V-.88H.046v.008H.033v.016s0,0,0,0H.045v.008H.034a.016.016,0,0,1-.01,0,.016.016,0,0,1,0-.01V-.871H.016V-.88H.021V-.891Z" transform="translate(-0.016 0.891)"/>
      </g>
      <g id="Group_2181" data-name="Group 2181" transform="translate(0.24 30.012)">
        <path id="Path_83837" data-name="Path 83837" d="M.146-.94v.022H.134V-.94a.006.006,0,0,0,0,0l0,0h0a.007.007,0,0,0-.006,0,.012.012,0,0,0,0,.007v.018H.109V-.969H.121v.02l0,0,.007,0a.012.012,0,0,1,.009,0,.016.016,0,0,1,0,.011Z" transform="translate(-0.109 0.969)"/>
      </g>
      <g id="Group_2182" data-name="Group 2182" transform="translate(0.284 30.026)">
        <path id="Path_83838" data-name="Path 83838" d="M.087-.684v0H.059a.009.009,0,0,0,0,.007l.007,0H.077l.008,0v.009l-.008,0H.068a.023.023,0,0,1-.016,0A.017.017,0,0,1,.047-.684.017.017,0,0,1,.053-.7a.022.022,0,0,1,.015,0,.018.018,0,0,1,.013,0,.018.018,0,0,1,.006.014Zm-.012,0a.008.008,0,0,0,0,0,.006.006,0,0,0,0,0l-.006,0a.009.009,0,0,0,0,0Z" transform="translate(-0.047 0.703)"/>
      </g>
      <g id="Group_2183" data-name="Group 2183" transform="translate(0.356 30.014)">
        <path id="Path_83839" data-name="Path 83839" d="M.109-.922H.124l.018.033V-.922H.153v.049H.139L.122-.907v.034H.109Z" transform="translate(-0.109 0.922)"/>
      </g>
      <g id="Group_2184" data-name="Group 2184" transform="translate(0.409 30.026)">
        <path id="Path_83840" data-name="Path 83840" d="M.068-.695a.008.008,0,0,0-.007,0,.012.012,0,0,0,0,.007.016.016,0,0,0,0,.008.009.009,0,0,0,.007,0,.007.007,0,0,0,.006,0,.019.019,0,0,0,0-.008.014.014,0,0,0,0-.007A.006.006,0,0,0,.068-.695Zm0-.008a.019.019,0,0,1,.014,0,.018.018,0,0,1,.006.014A.018.018,0,0,1,.082-.67a.019.019,0,0,1-.014,0,.023.023,0,0,1-.016,0,.019.019,0,0,1,0-.014.019.019,0,0,1,0-.014A.023.023,0,0,1,.068-.7Z" transform="translate(-0.047 0.703)"/>
      </g>
      <g id="Group_2185" data-name="Group 2185" transform="translate(0.458 30.027)">
        <path id="Path_83841" data-name="Path 83841" d="M.094-.665V-.688H.106v0a.074.074,0,0,1,0,.008v.012l0,0,0,0h0a.007.007,0,0,0,.006,0,.01.01,0,0,0,0-.007V-.687H.131v.037H.12v0l-.007,0-.006,0a.013.013,0,0,1-.01,0,.018.018,0,0,1,0-.012Z" transform="translate(-0.094 0.688)"/>
      </g>
      <g id="Group_2186" data-name="Group 2186" transform="translate(0.507 30.026)">
        <path id="Path_83842" data-name="Path 83842" d="M.146-.688v.022H.134V-.689a.006.006,0,0,0,0,0l0,0h0a.007.007,0,0,0-.006,0,.012.012,0,0,0,0,.007v.018H.109V-.7H.121v0l0,0,.007,0a.012.012,0,0,1,.009,0,.016.016,0,0,1,0,.011Z" transform="translate(-0.109 0.703)"/>
      </g>
      <g id="Group_2187" data-name="Group 2187" transform="translate(0.578 30.014)">
        <path id="Path_83843" data-name="Path 83843" d="M.109-.922H.131a.022.022,0,0,1,.014,0,.015.015,0,0,1,0,.012.015.015,0,0,1,0,.012.021.021,0,0,1-.014,0H.123v.017H.109Zm.013.009V-.9H.129l.006,0a.007.007,0,0,0,0,0,.008.008,0,0,0,0,0l-.006,0Z" transform="translate(-0.109 0.922)"/>
      </g>
      <g id="Group_2188" data-name="Group 2188" transform="translate(0.627 30.026)">
        <path id="Path_83844" data-name="Path 83844" d="M.137-.692H.13a.008.008,0,0,0-.007,0,.012.012,0,0,0,0,.008v.017H.109V-.7H.121V-.7l0,0,.007,0h0Z" transform="translate(-0.109 0.703)"/>
      </g>
      <g id="Group_2189" data-name="Group 2189" transform="translate(0.657 30.026)">
        <path id="Path_83845" data-name="Path 83845" d="M.068-.695a.008.008,0,0,0-.007,0,.012.012,0,0,0,0,.007.016.016,0,0,0,0,.008.009.009,0,0,0,.007,0,.007.007,0,0,0,.006,0,.019.019,0,0,0,0-.008.014.014,0,0,0,0-.007A.006.006,0,0,0,.068-.695Zm0-.008a.019.019,0,0,1,.014,0,.018.018,0,0,1,.006.014A.018.018,0,0,1,.082-.67a.019.019,0,0,1-.014,0,.023.023,0,0,1-.016,0,.019.019,0,0,1,0-.014.019.019,0,0,1,0-.014A.023.023,0,0,1,.068-.7Z" transform="translate(-0.047 0.703)"/>
      </g>
      <g id="Group_2190" data-name="Group 2190" transform="translate(0.698 30.012)">
        <path id="Path_83846" data-name="Path 83846" d="M-.039-.954h.012v.036a.013.013,0,0,1,0,.011.012.012,0,0,1-.01,0H-.047V-.911h0l0,0s0,0,0-.006Zm0-.015h.012v.01H-.039Z" transform="translate(0.047 0.969)"/>
      </g>
      <g id="Group_2191" data-name="Group 2191" transform="translate(0.726 30.026)">
        <path id="Path_83847" data-name="Path 83847" d="M.087-.684v0H.059a.009.009,0,0,0,0,.007l.007,0H.077l.008,0v.009l-.008,0H.068a.023.023,0,0,1-.016,0A.017.017,0,0,1,.047-.684.017.017,0,0,1,.053-.7a.022.022,0,0,1,.015,0,.018.018,0,0,1,.013,0,.018.018,0,0,1,.006.014Zm-.012,0a.008.008,0,0,0,0,0,.006.006,0,0,0,0,0l-.006,0a.009.009,0,0,0,0,0Z" transform="translate(-0.047 0.703)"/>
      </g>
      <g id="Group_2192" data-name="Group 2192" transform="translate(0.772 30.026)">
        <path id="Path_83848" data-name="Path 83848" d="M.08-.7v.01l0,0h0a.012.012,0,0,0-.008,0,.01.01,0,0,0,0,.007.013.013,0,0,0,0,.008.013.013,0,0,0,.008,0h0l0,0v.01H.068a.023.023,0,0,1-.016,0A.017.017,0,0,1,.047-.684.017.017,0,0,1,.053-.7a.023.023,0,0,1,.016,0H.08Z" transform="translate(-0.047 0.703)"/>
      </g>
      <g id="Group_2193" data-name="Group 2193" transform="translate(0.81 30.016)">
        <path id="Path_83849" data-name="Path 83849" d="M.033-.891V-.88H.046v.008H.033v.016s0,0,0,0H.045v.008H.034a.016.016,0,0,1-.01,0,.016.016,0,0,1,0-.01V-.871H.016V-.88H.021V-.891Z" transform="translate(-0.016 0.891)"/>
      </g>
    </g>
  </g>
</svg>
