<svg id="table" xmlns="http://www.w3.org/2000/svg" width="47.346" height="31.592" viewBox="0 0 47.346 31.592">
  <path id="Path_337" data-name="Path 337" d="M2.872-426.41a3.141,3.141,0,0,0-2.159,1.7l-.213.473v17.234l.241.519A2.963,2.963,0,0,0,2.2-405.025c.5.232.6.241,2.353.269l1.825.037v7.839l-1.668.037-1.668.028-.287.3a.888.888,0,0,0,0,1.353l.287.3h4.29c3.993,0,4.3-.009,4.531-.167a.994.994,0,0,0,.352-1.121c-.195-.593-.4-.658-2.242-.686l-1.649-.037v-7.848l2.854-.028c2.743-.028,2.863-.037,3.317-.241a3.049,3.049,0,0,0,1.7-3.187,3.124,3.124,0,0,0-1.7-2.224c-.463-.213-.528-.213-4.29-.241l-3.817-.028-.028-6.782-.028-6.782-.213-.463A3.023,3.023,0,0,0,2.872-426.41Z" transform="translate(-0.5 426.462)" fill="#f7bb00"/>
  <path id="Path_338" data-name="Path 338" d="M353.829-426.406a3.141,3.141,0,0,0-2.159,1.7l-.213.473-.028,6.782-.028,6.782-3.817.028c-3.762.028-3.827.028-4.29.241a3.124,3.124,0,0,0-1.7,2.224,3.049,3.049,0,0,0,1.7,3.187c.454.2.574.213,3.326.241l2.844.028v7.848l-1.64.037c-1.418.028-1.686.056-1.9.195a1.008,1.008,0,0,0,0,1.612c.232.158.537.167,4.531.167h4.29l.287-.3a.888.888,0,0,0,0-1.353l-.287-.3-1.668-.028-1.668-.037v-7.839l1.835-.037c1.742-.028,1.844-.037,2.344-.269a2.963,2.963,0,0,0,1.464-1.464l.241-.519v-8.571c0-8.181-.009-8.589-.176-9.025A3.011,3.011,0,0,0,353.829-426.406Z" transform="translate(-309.948 426.458)" fill="#f7bb00"/>
  <path id="Path_339" data-name="Path 339" d="M110.476-362.606a3.982,3.982,0,0,0-3.224,2.326l-.3.621-.028,2.159-.028,2.15.269.269a1.037,1.037,0,0,0,.723.324,5.179,5.179,0,0,1,2.168.593c.334.176.852.473,1.158.639a6.108,6.108,0,0,0,2.594.741,6.77,6.77,0,0,0,4.207-1.1,5.455,5.455,0,0,1,1.594-.723c.046,0,.083,3.419.083,7.82v7.829l-2.1.028c-2.363.028-2.511.065-2.715.686a.994.994,0,0,0,.352,1.121c.232.158.565.167,5.485.167s5.254-.009,5.485-.167a.994.994,0,0,0,.352-1.121c-.2-.621-.352-.658-2.706-.686l-2.113-.028v-7.829c0-6.81.019-7.82.139-7.82a6.079,6.079,0,0,1,1.038.482c.5.259,1.186.612,1.52.778a6.577,6.577,0,0,0,5.782-.176c.306-.167.825-.463,1.158-.639a5.179,5.179,0,0,1,2.168-.593,1.037,1.037,0,0,0,.723-.324l.269-.269-.028-2.15-.028-2.159-.3-.621a4.137,4.137,0,0,0-2.418-2.187c-.4-.139-1.4-.148-10.72-.167C115.387-362.643,110.634-362.634,110.476-362.606Z" transform="translate(-97.042 368.551)" fill="#f7bb00"/>
</svg>
