<svg xmlns="http://www.w3.org/2000/svg" width="34.986" height="31.592" viewBox="0 0 34.986 31.592">
  <g id="cutlery-cross-couple-of-fork-and-spoon" transform="translate(48.999)">
    <path id="Path_83299" data-name="Path 83299" d="M28.5-486.745a9.643,9.643,0,0,0-6.229,4.93,7.136,7.136,0,0,0-.636,5.477,1.315,1.315,0,0,1-.034,1.368,9.91,9.91,0,0,1-3.549,3.33l-.568.356-2.106,1.45L9.63-464.084c-6.257,6.264-6.045,6.024-6.052,6.811a1.671,1.671,0,0,0,.533,1.292,1.865,1.865,0,0,0,2.161.547c.239-.1,1.58-1.409,5.915-5.737l5.607-5.607,5.539,5.546c4.431,4.438,5.607,5.58,5.881,5.71a1.737,1.737,0,0,0,2.475-1.716,2.1,2.1,0,0,0-.15-.588c-.062-.13-2.715-2.838-5.894-6.024l-5.785-5.785.171-.3a15.851,15.851,0,0,1,1.785-2.263,5.1,5.1,0,0,1,1.778-1.251c.328-.109.342-.109.992.109a4.152,4.152,0,0,0,1.573.26,7.413,7.413,0,0,0,3.987-.923c3.207-1.655,5.436-5.382,4.985-8.329a6.172,6.172,0,0,0-.691-2,7.4,7.4,0,0,0-1.785-1.792,5.808,5.808,0,0,0-1.682-.656A7.026,7.026,0,0,0,28.5-486.745Zm-1.833,3.262a21.157,21.157,0,0,0-1.785,1.921,19.6,19.6,0,0,0-1.655,3.911l-.082.308-.062-.273a7.724,7.724,0,0,1,.144-2.291,5.584,5.584,0,0,1,1.6-3.091,9.118,9.118,0,0,1,2.14-1.525,7.61,7.61,0,0,1,1.142-.444C28.14-484.967,27.484-484.3,26.663-483.483Z" transform="translate(-49.2 486.873)" fill="#e9b100"/>
    <path id="Path_83308" data-name="Path 83308" d="M17.48-471.284l-.458-.321A9.947,9.947,0,0,1,15-473.671a6.546,6.546,0,0,1-1.067-3.672,4.66,4.66,0,0,0-.821-2.872c-.342-.5-.9-.957-4.54-3.8l-3.617-2.817-.335.335-.335.335,3.973,3.72,3.966,3.727-.424.424-.431.431L7.524-481.7l-3.85-3.85-.356.362-.362.356,3.85,3.85,3.843,3.843-.356.362-.362.356-3.843-3.843-3.85-3.85-.321.328-.328.321L5.4-479.647l3.809,3.809-.431.431-.438.431-.581-.6c-.321-.328-1.976-2.079-3.679-3.884s-3.111-3.289-3.139-3.3a1.648,1.648,0,0,0-.4.342l-.349.362L3.263-478.2c1.689,2.127,3.2,3.966,3.364,4.1a4.377,4.377,0,0,0,2.824.971,6.843,6.843,0,0,1,2.325.424,7.883,7.883,0,0,1,3.316,2.523l.28.356Z" transform="translate(-49.199 486.873)" fill="#e9b100" opacity="0.5"/>
  </g>
</svg>
