<svg id="download" xmlns="http://www.w3.org/2000/svg" width="10.39" height="10.39" viewBox="0 0 10.39 10.39">
  <path id="Path_83898" data-name="Path 83898" d="M112.889,7.663a1.948,1.948,0,0,0,2.755,0h0l1.391-1.391a.649.649,0,0,0-.9-.934l-.016.016-1.2,1.2L114.9.649A.649.649,0,0,0,114.252,0h0a.649.649,0,0,0-.649.649l.009,5.9-1.2-1.2a.649.649,0,0,0-.918.918Z" transform="translate(-109.057)" fill="#7e8299"/>
  <path id="Path_83899" data-name="Path 83899" d="M9.741,309.333a.649.649,0,0,0-.649.649v1.988a.177.177,0,0,1-.177.177H1.476a.177.177,0,0,1-.177-.177v-1.988a.649.649,0,0,0-1.3,0v1.988a1.478,1.478,0,0,0,1.476,1.476H8.914a1.478,1.478,0,0,0,1.476-1.476v-1.988A.649.649,0,0,0,9.741,309.333Z" transform="translate(0 -303.056)" fill="#7e8299"/>
</svg>
