<svg xmlns="http://www.w3.org/2000/svg" width="14.876" height="14.876" viewBox="0 0 14.876 14.876">
  <g id="Icon_feather-copy" data-name="Icon feather-copy" transform="translate(-2.55 -2.55)">
    <path id="Path_83885" data-name="Path 83885" d="M14.9,13.5h6.289a1.4,1.4,0,0,1,1.4,1.4v6.289a1.4,1.4,0,0,1-1.4,1.4H14.9a1.4,1.4,0,0,1-1.4-1.4V14.9A1.4,1.4,0,0,1,14.9,13.5Z" transform="translate(-5.608 -5.608)" fill="none" stroke="#98989a" stroke-linecap="round" stroke-linejoin="round" stroke-width="0.9"/>
    <path id="Path_83886" data-name="Path 83886" d="M5.1,12.084H4.4a1.4,1.4,0,0,1-1.4-1.4V4.4A1.4,1.4,0,0,1,4.4,3h6.289a1.4,1.4,0,0,1,1.4,1.4v.7" transform="translate(0 0)" fill="none" stroke="#98989a" stroke-linecap="round" stroke-linejoin="round" stroke-width="0.9"/>
  </g>
</svg>
