<svg xmlns="http://www.w3.org/2000/svg" width="16.01" height="15.863" viewBox="0 0 16.01 15.863">
  <path id="Path_83907" data-name="Path 83907" d="M6000.627-4289.869a1.832,1.832,0,0,1-1.306-.541,1.836,1.836,0,0,1-.542-1.307v-6.289a1.85,1.85,0,0,1,1.848-1.848h.7a.451.451,0,0,1,.45.451.451.451,0,0,1-.45.45h-.7a.947.947,0,0,0-.947.946v6.289a.942.942,0,0,0,.276.67.94.94,0,0,0,.67.278h6.289a.948.948,0,0,0,.948-.948v-.7a.45.45,0,0,1,.45-.449.449.449,0,0,1,.45.449v.7a1.849,1.849,0,0,1-1.848,1.848Zm3.768-5.1a.585.585,0,0,1-.354-.337,5.091,5.091,0,0,1,.213-1.38l.254-1.263,3.777-3.783c2.329-2.333,3.825-3.81,3.907-3.853a2.163,2.163,0,0,1,.258-.113,1.283,1.283,0,0,1,.785.071,3.215,3.215,0,0,1,.778.674c.706.707.767.81.771,1.253,0,.515.317.158-3.95,4.432-3.045,3.048-3.815,3.8-3.906,3.828-.062.017-.635.133-1.274.26a11.918,11.918,0,0,1-1.237.211Zm3.983-5.5-2.971,2.975-.136.69a6.259,6.259,0,0,0-.116.709,6.152,6.152,0,0,0,.712-.121l.693-.136,2.977-2.977,2.977-2.977-.566-.567c-.311-.311-.574-.566-.584-.566S6010.011-4302.1,6008.378-4300.47Zm3.995-3.99-.311.308.574.574.577.575.292-.292a2.076,2.076,0,0,0,.314-.368c.017-.065-.055-.149-.5-.59a3.391,3.391,0,0,0-.577-.515A1.569,1.569,0,0,0,6012.373-4304.46Z" transform="translate(-5998.779 4305.731)" fill="#515151"/>
</svg>
