<svg xmlns="http://www.w3.org/2000/svg" width="16.009" height="15.864" viewBox="0 0 16.009 15.864">
  <g id="editing" transform="translate(-1.05 511.732)">
    <path id="Path_83883" data-name="Path 83883" d="M188.016-511.7a2.246,2.246,0,0,0-.259.113c-.081.042-1.578,1.519-3.907,3.852l-3.777,3.784-.253,1.263a5.04,5.04,0,0,0-.214,1.38.585.585,0,0,0,.353.337,9.5,9.5,0,0,0,1.26-.211c.638-.126,1.212-.243,1.273-.259.091-.026.862-.781,3.907-3.829,4.266-4.273,3.949-3.916,3.949-4.431,0-.444-.065-.547-.771-1.254a3.178,3.178,0,0,0-.777-.674A1.278,1.278,0,0,0,188.016-511.7Zm.871,1.445c.441.441.512.525.5.59a2.012,2.012,0,0,1-.314.369l-.292.292-.577-.577-.573-.573.311-.308a1.592,1.592,0,0,1,.373-.308A3.355,3.355,0,0,1,188.888-510.254Zm-1.374,1.38.567.567L185.1-505.33l-2.977,2.977-.693.136a5.789,5.789,0,0,1-.713.12,6.155,6.155,0,0,1,.117-.709l.136-.69,2.971-2.974c1.633-1.633,2.977-2.971,2.987-2.971S187.2-509.185,187.514-508.874Z" transform="translate(-173.295)" fill="#9d9ea2"/>
    <path id="Path_83887" data-name="Path 83887" d="M5.1,3H4.4A1.4,1.4,0,0,0,3,4.4v6.289a1.4,1.4,0,0,0,1.4,1.4h6.289a1.4,1.4,0,0,0,1.4-1.4v-.7" transform="translate(-1.5 -508.403)" fill="none" stroke="#98989a" stroke-linecap="round" stroke-linejoin="round" stroke-width="0.9"/>
  </g>
</svg>
