<svg xmlns="http://www.w3.org/2000/svg" width="33.917" height="31.592" viewBox="0 0 33.917 31.592">
  <g id="Group_696" data-name="Group 696" transform="translate(-407 -1224)">
    <g id="home-icon-silhouette" transform="translate(407 1224)">
      <path id="Path_311" data-name="Path 311" d="M16.311-493.9a5.913,5.913,0,0,0-1.606.637c-.285.166-2.084,1.925-7.161,7C.018-478.766.463-479.257.456-478.341a1.739,1.739,0,0,0,.631,1.42,1.9,1.9,0,0,0,2.157.285c.252-.133,1.892-1.732,6.869-6.716,3.683-3.683,6.643-6.6,6.783-6.677a1.444,1.444,0,0,1,.518-.126,1.444,1.444,0,0,1,.518.126c.139.073,3.1,2.993,6.783,6.677,4.978,4.984,6.617,6.584,6.869,6.716a1.9,1.9,0,0,0,2.157-.285,1.741,1.741,0,0,0,.631-1.387c0-.9.06-.816-2.96-3.849L28.7-484.885v-2.993c0-1.984-.027-3.119-.073-3.352a1.872,1.872,0,0,0-1.885-1.513,1.91,1.91,0,0,0-1.772,1.122c-.139.279-.153.411-.173,1.553l-.027,1.254-2.13-2.117c-2.19-2.164-2.442-2.376-3.3-2.721A5.731,5.731,0,0,0,16.311-493.9Z" transform="translate(-0.453 494.004)" fill="#159ec9" opacity="0.6"/>
      <path id="Path_312" data-name="Path 312" d="M82.946-379.822c-.2.08-11.714,11.561-11.853,11.82A30.827,30.827,0,0,0,71-363.409c0,2.927.027,4.533.073,4.765a3.75,3.75,0,0,0,1.759,2.356c.79.418.8.418,4.188.418H89.537c3.385,0,3.4,0,4.188-.418a3.75,3.75,0,0,0,1.759-2.356c.046-.232.073-1.838.073-4.765A30.827,30.827,0,0,0,95.463-368c-.153-.279-11.661-11.747-11.873-11.827A.863.863,0,0,0,82.946-379.822Z" transform="translate(-66.318 387.462)" fill="#159ec9"/>
    </g>
    <g id="toppng.com-forward-arrow-icon-arrow-ico-1253x1055" transform="translate(418.491 1241.945)">
      <path id="Path_83312" data-name="Path 83312" d="M8.44-701.867a.322.322,0,0,0-.164.144c-.025.049-.026.08-.026.852v.8H8.195c-.139,0-.639.029-.825.046a6.4,6.4,0,0,0-3.058,1.068,6.8,6.8,0,0,0-2.561,3.784,10.1,10.1,0,0,0-.389,2.263.818.818,0,0,0,0,.167,4.469,4.469,0,0,1,.655-1.53,5.144,5.144,0,0,1,1.737-1.6,7.969,7.969,0,0,1,3.187-.947c.323-.034.771-.059,1.048-.059H8.25v1.609l.03.051a.276.276,0,0,0,.294.142,6.07,6.07,0,0,0,.647-.542l.965-.851,1.53-1.347c.278-.245.512-.454.521-.466a.291.291,0,0,0,.059-.192c0-.123-.038-.18-.231-.348l-1.63-1.435-.873-.77L9-701.52c-.2-.178-.386-.333-.41-.343A.209.209,0,0,0,8.44-701.867Z" transform="translate(-1.361 701.88)" fill="#fff"/>
    </g>
  </g>
</svg>
