<svg xmlns="http://www.w3.org/2000/svg" xmlns:xlink="http://www.w3.org/1999/xlink" width="31" height="31" viewBox="0 0 31 31">
  <defs>
    <clipPath id="clip-path">
      <rect id="Rectangle_1518" data-name="Rectangle 1518" width="31" height="31" transform="translate(-0.052)" fill="#fff" stroke="#707070" stroke-width="1"/>
    </clipPath>
  </defs>
  <g id="Mask_Group_24" data-name="Mask Group 24" transform="translate(0.052)" clip-path="url(#clip-path)">
    <g id="Group_2155" data-name="Group 2155" transform="translate(1.194 2.184)">
      <g id="home-icon-silhouette" transform="translate(0)">
        <path id="Path_83806" data-name="Path 83806" d="M14.1-493.918a5.087,5.087,0,0,0-1.382.548c-.246.143-1.793,1.656-6.161,6.018-6.475,6.458-6.092,6.035-6.1,6.823A1.5,1.5,0,0,0,1-479.307a1.635,1.635,0,0,0,1.856.245c.217-.114,1.627-1.49,5.91-5.778,3.169-3.169,5.715-5.681,5.835-5.744a1.242,1.242,0,0,1,.445-.109,1.242,1.242,0,0,1,.445.109c.12.063,2.666,2.575,5.835,5.744,4.282,4.288,5.693,5.664,5.91,5.778a1.635,1.635,0,0,0,1.856-.245,1.5,1.5,0,0,0,.542-1.193c0-.771.051-.7-2.547-3.312l-2.335-2.347v-2.575c0-1.707-.023-2.684-.063-2.884a1.611,1.611,0,0,0-1.622-1.3,1.643,1.643,0,0,0-1.525.965c-.12.24-.131.354-.148,1.336l-.023,1.079-1.833-1.821c-1.884-1.861-2.1-2.044-2.838-2.341A4.93,4.93,0,0,0,14.1-493.918Z" transform="translate(-0.453 494.004)" fill="#cc9331" opacity="0.6"/>
        <path id="Path_83807" data-name="Path 83807" d="M81.278-379.831c-.171.069-10.078,9.946-10.2,10.169a26.519,26.519,0,0,0-.08,3.951c0,2.518.023,3.9.063,4.1a3.226,3.226,0,0,0,1.513,2.027c.679.36.691.36,3.6.36H86.947c2.912,0,2.923,0,3.6-.36a3.226,3.226,0,0,0,1.513-2.027c.04-.2.063-1.582.063-4.1a26.518,26.518,0,0,0-.08-3.951c-.131-.24-10.032-10.106-10.215-10.175A.743.743,0,0,0,81.278-379.831Z" transform="translate(-66.972 386.404)" fill="#cc9331"/>
      </g>
      <g id="toppng.com-forward-arrow-icon-arrow-ico-1253x1055" transform="translate(9.885 15.439)">
        <path id="Path_83808" data-name="Path 83808" d="M7.451-701.869a.277.277,0,0,0-.141.124c-.021.042-.023.069-.023.733v.689H7.24c-.12,0-.55.025-.709.039a5.509,5.509,0,0,0-2.631.919,5.853,5.853,0,0,0-2.2,3.256,8.689,8.689,0,0,0-.334,1.947.7.7,0,0,0,0,.143,3.846,3.846,0,0,1,.564-1.316,4.425,4.425,0,0,1,1.495-1.377,6.856,6.856,0,0,1,2.742-.814c.278-.029.663-.051.9-.051h.223v1.384l.026.044a.238.238,0,0,0,.253.122,5.25,5.25,0,0,0,.557-.467l.83-.732,1.316-1.159c.239-.211.441-.391.448-.4a.25.25,0,0,0,.051-.165c0-.106-.033-.155-.2-.3l-1.4-1.235-.751-.662-.48-.424c-.174-.154-.332-.287-.352-.295A.179.179,0,0,0,7.451-701.869Z" transform="translate(-1.361 701.88)" fill="#fff"/>
      </g>
    </g>
  </g>
</svg>
