<svg id="eye_1_" data-name="eye (1)" xmlns="http://www.w3.org/2000/svg" width="13.331" height="10.378" viewBox="0 0 13.331 10.378">
  <path id="Path_83900" data-name="Path 83900" d="M12.919,6.411A7.354,7.354,0,0,0,6.661,2.655,7.354,7.354,0,0,0,.4,6.411a2.725,2.725,0,0,0,0,2.866,7.354,7.354,0,0,0,6.258,3.756,7.354,7.354,0,0,0,6.258-3.756A2.725,2.725,0,0,0,12.919,6.411ZM11.973,8.7a6.282,6.282,0,0,1-5.312,3.227A6.282,6.282,0,0,1,1.35,8.7a1.62,1.62,0,0,1,0-1.7A6.282,6.282,0,0,1,6.661,3.766a6.278,6.278,0,0,1,5.312,3.227A1.62,1.62,0,0,1,11.973,8.7Z" transform="translate(0.004 -2.655)" fill="#7e8299"/>
  <path id="Path_83901" data-name="Path 83901" d="M9.776,7a2.776,2.776,0,1,0,2.776,2.776A2.776,2.776,0,0,0,9.776,7Zm0,4.442a1.666,1.666,0,1,1,1.666-1.666A1.666,1.666,0,0,1,9.776,11.442Z" transform="translate(-3.111 -4.587)" fill="#7e8299"/>
</svg>
