<svg xmlns="http://www.w3.org/2000/svg" width="38.11" height="36.257" viewBox="0 0 38.11 36.257">
  <g id="Group_292" data-name="Group 292" transform="translate(-824.501 -257)">
    <path id="Path_307" data-name="Path 307" d="M138.858-477.526a10.125,10.125,0,0,0-6,3.147,10.333,10.333,0,0,0-2.906,6.41l-.05.483h21l-.05-.483a10.543,10.543,0,0,0-3.172-6.694,10.347,10.347,0,0,0-5.237-2.772A12.934,12.934,0,0,0,138.858-477.526Z" transform="translate(703.065 734.61)" fill="#d10f96"/>
    <path id="Path_308" data-name="Path 308" d="M114.167-343.833c-.15.15-.167.275-.167,1.082v.916h23.644v-.916c0-.808-.017-.932-.167-1.082-.166-.166-.275-.166-11.655-.166S114.333-344,114.167-343.833Z" transform="translate(717.641 612.123)" fill="#d10f96"/>
    <path id="Path_309" data-name="Path 309" d="M28.347-305.833c-.45.5.608,2.289,2.048,3.447,3.48,2.789,9.716,4.379,17.142,4.379a35.9,35.9,0,0,0,9.2-1.124c.891-.233,2.889-.858,3.472-1.082.108-.042.191.05.383.433a7.366,7.366,0,0,1,.6,1.665,15.928,15.928,0,0,1-1.865,1.349,18.509,18.509,0,0,0-1.915,1.382c-.025.075-.05,2.339-.05,5.037v4.9l.233.441a1.584,1.584,0,0,0,.641.7l.4.25,3.089.025c3.422.025,3.513.017,4.046-.508.6-.583.583-.375.583-5.819,0-2.681-.025-4.945-.05-5.02-.042-.108-3.938-2.789-4.054-2.789a1.356,1.356,0,0,0,.033.391c.033.225.067,1.049.067,1.832l.008,1.432.366.375a1.242,1.242,0,0,1,.058,1.89,1.255,1.255,0,0,1-1.848,0,1.242,1.242,0,0,1,.058-1.89l.366-.375-.008-1.349c0-.741-.033-1.532-.067-1.757-.067-.383-.058-.408.191-.558a.7.7,0,0,1,.491-.125c.125.025.225.017.225-.025a8.662,8.662,0,0,0-.633-1.782l-.283-.558-.316.133c-.566.25-.633.241-.882-.125a8.506,8.506,0,0,0-2.04-1.832c-.624-.366-.766-.591-.6-.916a.6.6,0,0,1,.291-.225c.558-.133,2.448,1.34,3.288,2.572l.266.4.641-.35a9.128,9.128,0,0,0,3.971-3.613c.308-.649.35-1,.167-1.207C65.911-306,65.736-306,47.2-306S28.5-306,28.347-305.833Z" transform="translate(796.259 577.287)" fill="#d10f96"/>
    <path id="Path_310" data-name="Path 310" d="M37.347-181.833a4.376,4.376,0,0,0-2.023,1.157A4.767,4.767,0,0,0,34-176.838a4.666,4.666,0,0,0,1.382,3.871,4.955,4.955,0,0,0,5.07,1,7.123,7.123,0,0,0,5.128-5.986l.1-.716H47.3l.058.558a7.216,7.216,0,0,0,6.7,6.41,4.458,4.458,0,0,0,3.58-1.307,4.724,4.724,0,0,0,1.332-3.83,4.725,4.725,0,0,0-1.29-3.78,4.182,4.182,0,0,0-2.09-1.215,11.542,11.542,0,0,0-3.08-.167c-2.731,0-3.172.067-3.88.608a3.687,3.687,0,0,0-1.082,1.407l-.092.316H45.506l-.05-.233a3.58,3.58,0,0,0-1.057-1.424c-.766-.616-1.132-.674-3.979-.666A12.365,12.365,0,0,0,37.347-181.833Z" transform="translate(790.981 463.61)" fill="#d10f96"/>
  </g>
</svg>
