<svg id="sofa" xmlns="http://www.w3.org/2000/svg" width="45.161" height="36.277" viewBox="0 0 45.161 36.277">
  <path id="Path_330" data-name="Path 330" d="M27.986-448.465A8.915,8.915,0,0,0,22.8-445.83a9.609,9.609,0,0,0-2.428,4.517c-.085.32-.122,3.642-.169,14.162l-.047,13.739-1.873.028c-1.581.019-1.91.047-2.051.179a.545.545,0,0,0-.094.649c.2.3.489.32,4.959.32h4.479l.226-.235c.273-.263.292-.4.085-.687-.141-.207-.179-.207-2.353-.207h-2.2v-13.39c0-8.949.028-13.579.1-13.955a7.779,7.779,0,0,1,7.613-6.653,7.827,7.827,0,0,1,7.594,7.519c.047.687.085.828.273.969l.216.169-.48.056a4.458,4.458,0,0,0-2,.941,4.225,4.225,0,0,0-1.27,2.814v.358h7.716v-.358a4.225,4.225,0,0,0-1.27-2.814,4.458,4.458,0,0,0-2-.941l-.48-.056.245-.188c.235-.188.245-.207.188-1.044a9.275,9.275,0,0,0-5.684-7.98A9.119,9.119,0,0,0,27.986-448.465Zm8.384,10.916a.662.662,0,0,1,.207.376,7.163,7.163,0,0,1-1.7,1.788.613.613,0,0,1-.555-.555,2.8,2.8,0,0,1,1.1-1.468C35.919-437.784,36.088-437.813,36.37-437.549Z" transform="translate(-16.07 448.513)" fill="#cf7208"/>
  <path id="Path_331" data-name="Path 331" d="M234.538-287.9a1.074,1.074,0,0,0,.376.235.647.647,0,0,0,.64,0c.583-.245.5-.339-.32-.339C234.7-288,234.491-287.972,234.538-287.9Z" transform="translate(-213.974 303.104)" fill="#cf7208"/>
  <path id="Path_332" data-name="Path 332" d="M182.687-220.86a1.319,1.319,0,0,0-.5.442c-.169.292-.188.471-.188,2.437v2.136l.226.056a2.4,2.4,0,0,1,.687.48,2.758,2.758,0,0,1,.922,1.76l.066.452h11l-.028-3.566-.028-3.566-.235-.254c-.5-.536-.292-.518-6.182-.518C183.967-220.991,182.932-220.973,182.687-220.86Z" transform="translate(-166.386 242.41)" fill="#cf7208"/>
  <path id="Path_333" data-name="Path 333" d="M331.678-220.812a1.73,1.73,0,0,0-.489.489c-.179.292-.188.48-.188,3.764v3.463h11.085l.056-.216a2.185,2.185,0,0,0,.056-.442,2.8,2.8,0,0,1,1.336-1.891l.367-.188-.028-2.155c-.028-2-.038-2.174-.226-2.418-.442-.612-.273-.593-6.248-.593C332.167-221,331.979-220.991,331.678-220.812Z" transform="translate(-301.365 242.41)" fill="#cf7208"/>
  <path id="Path_334" data-name="Path 334" d="M156.1-155.861a1.783,1.783,0,0,0-.941,1.2c-.028.226-.047,1.713-.028,3.322l.028,2.917h3.2l.028-3.011a26.07,26.07,0,0,0-.075-3.359A1.637,1.637,0,0,0,156.1-155.861Z" transform="translate(-142.035 183.518)" fill="#cf7208"/>
  <path id="Path_335" data-name="Path 335" d="M462.441-155.867a1.888,1.888,0,0,0-.875.979c-.038.141-.066,1.647-.066,3.359v3.105l1.628.028,1.619.019v-3.171c0-3.021-.009-3.19-.2-3.576A1.651,1.651,0,0,0,462.441-155.867Z" transform="translate(-419.585 183.525)" fill="#cf7208"/>
  <path id="Path_336" data-name="Path 336" d="M202-123.306v1.694h23.243V-125H202Z" transform="translate(-184.504 155.443)" fill="#cf7208"/>
</svg>
