<svg xmlns="http://www.w3.org/2000/svg" width="11.528" height="7.689" viewBox="0 0 11.528 7.689">
  <path id="Icon_ionic-ios-arrow-round-forward" data-name="Icon ionic-ios-arrow-round-forward" d="M15.227,11.4a.523.523,0,0,0,0,.737l2.435,2.439H8.392a.521.521,0,0,0,0,1.041h9.262l-2.435,2.439a.527.527,0,0,0,0,.737.518.518,0,0,0,.733,0l3.3-3.324h0a.585.585,0,0,0,.108-.164.5.5,0,0,0,.04-.2.522.522,0,0,0-.148-.364l-3.3-3.324A.51.51,0,0,0,15.227,11.4Z" transform="translate(-7.875 -11.252)" fill="#0081e9"/>
</svg>
