<svg id="leisure" xmlns="http://www.w3.org/2000/svg" width="38.685" height="37.806" viewBox="0 0 38.685 37.806">
  <path id="Path_313" data-name="Path 313" d="M146.22-470.78a.724.724,0,0,0-.22.44.783.783,0,0,0,.659.659.783.783,0,0,0,.659-.659.783.783,0,0,0-.659-.659A.724.724,0,0,0,146.22-470.78Z" transform="translate(-136.329 471)" fill="#0969d8"/>
  <path id="Path_314" data-name="Path 314" d="M421.22-470.78a.724.724,0,0,0-.22.44.724.724,0,0,0,.22.44.724.724,0,0,0,.44.22.724.724,0,0,0,.44-.22.724.724,0,0,0,.22-.44.724.724,0,0,0-.22-.44.724.724,0,0,0-.44-.22A.724.724,0,0,0,421.22-470.78Z" transform="translate(-387.151 471)" fill="#0969d8"/>
  <path id="Path_315" data-name="Path 315" d="M52.416-465.736A2.32,2.32,0,0,0,51-463.688a2.27,2.27,0,0,0,2.2,2.2,2.325,2.325,0,0,0,1.539-.659A2.188,2.188,0,0,0,52.416-465.736Z" transform="translate(-49.681 466.325)" fill="#0969d8"/>
  <path id="Path_316" data-name="Path 316" d="M335.219-442.955c-.237.237-.114.527.554,1.2l.651.677-1.662,1.662-1.662,1.653.545.387.545.378,2.066-2.066,2.066-2.066-.457-.457c-.44-.44-.475-.457-.615-.308s-.185.106-.826-.51C335.746-443.07,335.456-443.193,335.219-442.955Z" transform="translate(-306.979 445.523)" fill="#0969d8"/>
  <path id="Path_317" data-name="Path 317" d="M80.818-435.528a16.266,16.266,0,0,0-14.454,13.364,16.259,16.259,0,0,0,6.269,15.826,16.363,16.363,0,0,0,17.953,1.02,16.105,16.105,0,0,0,6.392-6.946,16.337,16.337,0,0,0-.062-14.357,10.454,10.454,0,0,0-.563-1.037,8.018,8.018,0,0,0-1,.914l-.95.958.22.475a12.709,12.709,0,0,1,1.328,5.961,11.963,11.963,0,0,1-.7,4.414,13.61,13.61,0,0,1-18.806,7.851,13.7,13.7,0,0,1-7.447-9.75,15.568,15.568,0,0,1,0-5.029A13.664,13.664,0,0,1,75.2-430.93a13.653,13.653,0,0,1,12.608-.914l1.029.448.958-.958.95-.958-.73-.4a16.812,16.812,0,0,0-4.906-1.653A20.325,20.325,0,0,0,80.818-435.528Z" transform="translate(-63.471 438.693)" fill="#0969d8"/>
  <path id="Path_318" data-name="Path 318" d="M381.9-402.692l-.3.308.633.642.633.633.308-.308.308-.308-.642-.642L382.2-403Z" transform="translate(-351.215 408.979)" fill="#0969d8"/>
  <path id="Path_319" data-name="Path 319" d="M117.633-395.584a12.746,12.746,0,0,0-7.324,3.578,12.7,12.7,0,0,0-3.64,6.84,15.64,15.64,0,0,0,.009,4.484,12.819,12.819,0,0,0,10.014,10.26,15.676,15.676,0,0,0,5.047,0,12.783,12.783,0,0,0,8.818-6.743,11.783,11.783,0,0,0,1.363-5.759,11.806,11.806,0,0,0-1.363-5.759,12.769,12.769,0,0,0-8.774-6.726A17.42,17.42,0,0,0,117.633-395.584Zm2.347,4.7a3.112,3.112,0,0,1,1.565,1.108c.264.387.281.4.571.316a4.042,4.042,0,0,1,.923-.044,2.837,2.837,0,0,1,2.391,1.591,2.26,2.26,0,0,1,.255,1.372l.009.914.4.29a2.843,2.843,0,0,1,1.178,2.1,3,3,0,0,1-1.213,2.638c-.387.264-.4.281-.316.572a4.011,4.011,0,0,1,.044.923,2.907,2.907,0,0,1-1.635,2.427,2.509,2.509,0,0,1-1.328.22l-.914.009-.281.4a2.948,2.948,0,0,1-4.748-.026c-.264-.387-.281-.4-.571-.316a4.012,4.012,0,0,1-.923.044,2.907,2.907,0,0,1-2.427-1.635,2.509,2.509,0,0,1-.22-1.328l-.009-.914-.4-.29a2.843,2.843,0,0,1-1.178-2.1,3.015,3.015,0,0,1,1.143-2.594l.369-.273v-.941a2.224,2.224,0,0,1,.246-1.407,3.262,3.262,0,0,1,1.363-1.354,2.644,2.644,0,0,1,1.328-.211l.923-.009.193-.308A2.953,2.953,0,0,1,119.981-390.88Zm-7.728.589c.018.158-.106.36-.457.756a9.991,9.991,0,0,0-1.029,11.852,11.6,11.6,0,0,0,.967,1.3c.571.651.659.923.352,1.134-.264.193-.457.1-.941-.457a11.294,11.294,0,0,1-2.207-3.868,8.953,8.953,0,0,1-.492-3.35,9.812,9.812,0,0,1,1.108-4.844,9.127,9.127,0,0,1,2.145-2.893A.43.43,0,0,1,112.252-390.291Zm15.034.149a11.3,11.3,0,0,1,2.207,3.868,8.953,8.953,0,0,1,.492,3.35,8.953,8.953,0,0,1-.492,3.35,11.294,11.294,0,0,1-2.207,3.868c-.484.554-.677.651-.941.457-.308-.211-.22-.484.352-1.134a10.225,10.225,0,0,0,2.172-4.159,7.112,7.112,0,0,0,.229-2.383,7.112,7.112,0,0,0-.229-2.383,10.225,10.225,0,0,0-2.172-4.159c-.571-.651-.659-.923-.352-1.134C126.61-390.792,126.8-390.7,127.287-390.141Z" transform="translate(-100.313 402.266)" fill="#0969d8"/>
  <path id="Path_320" data-name="Path 320" d="M175.616-332.527a2.028,2.028,0,0,0-1.169,1.064c-.308.677-.387.721-.95.545a2.111,2.111,0,0,0-2.312.475,2.073,2.073,0,0,0-.413,2.18c.211.528.141.73-.325.95a2.116,2.116,0,0,0-1.284,1.679,2.033,2.033,0,0,0,1.152,2.084c.686.334.73.4.554.906a2.08,2.08,0,0,0,1.864,2.919,2.485,2.485,0,0,0,.791-.141c.528-.211.73-.141.941.308a2.707,2.707,0,0,0,1.029,1.117,2.074,2.074,0,0,0,2.743-.967c.334-.695.413-.739.923-.554A2.13,2.13,0,0,0,181.894-321a2.325,2.325,0,0,0,.026-1.618c-.211-.527-.141-.73.308-.941a2.057,2.057,0,0,0,.149-3.772c-.695-.334-.739-.413-.554-.923a2.069,2.069,0,0,0-1.864-2.9,2.485,2.485,0,0,0-.791.141c-.528.211-.73.141-.95-.325a2.485,2.485,0,0,0-1.02-1.1A2.5,2.5,0,0,0,175.616-332.527Zm2.022,3.64a3.7,3.7,0,0,1,2.277,4.326,3.671,3.671,0,0,1-6.163,1.714A3.683,3.683,0,0,1,175.379-329,4.291,4.291,0,0,1,177.639-328.887Z" transform="translate(-157.443 344.783)" fill="#0969d8"/>
  <path id="Path_321" data-name="Path 321" d="M221.7-282.553a3,3,0,0,0-1.864,1.53,2.058,2.058,0,0,0-.237,1.2,2.058,2.058,0,0,0,.237,1.2,2.945,2.945,0,0,0,1.319,1.319,2.894,2.894,0,0,0,2.356.018,2.811,2.811,0,0,0,1.389-1.389,2.893,2.893,0,0,0-.018-2.356,2.761,2.761,0,0,0-2.33-1.565A3.464,3.464,0,0,0,221.7-282.553Z" transform="translate(-203.458 299.161)" fill="#0969d8"/>
  <path id="Path_322" data-name="Path 322" d="M376.049-389.96,374-387.912l.378.545.387.545,1.653-1.662,1.662-1.662.677.651c.677.668.967.791,1.2.554s.114-.528-.554-1.2c-.615-.633-.651-.686-.51-.826s.123-.176-.281-.589a3.679,3.679,0,0,0-.484-.44C378.106-392,377.165-391.077,376.049-389.96Z" transform="translate(-344.283 398.946)" fill="#0969d8"/>
  <path id="Path_323" data-name="Path 323" d="M354.853-387.138a9.508,9.508,0,0,0-.853.914,9.375,9.375,0,0,0,1.222,1.213,15.557,15.557,0,0,0,1.767-1.8A5.841,5.841,0,0,0,355.8-388,6.971,6.971,0,0,0,354.853-387.138Z" transform="translate(-326.041 395.297)" fill="#0969d8"/>
  <path id="Path_324" data-name="Path 324" d="M36.22-360.78a.724.724,0,0,0-.22.44.783.783,0,0,0,.659.659.783.783,0,0,0,.659-.659.783.783,0,0,0-.659-.659A.724.724,0,0,0,36.22-360.78Z" transform="translate(-36 370.671)" fill="#0969d8"/>
  <path id="Path_325" data-name="Path 325" d="M461.22-285.78a.724.724,0,0,0-.22.44.724.724,0,0,0,.22.44.724.724,0,0,0,.44.22.724.724,0,0,0,.44-.22.724.724,0,0,0,.22-.44.724.724,0,0,0-.22-.44.724.724,0,0,0-.44-.22A.724.724,0,0,0,461.22-285.78Z" transform="translate(-423.634 302.265)" fill="#0969d8"/>
  <path id="Path_326" data-name="Path 326" d="M41.22-145.78a.724.724,0,0,0-.22.44.783.783,0,0,0,.659.659.783.783,0,0,0,.659-.659.724.724,0,0,0-.22-.44.724.724,0,0,0-.44-.22A.724.724,0,0,0,41.22-145.78Z" transform="translate(-40.56 174.574)" fill="#0969d8"/>
  <path id="Path_327" data-name="Path 327" d="M426.686-90.69A1.408,1.408,0,0,0,426-89.556a1.432,1.432,0,0,0,1.31,1.319,1.426,1.426,0,0,0,1.328-1.31,1.39,1.39,0,0,0-.7-1.152A1.243,1.243,0,0,0,426.686-90.69Z" transform="translate(-391.711 124.284)" fill="#0969d8"/>
  <path id="Path_328" data-name="Path 328" d="M141.22-55.78a.724.724,0,0,0-.22.44.783.783,0,0,0,.659.659.783.783,0,0,0,.659-.659.783.783,0,0,0-.659-.659A.724.724,0,0,0,141.22-55.78Z" transform="translate(-131.768 92.487)" fill="#0969d8"/>
  <path id="Path_329" data-name="Path 329" d="M376.22-55.78a.724.724,0,0,0-.22.44.783.783,0,0,0,.659.659.783.783,0,0,0,.659-.659.783.783,0,0,0-.659-.659A.724.724,0,0,0,376.22-55.78Z" transform="translate(-346.107 92.487)" fill="#0969d8"/>
</svg>
