<svg xmlns="http://www.w3.org/2000/svg" width="853" height="15" viewBox="0 0 853 15">
  <g id="Group_61504" data-name="Group 61504" transform="translate(-2338.5 -5948.604)">
    <path id="Path_83910" data-name="Path 83910" d="M-35.515-4.453V0H-36.76V-10.708h2.937a4.621,4.621,0,0,1,2.911.754,2.735,2.735,0,0,1,.941,2.271,2.844,2.844,0,0,1-2.153,2.871L-29.216,0h-1.472l-2.593-4.453Zm0-1.069h1.707a2.947,2.947,0,0,0,1.934-.524,1.949,1.949,0,0,0,.615-1.571,1.788,1.788,0,0,0-.626-1.531,3.393,3.393,0,0,0-2.01-.469h-1.619ZM-24.28.146A3.688,3.688,0,0,1-27.089-.937a4.2,4.2,0,0,1-1.029-3.01,4.654,4.654,0,0,1,.956-3.083,3.175,3.175,0,0,1,2.567-1.143,3.027,3.027,0,0,1,2.388.992,3.8,3.8,0,0,1,.879,2.618v.769h-5.53a3.182,3.182,0,0,0,.714,2.146,2.47,2.47,0,0,0,1.908.732,6.466,6.466,0,0,0,2.563-.542V-.374a6.434,6.434,0,0,1-1.219.4A6.853,6.853,0,0,1-24.28.146Zm-.33-7.3a1.985,1.985,0,0,0-1.542.63,2.9,2.9,0,0,0-.677,1.743h4.2a2.673,2.673,0,0,0-.513-1.761A1.8,1.8,0,0,0-24.609-7.156Zm9.089,7.3a3.474,3.474,0,0,1-1.432-.289,2.693,2.693,0,0,1-1.088-.89h-.088A10.767,10.767,0,0,1-18.04.3V3.6h-1.216V-8.027h.989l.168,1.1h.059a2.824,2.824,0,0,1,1.091-.952,3.317,3.317,0,0,1,1.428-.293,2.967,2.967,0,0,1,2.465,1.091,4.8,4.8,0,0,1,.868,3.062A4.776,4.776,0,0,1-13.07-.948,2.972,2.972,0,0,1-15.52.146ZM-15.7-7.141a2.155,2.155,0,0,0-1.78.681,3.505,3.505,0,0,0-.564,2.168v.271A4.017,4.017,0,0,0-17.476-1.6a2.145,2.145,0,0,0,1.809.729,1.881,1.881,0,0,0,1.63-.842,3.994,3.994,0,0,0,.59-2.322,3.844,3.844,0,0,0-.59-2.3A1.939,1.939,0,0,0-15.7-7.141ZM-8.848,0h-1.216V-11.4h1.216Zm1.3-8.027h1.3L-4.482-3.45a17.412,17.412,0,0,1,.718,2.263h.059q.1-.374.4-1.278t1.989-5.563h1.3l-3.45,9.141a4.56,4.56,0,0,1-1.2,1.923A2.547,2.547,0,0,1-6.343,3.6a4.891,4.891,0,0,1-1.1-.125V2.5a4.238,4.238,0,0,0,.9.088A1.857,1.857,0,0,0-4.753,1.187L-4.307.044Z" transform="translate(2784.437 5960)" fill="#9bb3c8"/>
    <line id="Line_649" data-name="Line 649" x2="372.5" transform="translate(2339 5954.5)" fill="none" stroke="#c3d1de" stroke-linecap="round" stroke-miterlimit="10" stroke-width="1"/>
    <line id="Line_650" data-name="Line 650" x2="372" transform="translate(2819 5954.5)" fill="none" stroke="#c3d1de" stroke-linecap="round" stroke-miterlimit="10" stroke-width="1"/>
  </g>
</svg>
