<svg xmlns="http://www.w3.org/2000/svg" xmlns:xlink="http://www.w3.org/1999/xlink" width="31" height="31" viewBox="0 0 31 31">
  <defs>
    <clipPath id="clip-path">
      <rect id="Rectangle_1526" data-name="Rectangle 1526" width="31" height="31" transform="translate(819 509)" fill="#fff" stroke="#707070" stroke-width="1"/>
    </clipPath>
  </defs>
  <g id="Mask_Group_32" data-name="Mask Group 32" transform="translate(-819 -509)" clip-path="url(#clip-path)">
    <g id="vr-glasses-_1_" transform="translate(790.107 1022.469)">
      <path id="Path_83867" data-name="Path 83867" d="M208.344-511.9a1.041,1.041,0,0,0-.3.247c-.1.143-.11.241-.126,1.711l-.016,1.557h5.274l-.016-1.557c-.016-1.469-.022-1.568-.126-1.711a1.041,1.041,0,0,0-.3-.247c-.175-.1-.351-.1-2.193-.1S208.52-511.995,208.344-511.9Z" transform="translate(-166.145)" fill="#db8ef2"/>
      <path id="Path_83868" data-name="Path 83868" d="M95.688-495.934a5.836,5.836,0,0,0-1.869.68,5.763,5.763,0,0,0-1.837,1.842l-.082.154h4.72V-496l-.285.005C96.176-495.989,95.886-495.962,95.688-495.934Z" transform="translate(-56.505 -15.123)" fill="#db8ef2"/>
      <path id="Path_83869" data-name="Path 83869" d="M334-494.629v1.371h4.72l-.066-.126a5.768,5.768,0,0,0-1.848-1.87,5.686,5.686,0,0,0-2.593-.746H334Z" transform="translate(-285.332 -15.123)" fill="#db8ef2"/>
      <path id="Path_83870" data-name="Path 83870" d="M35.1-415.58a3.507,3.507,0,0,0-2.812,2.363l-.148.4-.016,3.147c-.016,3.52-.005,3.69.345,4.419a3.58,3.58,0,0,0,2.3,1.864,60.055,60.055,0,0,0,6.59,0,4.261,4.261,0,0,0,1.859-1.014,1.656,1.656,0,0,1,2.308-.033,4.386,4.386,0,0,0,2.018,1.075c.23.044,1.245.055,3.372.044l3.043-.016.367-.143a3.556,3.556,0,0,0,2.171-2.209l.148-.444.016-3.125a23.07,23.07,0,0,0-.071-3.558,3.512,3.512,0,0,0-2.522-2.7c-.307-.093-.921-.1-9.485-.1C39.54-415.624,35.28-415.607,35.1-415.58Z" transform="translate(0 -91.097)" fill="#c400ff"/>
      <path id="Path_83871" data-name="Path 83871" d="M89.919-189.836a2.568,2.568,0,0,0-.592.384,4.283,4.283,0,0,1-1.162.773c-.7.318-.751.323-4.15.323H80.9l.033.313a10.923,10.923,0,0,0,.411,1.853,11.676,11.676,0,0,0,1.3,2.6,12.1,12.1,0,0,0,2.264,2.259,9.688,9.688,0,0,0,5.208,1.782,9.643,9.643,0,0,0,8.24-4.046,11.638,11.638,0,0,0,1.3-2.6,11.682,11.682,0,0,0,.411-1.853l.033-.312H96.985c-3.481,0-3.481,0-4.265-.384a4.352,4.352,0,0,1-.822-.543A1.869,1.869,0,0,0,89.919-189.836Zm-1.255,3.569a7.933,7.933,0,0,0,3.712-.011c.614-.175.965-.186,1.184-.055a.817.817,0,0,1,.011,1.387,7.523,7.523,0,0,1-1.935.482c-1.5.186-3.9-.137-4.326-.587a.793.793,0,0,1-.263-.6.819.819,0,0,1,.768-.784A5.8,5.8,0,0,1,88.663-186.267Z" transform="translate(-46.108 -304.401)" fill="#c400ff"/>
    </g>
  </g>
</svg>
