<svg xmlns="http://www.w3.org/2000/svg" width="55" height="57" viewBox="0 0 55 57">
  <g id="Group_1957" data-name="Group 1957" transform="translate(-3910 -13938)">
    <g id="Rectangle_1078" data-name="Rectangle 1078" transform="translate(3910 13938)" fill="none" stroke="#9bb3c8" stroke-width="0.5">
      <rect width="55" height="57" rx="8" stroke="none"/>
      <rect x="0.25" y="0.25" width="54.5" height="56.5" rx="7.75" fill="none"/>
    </g>
    <g id="Group_1956" data-name="Group 1956" transform="translate(3923.262 13952.199)">
      <g id="Group_1076" data-name="Group 1076" transform="translate(0 0)">
        <g id="Path_83410" data-name="Path 83410" transform="matrix(0.966, -0.259, 0.259, 0.966, 0, 4.224)" fill="none">
          <path d="M2.285,0l11.288.2a2.362,2.362,0,0,1,2.369,2.223l.379,19.586a2.158,2.158,0,0,1-2.285,2.138l-11.288-.2A2.362,2.362,0,0,1,.38,21.725L0,2.139A2.158,2.158,0,0,1,2.285,0Z" stroke="none"/>
          <path d="M 2.239106178283691 1 C 1.87004566192627 1 1.536735534667969 1.132610321044922 1.300556182861328 1.37339973449707 C 1.159726142883301 1.51698112487793 0.9932956695556641 1.762969970703125 1.000195503234863 2.119440078735352 L 1.379435539245605 21.70527076721191 C 1.392215728759766 22.36528015136719 2.027575492858887 22.9342098236084 2.76685619354248 22.9476203918457 L 14.05482578277588 23.1524600982666 C 14.43516540527344 23.15901947021484 14.77899932861328 23.026123046875 15.02108573913574 22.77930068969727 C 15.16191577911377 22.63571929931641 15.32834529876709 22.38973045349121 15.32144546508789 22.03326034545898 L 14.94221591949463 2.447429656982422 C 14.92943572998047 1.787420272827148 14.29407596588135 1.218490600585938 13.55479621887207 1.205080032348633 L 2.266825675964355 1.000249862670898 C 2.257545471191406 1.000089645385742 2.248335838317871 1 2.239106178283691 1 M 2.239106178283691 3.814697265625e-06 C 2.254403114318848 3.814697265625e-06 2.269661903381348 0.000141143798828125 2.285036087036133 0.00041961669921875 L 13.57293605804443 0.2052402496337891 C 14.85803604125977 0.2285594940185547 15.91870594024658 1.223751068115234 15.94202613830566 2.428070068359375 L 16.32125663757324 22.01390075683594 C 16.34457588195801 23.21821975708008 15.32170867919922 24.17560005187988 14.0366153717041 24.15229034423828 L 2.748715400695801 23.94746017456055 C 1.463625907897949 23.92414093017578 0.4029455184936523 22.92893981933594 0.3796253204345703 21.72463035583496 L 0.000385284423828125 2.138799667358398 C -0.02264595031738281 0.9488868713378906 0.9756994247436523 3.814697265625e-06 2.239106178283691 3.814697265625e-06 Z" stroke="none" fill="#9bb3c8"/>
        </g>
        <path id="Path_83411" data-name="Path 83411" d="M2.4.032,14.955,0a2.244,2.244,0,0,1,2.332,2.164L17.236,21.2a2.273,2.273,0,0,1-2.344,2.175l-12.56.032A2.244,2.244,0,0,1,0,21.243L.052,2.207A2.273,2.273,0,0,1,2.4.032Z" transform="matrix(0.999, 0.035, -0.035, 0.999, 9.137, 5.47)" fill="#9bb3c8"/>
        <path id="Icon_ionic-ios-add" data-name="Icon ionic-ios-add" d="M7.625,3.289,4.572,3.3,4.584.468A.486.486,0,0,0,4.08,0a.5.5,0,0,0-.508.472L3.56,3.3.508,3.316A.5.5,0,0,0,0,3.788a.448.448,0,0,0,.147.331A.521.521,0,0,0,.5,4.255l3.052-.012L3.545,7.077a.448.448,0,0,0,.147.331.521.521,0,0,0,.357.137.5.5,0,0,0,.508-.472L4.569,4.24l3.052-.012a.5.5,0,0,0,.508-.472A.486.486,0,0,0,7.625,3.289Z" transform="translate(13.935 13.487) rotate(3)" fill="#fff" stroke="#fff" stroke-width="0.5" opacity="0.85"/>
      </g>
    </g>
  </g>
</svg>
