<svg xmlns="http://www.w3.org/2000/svg" xmlns:xlink="http://www.w3.org/1999/xlink" width="31" height="31" viewBox="0 0 31 31">
  <defs>
    <clipPath id="clip-path">
      <rect id="Rectangle_1524" data-name="Rectangle 1524" width="31" height="31" transform="translate(108.699 392)" fill="#fff" stroke="#707070" stroke-width="1"/>
    </clipPath>
  </defs>
  <g id="Mask_Group_30" data-name="Mask Group 30" transform="translate(-108.699 -392)" clip-path="url(#clip-path)">
    <g id="noun-cat-personal-growth-4117850_2_" data-name="noun-cat-personal-growth-4117850 (2)" transform="translate(110.668 393.181)">
      <path id="Path_83859" data-name="Path 83859" d="M427.293,78.484,423.8,71.972a1.015,1.015,0,0,0-1.788,0l-3.489,6.513-.014.028c-.028.12-.055.24-.092.359a.749.749,0,0,0,.968.71l1.055-.212v8.375a24.873,24.873,0,0,1,1.138,3.918V78.94a.788.788,0,0,0-.945-.77l-.733.148,3-5.6,3,5.6-.733-.148a.8.8,0,0,0-.654.161.787.787,0,0,0-.29.608l.014,20.248a.567.567,0,0,0,1.134,0l-.014-19.819,1.055.212a.742.742,0,0,0,.793-.235.73.73,0,0,0,.083-.862Z" transform="translate(-400.032 -71.437)" fill="#e10606" opacity="0.4"/>
      <path id="Path_83860" data-name="Path 83860" d="M257.349,81.856a5.729,5.729,0,1,0-6.572,0,8.458,8.458,0,0,0-1.231,1.06l1.548,2.895a1.316,1.316,0,0,1-1.5,1.922l-.35-.069-.018,9.84a1.147,1.147,0,0,1-.3.77,23.665,23.665,0,0,0,5.134.53c4.042,0,7.508-.889,8.955-2.152a.763.763,0,0,0,.258-.618c-.374-6.517-2.724-11.938-5.927-14.178Z" transform="translate(-241.731 -71.435)" fill="#e10606"/>
      <path id="Path_83861" data-name="Path 83861" d="M161.832,189.1a.735.735,0,0,0,.069-.862l-3.484-6.508a1.015,1.015,0,0,0-1.788,0l-3.489,6.513a.747.747,0,0,0,.862,1.1l1.055-.212v12.859a.567.567,0,0,0,1.134,0V188.7a.788.788,0,0,0-.945-.77l-.733.148,3.01-5.609,3,5.6-.733-.148a.8.8,0,0,0-.654.161.788.788,0,0,0-.29.608l-.018,10.965a.567.567,0,0,0,1.134,0l.018-10.536,1.055.212a.748.748,0,0,0,.8-.235Z" transform="translate(-153.035 -173.59)" fill="#e10606"/>
    </g>
  </g>
</svg>
