<svg xmlns="http://www.w3.org/2000/svg" xmlns:xlink="http://www.w3.org/1999/xlink" width="31" height="31" viewBox="0 0 31 31">
  <defs>
    <clipPath id="clip-path">
      <rect id="Rectangle_1522" data-name="Rectangle 1522" width="31" height="31" transform="translate(109 268)" fill="#fff" stroke="#707070" stroke-width="1"/>
    </clipPath>
  </defs>
  <g id="Mask_Group_28" data-name="Mask Group 28" transform="translate(-109 -268)" clip-path="url(#clip-path)">
    <g id="noun-cat-pet_treatments-4729942" transform="translate(110.118 271.03)">
      <path id="Path_83854" data-name="Path 83854" d="M159.4,62.151a.525.525,0,1,1-.523.525A.524.524,0,0,1,159.4,62.151Zm1.814-2.018a4.624,4.624,0,0,0-2.309.567,2.8,2.8,0,0,0-1.31,1.417,1.218,1.218,0,0,1-.46.655,3.846,3.846,0,0,1-.709.342,6.1,6.1,0,0,0-1.389.668,1.663,1.663,0,0,0-.579,1.6,1.344,1.344,0,0,0,.983,1.178l3.295.7a1.826,1.826,0,0,1,1.391,1.8,8.862,8.862,0,0,0,.909,5.083,12.931,12.931,0,0,1,.826,2.291,6.159,6.159,0,0,1-.017,2.062l-1.063,4.4a.272.272,0,0,1-.191.195,2.032,2.032,0,0,0-1.187.764,2.409,2.409,0,0,0-.393,1.429h3.042a1.278,1.278,0,0,0,1.039-.523,6.436,6.436,0,0,0,.538-.957l1.206-3.432a3.333,3.333,0,0,1,.007-.959c.234-1.451,1.508-2.556,3.627-2.556.315,0,.315.354,0,.354-1.944,0-2.962,1.044-3.161,2.278a3.317,3.317,0,0,0,2,3.471c.282.139.128.578-.156.437a4.582,4.582,0,0,1-1.293-.95,2.8,2.8,0,0,0-2.014,2.632.2.2,0,0,0,.2.2h8.314a3.2,3.2,0,0,0,1.822-.566,4.665,4.665,0,0,0,3.578-.273,4.852,4.852,0,0,0,2.534-2.354,1.362,1.362,0,0,0-.588-1.719,1.323,1.323,0,0,0-.855-.168,1.039,1.039,0,0,0-.735.521,3.416,3.416,0,0,1-2.428,1.983c.508-2.124.622-4.878-.965-6.767l-6.694-7.973a3.469,3.469,0,0,0-.9-.792,2.4,2.4,0,0,1-.559.62,2.1,2.1,0,0,1-1.438.479,1.194,1.194,0,0,1-1.069-.92l-.979-3.916c-.084-.33.221-.3.285-.084l1.148,3.885a.666.666,0,0,0,.655.566,1.629,1.629,0,0,0,1.105-.38,1.586,1.586,0,0,0,.618-.943,2.565,2.565,0,0,0-.631-2.035l-1.3-1.716a8.576,8.576,0,0,0-1.436-1.914,3.967,3.967,0,0,0-2.321-.694Z" transform="translate(-151.408 -60.132)" fill="#40a9dc" fill-rule="evenodd"/>
      <path id="Path_83855" data-name="Path 83855" d="M104.1,197.371a.505.505,0,1,1-.5.506A.5.5,0,0,1,104.1,197.371ZM105.583,194a.622.622,0,0,0-.139.6l-.1-.163a.465.465,0,0,0-.453-.214.648.648,0,0,0-.4.276,1.5,1.5,0,0,0-.152,1.111,2.377,2.377,0,0,0-1.486,1.252,1.843,1.843,0,0,1-.692.889,1.211,1.211,0,0,0-.516.477,1.187,1.187,0,0,0-.024.833,2.553,2.553,0,0,0,.426,1.079,1.984,1.984,0,0,0,1.217.54,1.2,1.2,0,0,1,.729.342.494.494,0,0,1,.044.516c-.906,2.3-.731,3.269-.516,4.12a5.239,5.239,0,0,1-.258,3.678,1.749,1.749,0,0,0-1.317,1.79.2.2,0,0,0,.2.2h2.912a1.854,1.854,0,0,1,1.312-1.818,3.033,3.033,0,0,1-.956-2.645c.2-1.217,1.278-2.171,3.07-2.171a.166.166,0,1,1,0,.33,2.4,2.4,0,0,0-2.671,1.9,2.832,2.832,0,0,0,1.736,2.92.2.2,0,1,1-.18.362,4.181,4.181,0,0,1-.608-.371l-.084.02a1.417,1.417,0,0,0-1.215,1.469l3.157,0a2.938,2.938,0,0,1,.491-1.742,2.592,2.592,0,0,1,1.314-.857l1.039-4.309a4.632,4.632,0,0,0-.031-1.92,1.274,1.274,0,0,0-.748-.966,13.812,13.812,0,0,0-2.006-.944,1.012,1.012,0,0,1-.633-.785,3.825,3.825,0,0,1,.158-1.725c.211-.894-.5-2.9-1.853-4.107a.527.527,0,0,0-.767.025Z" transform="translate(-101.556 -186.171)" fill="#66c9f9" fill-rule="evenodd"/>
    </g>
  </g>
</svg>
