<svg xmlns="http://www.w3.org/2000/svg" width="27.279" height="29.377" viewBox="0 0 27.279 29.377">
  <g id="Roundicons-100-Free-Solid-Care-for-pets" transform="translate(-6 -4)">
    <path id="Path_83383" data-name="Path 83383" d="M12.914,29.071,11.4,28.316a.74.74,0,0,0-.33-.079h-.131a.745.745,0,0,0-.525,1.264l2.717,2.733a.74.74,0,0,1,.11.9.719.719,0,0,1-1.175.121l-2.014-2.014a5.43,5.43,0,0,1-1.311-2.1L7.17,24.476A.609.609,0,0,0,6,24.649H6a43.342,43.342,0,0,0,.588,7.129l.136.824a9.128,9.128,0,0,0,1.411,3.562l2.471,3.709a2.623,2.623,0,0,1,.357,2.1.792.792,0,0,0,.771.96h3.048a2.759,2.759,0,0,0,2.759-2.765V36.594a8.729,8.729,0,0,0-.887-3.83A8.2,8.2,0,0,0,12.914,29.071Z" transform="translate(0 -9.554)" fill="#40a9dc"/>
    <path id="Path_83384" data-name="Path 83384" d="M46.932,24a.609.609,0,0,0-.577.414l-1.574,4.664a5.43,5.43,0,0,1-1.311,2.1l-2.014,2.014a.719.719,0,0,1-1.175-.121.74.74,0,0,1,.11-.9l2.717-2.733a.745.745,0,0,0-.525-1.264h-.131a.74.74,0,0,0-.33.079l-1.516.755a8.2,8.2,0,0,0-3.74,3.672A8.729,8.729,0,0,0,36,36.548v3.572a2.759,2.759,0,0,0,2.759,2.765h3.048a.792.792,0,0,0,.766-.981,2.623,2.623,0,0,1,.357-2.1L45.4,36.1a9.128,9.128,0,0,0,1.411-3.562l.136-.824a43.342,43.342,0,0,0,.593-7.108h0A.609.609,0,0,0,46.932,24Z" transform="translate(-14.262 -9.508)" fill="#40a9dc"/>
    <path id="Path_83385" data-name="Path 83385" d="M32.423,21.188a4.464,4.464,0,1,0-8.918,0c0,2.466,2,3.51,4.464,3.51S32.423,23.654,32.423,21.188Z" transform="translate(-8.32 -5.946)" fill="#40a9dc"/>
    <path id="Path_83386" data-name="Path 83386" d="M20.947,10.12c-1.018,0-1.847,1.311-1.847,2.334s.829,1.359,1.847,1.359,1.847-.341,1.847-1.359S21.964,10.12,20.947,10.12Z" transform="translate(-6.228 -2.909)" fill="#40a9dc"/>
    <path id="Path_83387" data-name="Path 83387" d="M37.87,12.454c0,1.018.829,1.359,1.847,1.359s1.847-.341,1.847-1.359-.829-2.334-1.847-2.334S37.87,11.431,37.87,12.454Z" transform="translate(-15.151 -2.909)" fill="#40a9dc"/>
    <path id="Path_83388" data-name="Path 83388" d="M28.08,6.754c0,1.2.923,1.574,2.056,1.574s2.056-.4,2.056-1.574S31.275,4,30.136,4,28.08,5.574,28.08,6.754Z" transform="translate(-10.497)" fill="#40a9dc"/>
  </g>
</svg>
