<svg xmlns="http://www.w3.org/2000/svg" width="16.834" height="14.051" viewBox="0 0 16.834 14.051">
  <g id="preview-_1_" transform="translate(0.15 469.15)">
    <path id="Path_83877" data-name="Path 83877" d="M1.292-468.883a1.753,1.753,0,0,0-1.082.862c-.184.352-.21.52-.21,1.444,0,.707.006.833.055.911a.342.342,0,0,0,.53.068l.094-.094v-.778a8.607,8.607,0,0,1,.036-.946,1.079,1.079,0,0,1,.594-.743c.152-.071.21-.074,1.033-.09.959-.019.991-.023,1.069-.216a.334.334,0,0,0-.107-.4c-.078-.061-.126-.065-.975-.061A7.143,7.143,0,0,0,1.292-468.883Z" transform="translate(0 -0.071)" fill="#9d9ea2" stroke="#9d9ea2" stroke-width="0.3"/>
    <path id="Path_83878" data-name="Path 83878" d="M405.69-468.935a.334.334,0,0,0-.107.4c.078.194.11.2,1.069.216.83.016.878.019,1.043.094a1.217,1.217,0,0,1,.543.575,3.727,3.727,0,0,1,.074,1.037l.019.885.09.078a.35.35,0,0,0,.517-.084c.048-.078.055-.2.055-.911a5.461,5.461,0,0,0-.048-1.024,1.773,1.773,0,0,0-1.243-1.279A5.333,5.333,0,0,0,406.65-469C405.82-469,405.768-469,405.69-468.935Z" transform="translate(-392.46 0)" fill="#9d9ea2" stroke="#9d9ea2" stroke-width="0.3"/>
    <path id="Path_83879" data-name="Path 83879" d="M90.522-384a5.712,5.712,0,0,0-4.24,2.613A4.355,4.355,0,0,0,85.7-379.9a4.355,4.355,0,0,0,.581,1.486,5.913,5.913,0,0,0,7.554,2.047,5.29,5.29,0,0,0,2.761-3.087,1.073,1.073,0,0,0,0-.891,5.235,5.235,0,0,0-1.666-2.4A6.038,6.038,0,0,0,90.522-384Zm1.566.727A5.147,5.147,0,0,1,94.729-382a4.381,4.381,0,0,1,1.185,1.8l.107.3-.107.3a4.238,4.238,0,0,1-1.082,1.689,5.269,5.269,0,0,1-7.408-.132,4.345,4.345,0,0,1-.94-1.557l-.107-.3.107-.3a4.859,4.859,0,0,1,4.211-3.123A6.6,6.6,0,0,1,92.088-383.273Z" transform="translate(-82.932 -82.22)" fill="#9d9ea2" stroke="#9d9ea2" stroke-width="0.3"/>
    <path id="Path_83880" data-name="Path 83880" d="M193.726-319.891a2.107,2.107,0,0,0-1,.565,2.036,2.036,0,0,0-.016,2.89,2,2,0,0,0,1.353.62,2.086,2.086,0,0,0,2.1-1.46,2.414,2.414,0,0,0,0-1.195A2.1,2.1,0,0,0,193.726-319.891Zm.92.73a1.38,1.38,0,0,1,.888,1.486,1.388,1.388,0,0,1-1.557,1.163,1.388,1.388,0,0,1-1.163-1.557,1.377,1.377,0,0,1,1.473-1.169A1.761,1.761,0,0,1,194.646-319.161Z" transform="translate(-185.907 -144.249)" fill="#9d9ea2" stroke="#9d9ea2" stroke-width="0.3"/>
    <path id="Path_83881" data-name="Path 83881" d="M.174-148.934c-.161.081-.174.155-.174,1.037,0,.924.026,1.092.21,1.444a1.79,1.79,0,0,0,.937.817c.181.071.252.074,1.124.084,1.04.01,1.05.01,1.14-.21a.258.258,0,0,0,.013-.223c-.071-.213-.107-.22-1.082-.239-.83-.016-.878-.019-1.043-.094a1.217,1.217,0,0,1-.543-.575,3.725,3.725,0,0,1-.074-1.037l-.019-.885-.09-.078A.4.4,0,0,0,.174-148.934Z" transform="translate(0 -309.696)" fill="#9d9ea2" stroke="#9d9ea2" stroke-width="0.3"/>
    <path id="Path_83882" data-name="Path 83882" d="M408.272-148.961l-.09.078-.019.885a3.726,3.726,0,0,1-.074,1.037,1.216,1.216,0,0,1-.543.575c-.165.074-.213.077-1.043.094-.975.019-1.011.026-1.082.239a.259.259,0,0,0,.013.223c.09.22.1.22,1.14.21.872-.01.943-.013,1.124-.084a1.791,1.791,0,0,0,.937-.817c.184-.352.21-.52.21-1.444,0-.707-.006-.833-.055-.911A.35.35,0,0,0,408.272-148.961Z" transform="translate(-392.309 -309.627)" fill="#9d9ea2" stroke="#9d9ea2" stroke-width="0.3"/>
  </g>
</svg>
