<svg id="print" xmlns="http://www.w3.org/2000/svg" width="11.908" height="11.908" viewBox="0 0 11.908 11.908">
  <path id="Path_83902" data-name="Path 83902" d="M9.427,2.977V1.985A1.985,1.985,0,0,0,7.443,0H4.466A1.985,1.985,0,0,0,2.481,1.985v.992A2.484,2.484,0,0,0,0,5.458V7.939A2.484,2.484,0,0,0,2.481,10.42a1.489,1.489,0,0,0,1.489,1.489H7.939A1.489,1.489,0,0,0,9.427,10.42a2.484,2.484,0,0,0,2.481-2.481V5.458A2.484,2.484,0,0,0,9.427,2.977ZM3.473,1.985A.992.992,0,0,1,4.466.992H7.443a.992.992,0,0,1,.992.992v.992H3.473ZM8.435,10.42a.5.5,0,0,1-.5.5H3.969a.5.5,0,0,1-.5-.5V8.435a.5.5,0,0,1,.5-.5H7.939a.5.5,0,0,1,.5.5Zm2.481-2.481A1.489,1.489,0,0,1,9.427,9.427V8.435A1.489,1.489,0,0,0,7.939,6.946H3.969A1.489,1.489,0,0,0,2.481,8.435v.992A1.489,1.489,0,0,1,.992,7.939V5.458A1.489,1.489,0,0,1,2.481,3.969H9.427a1.489,1.489,0,0,1,1.489,1.489Z" fill="#7e8299"/>
  <path id="Path_83903" data-name="Path 83903" d="M16.489,10H15.5a.5.5,0,0,0,0,.992h.992a.5.5,0,1,0,0-.992Z" transform="translate(-7.557 -5.038)" fill="#7e8299"/>
</svg>
