<svg xmlns="http://www.w3.org/2000/svg" width="23.825" height="23.852" viewBox="0 0 23.825 23.852">
  <g id="Group_61523" data-name="Group 61523" transform="translate(5468 -463.167)">
    <path id="Path_83914" data-name="Path 83914" d="M11.585-511.932a11.984,11.984,0,0,0-4.333,1.2A11.894,11.894,0,0,0,3.29-507.6a12.236,12.236,0,0,0-2.465,5.1,9.753,9.753,0,0,0-.233,2.493,9.387,9.387,0,0,0,.1,1.724,8.66,8.66,0,0,0,.466,1.859.731.731,0,0,0,1.253,0c.14-.238.135-.368-.028-1.039a8.565,8.565,0,0,1-.3-2.567,8.724,8.724,0,0,1,.3-2.581,10.481,10.481,0,0,1,7.521-7.521,8.639,8.639,0,0,1,2.586-.308,9.6,9.6,0,0,1,1.524.079,10.588,10.588,0,0,1,3.723,1.314l.447.266-.815.82c-.68.69-.825.857-.867,1.02a.745.745,0,0,0,.373.857c.177.089.266.089,2.623.079,2.4-.014,2.446-.014,2.577-.112a1.373,1.373,0,0,0,.238-.252l.1-.154v-4.911l-.1-.154a.73.73,0,0,0-.927-.3,13.142,13.142,0,0,0-1.142,1.058l-.988.983-.457-.294a14.887,14.887,0,0,0-2.223-1.09,13.381,13.381,0,0,0-2.325-.592A18.36,18.36,0,0,0,11.585-511.932Z" transform="translate(-5468.592 975.125)" fill="#787878"/>
    <path id="Path_83915" data-name="Path 83915" d="M63.279-340.863c-.387.191-.452.508-.252,1.3a8.694,8.694,0,0,1,.308,2.586,8.694,8.694,0,0,1-.326,2.656,10.466,10.466,0,0,1-4.8,6.337,10.618,10.618,0,0,1-3.77,1.333,12.916,12.916,0,0,1-3.029,0,10.61,10.61,0,0,1-3.732-1.314l-.447-.266.815-.82c.68-.69.825-.857.867-1.02a.745.745,0,0,0-.373-.857c-.177-.089-.266-.089-2.623-.079-2.4.014-2.446.014-2.577.112a1.214,1.214,0,0,0-.233.252c-.107.154-.107.172-.107,1.7,0,.848.014,1.962.033,2.465.028.829.037.937.126,1.062a.717.717,0,0,0,.946.28,11.308,11.308,0,0,0,1.123-1.058l.937-.965.457.289a14.833,14.833,0,0,0,2.218,1.09,12.208,12.208,0,0,0,6.067.559,11.6,11.6,0,0,0,3.355-1.114,11.338,11.338,0,0,0,3.22-2.367,11.413,11.413,0,0,0,2.134-3.019,11.845,11.845,0,0,0,.862-8.215c-.154-.6-.275-.815-.508-.937A.866.866,0,0,0,63.279-340.863Z" transform="translate(-5509.023 812.075)" fill="#787878"/>
  </g>
</svg>
