<svg xmlns="http://www.w3.org/2000/svg" xmlns:xlink="http://www.w3.org/1999/xlink" width="31" height="31" viewBox="0 0 31 31">
  <defs>
    <clipPath id="clip-path">
      <rect id="Rectangle_1527" data-name="Rectangle 1527" width="31" height="31" transform="translate(108.513 308)" fill="#fff" stroke="#707070" stroke-width="1"/>
    </clipPath>
  </defs>
  <g id="Mask_Group_33" data-name="Mask Group 33" transform="translate(-108.513 -308)" clip-path="url(#clip-path)">
    <g id="noun-cat-spa_and_wellness-4236397" transform="translate(110.005 308.789)">
      <path id="Path_83872" data-name="Path 83872" d="M114.7,22.121a12.762,12.762,0,0,0-2.893-.3h-.274a11.207,11.207,0,0,0-1.766.152,11.527,11.527,0,0,0,.152-1.766,14.809,14.809,0,0,0-.3-3.137L109.58,17a.892.892,0,0,0-.4-.487.92.92,0,0,0-.64-.061,13.3,13.3,0,0,0-2.863,1.309,9.857,9.857,0,0,0-1.431,1.035,11.455,11.455,0,0,0-.761-1.644,13.318,13.318,0,0,0-1.827-2.558l-.03-.03a.856.856,0,0,0-1.188.03,13.344,13.344,0,0,0-1.827,2.558,15.646,15.646,0,0,0-.761,1.614,8.626,8.626,0,0,0-1.462-1.035,13.281,13.281,0,0,0-2.863-1.309h-.061a.824.824,0,0,0-1,.64,14.612,14.612,0,0,0-.3,3.137,10.825,10.825,0,0,0,.152,1.736,15.933,15.933,0,0,0-1.766-.152,14.809,14.809,0,0,0-3.137.3H87.35a.893.893,0,0,0-.487.4.853.853,0,0,0-.061.609v.03a14,14,0,0,0,1.309,2.863,11.816,11.816,0,0,0,1.949,2.467,8.665,8.665,0,0,0,2.649,1.736,10.323,10.323,0,0,0,1.035.335l-.122-.122a2.334,2.334,0,0,1-.579-1.309A6.985,6.985,0,0,1,91,27.542a9.782,9.782,0,0,1-1.553-2.253,14.38,14.38,0,0,1-.731-1.705,12.979,12.979,0,0,1,1.827-.213,11.887,11.887,0,0,1,2.1.091,8.3,8.3,0,0,0,1.4,2.68,5.235,5.235,0,0,0,.4.457,2.052,2.052,0,0,1,1.279-.213,6.883,6.883,0,0,1-.731-.914A7.219,7.219,0,0,1,93.927,23a11.138,11.138,0,0,1-.213-2.741,11.961,11.961,0,0,1,.213-1.827,16.866,16.866,0,0,1,1.705.731A10.281,10.281,0,0,1,97.4,20.294a7.831,7.831,0,0,0-.122,3.015,9.019,9.019,0,0,0,.579,2.1,3.88,3.88,0,0,1,.822-.761,8.537,8.537,0,0,1-.274-1.492,6.905,6.905,0,0,1,.335-2.68,9.6,9.6,0,0,1,1.188-2.467,10.385,10.385,0,0,1,1.127-1.462,17,17,0,0,1,1.127,1.462,9.6,9.6,0,0,1,1.188,2.467,7.54,7.54,0,0,1,.335,2.68,6.721,6.721,0,0,1-.274,1.492,4.883,4.883,0,0,1,.822.761,7.939,7.939,0,0,0,.579-2.132,8.492,8.492,0,0,0-.152-3.015,10.987,10.987,0,0,1,1.766-1.127,16.91,16.91,0,0,1,1.705-.731,12.475,12.475,0,0,1,.213,1.827,9.914,9.914,0,0,1-.213,2.741,6.971,6.971,0,0,1-1.066,2.467,9.9,9.9,0,0,1-.7.883,2.2,2.2,0,0,1,1.249.244L108,26.11a7.821,7.821,0,0,0,1.37-2.649,11.412,11.412,0,0,1,2.071-.091,12.426,12.426,0,0,1,1.827.213,12.482,12.482,0,0,1-.731,1.705,9.8,9.8,0,0,1-1.553,2.253,7.106,7.106,0,0,1-2.071,1.553,2.578,2.578,0,0,1-.579,1.279l-.183.183a5.8,5.8,0,0,0,1.1-.365,8.139,8.139,0,0,0,2.649-1.736,11.816,11.816,0,0,0,1.949-2.467,13.28,13.28,0,0,0,1.309-2.863l.03-.061a.636.636,0,0,0-.487-.944Z" transform="translate(-86.77 -14.344)" fill="#0eee94"/>
      <path id="Path_83873" data-name="Path 83873" d="M241.815,260.1a1.1,1.1,0,0,0-1.4.274l-2.5,2.893a1.458,1.458,0,0,1-1.066.487h-2.193a1.409,1.409,0,0,1-1.066-.487l-2.5-2.893a1.125,1.125,0,0,0-1.4-.274,1.064,1.064,0,0,0-.244,1.614l3.015,3.532a1.281,1.281,0,0,1,.3,1.035c-.274,1.858-1.127,7.552-1.188,8.1a.948.948,0,0,0,.883,1.1c.67.122,1.035-.335,1.249-1.035l1.066-3.776a1.015,1.015,0,0,1,1.949,0c.335,1.157.944,3.319,1.066,3.746.183.579.365,1,.883,1.1.67.122,1.37-.213,1.249-1.035-.091-.67-.914-6.334-1.188-8.161a1.28,1.28,0,0,1,.3-1.035l3.015-3.532a1.119,1.119,0,0,0-.244-1.645Z" transform="translate(-221.441 -246.593)" fill="#0bae6c"/>
      <path id="Path_83874" data-name="Path 83874" d="M303.4,220.4a2.68,2.68,0,1,0-2.68-2.68A2.664,2.664,0,0,0,303.4,220.4Z" transform="translate(-289.085 -204.125)" fill="#0bae6c"/>
    </g>
  </g>
</svg>
