<svg xmlns="http://www.w3.org/2000/svg" width="33.089" height="33.088" viewBox="0 0 33.089 33.088">
  <g id="spa-_1_" transform="translate(-43 468.85)">
    <path id="Path_340" data-name="Path 340" d="M48.952-468.7c-1.08.575-2.4,2.82-2.642,4.506a3.694,3.694,0,0,0,.388,1.857,3.678,3.678,0,0,0,1.546,1.406l.505.241v1.771h-5.3l-.225.225-.225.225v22.253l.225.225.225.225H49.62l-.171-.21c-.085-.124-.272-.357-.4-.528a6.314,6.314,0,0,1-.917-2.036,11.214,11.214,0,0,1-.14-3.224c.031-2.572.031-2.587.241-3.209a5.4,5.4,0,0,1,1.453-2.292,5.4,5.4,0,0,1,2.292-1.453,6.335,6.335,0,0,1,2.432-.241l1.8-.031v-9.479l-.225-.225-.225-.225h-5.3v-1.771l.505-.241a3.288,3.288,0,0,0,1.9-3.434c-.311-1.709-1.577-3.8-2.626-4.336A1.448,1.448,0,0,0,48.952-468.7Z" fill="#00d680" opacity="0.5"/>
    <path id="Path_341" data-name="Path 341" d="M315-362.493a8.359,8.359,0,0,0-1.888,1.795,6.146,6.146,0,0,0-.987,1.764c.016.016.311.171.645.342a7.867,7.867,0,0,1,1.064.66,7.8,7.8,0,0,1,1.3,1.422c.085.132.085.132.171,0a7.8,7.8,0,0,1,1.3-1.422,7.869,7.869,0,0,1,1.064-.66c.334-.171.629-.326.645-.342a6.147,6.147,0,0,0-.987-1.764,9.378,9.378,0,0,0-1.826-1.772,1.05,1.05,0,0,1-.218-.031A.866.866,0,0,0,315-362.493Z" transform="translate(-248.209 -98.078)" fill="#00d680"/>
    <path id="Path_342" data-name="Path 342" d="M256.621-298.849c-.474.2-.591.723-.373,1.663a4.29,4.29,0,0,0,2.642,2.976,5.209,5.209,0,0,0,1.9.2l1.445.031.249-.233c.225-.21.249-.28.249-.691a3.922,3.922,0,0,0-1.2-2.789,3.923,3.923,0,0,0-2.1-1.158A8.674,8.674,0,0,0,256.621-298.849Z" transform="translate(-196.582 -156.687)" fill="#00d680"/>
    <path id="Path_343" data-name="Path 343" d="M366.263-298.843A4.156,4.156,0,0,0,363-294.95c0,.451.023.521.225.73l.225.225H364.7a12.5,12.5,0,0,0,1.655-.085,4.281,4.281,0,0,0,3.131-3.108c.218-.948.1-1.461-.388-1.671A8.886,8.886,0,0,0,366.263-298.843Z" transform="translate(-295.137 -156.686)" fill="#00d680"/>
    <path id="Path_344" data-name="Path 344" d="M131.14-191.983a4.316,4.316,0,0,0-3.092,3.085,27.578,27.578,0,0,0,0,5.19,4.33,4.33,0,0,0,2.642,2.984l.466.171,9.829.023c6.868.016,9.953-.008,10.241-.07a4.279,4.279,0,0,0,2.758-2.152c.42-.847.451-1.127.427-3.761-.023-2.207-.031-2.385-.194-2.8a4.309,4.309,0,0,0-2.6-2.556c-.466-.163-.629-.179-2.813-.2l-2.315-.023.4.536c1.655,2.269,1.018,5.089-1.344,5.921-.42.148-.637.155-4.646.155h-4.2l-.225-.225a.823.823,0,0,1,.163-1.274c.194-.117.629-.132,4.219-.132h4l.412-.218a1.508,1.508,0,0,0,.653-.59,1.312,1.312,0,0,0,.218-.932c-.031-1.717-1.2-2.782-3.434-3.116C141.683-192.131,131.769-192.131,131.14-191.983Z" transform="translate(-78.327 -255.247)" fill="#00d680"/>
  </g>
</svg>
