<svg xmlns="http://www.w3.org/2000/svg" xmlns:xlink="http://www.w3.org/1999/xlink" width="31" height="31" viewBox="0 0 31 31">
  <defs>
    <clipPath id="clip-path">
      <rect id="Rectangle_1521" data-name="Rectangle 1521" width="31" height="31" transform="translate(109 227)" fill="#fff" stroke="#707070" stroke-width="1"/>
    </clipPath>
  </defs>
  <g id="Mask_Group_27" data-name="Mask Group 27" transform="translate(-109 -227)" clip-path="url(#clip-path)">
    <g id="noun-cat-sports_and_adventures-1729159_1_" data-name="noun-cat-sports_and_adventures-1729159 (1)" transform="translate(113.302 228.14)">
      <path id="Path_83850" data-name="Path 83850" d="M215.617,115.394c-.09,0-.3-.03-.507-.03s-.657,0-1.343-.03a.979.979,0,0,0-1.015.865l-.716,6.357c-.119.746-.507,3.7-.627,4.6a36.556,36.556,0,0,1-1.97,4.895l2.477.3a27.868,27.868,0,0,0,1.85-4.865c.09-.627.3-2.179.478-3.343a7.369,7.369,0,0,1,2.029,1.224,28.98,28.98,0,0,1-.3,4.119h2.388a19.747,19.747,0,0,0,.179-4.775c-.239-.9-1.343-1.671-2.388-2.238l.179-1.671a1.736,1.736,0,0,0,.567.716,10.551,10.551,0,0,0,3.462.806h.119a1.029,1.029,0,0,0,1.015-.9,1.014,1.014,0,0,0-.9-1.134,15.311,15.311,0,0,1-2.447-.448c-.09-.269-.239-.746-.358-1.1-.507-1.731-.955-3.224-2.178-3.343Z" transform="translate(-205.605 -109.922)" fill="#0969d8"/>
      <path id="Path_83851" data-name="Path 83851" d="M271.977,13.8a2.388,2.388,0,1,1-2.492,2.278,2.388,2.388,0,0,1,2.492-2.278" transform="translate(-262.449 -13.802)" fill="#0969d8"/>
      <path id="Path_83852" data-name="Path 83852" d="M185.653,113.206l1.164.119a1.05,1.05,0,0,0,1.164-.955l.627-5.909a1.05,1.05,0,0,0-.955-1.164l-1.164-.119a1.05,1.05,0,0,0-1.164.955l-.627,5.909A1.067,1.067,0,0,0,185.653,113.206Z" transform="translate(-182.178 -100.302)" fill="#0969d8"/>
      <path id="Path_83853" data-name="Path 83853" d="M160.03,376.043l-3.164-4.6c-.03-.06-.06-.09-.09-.149l-1.224-2.955a.781.781,0,0,0-1.045-.448l-3.343,1.433-3.641.03a.879.879,0,0,0-.657.328l-1.791,2.328a.808.808,0,0,1-.746.328l-3.82-.448a.8.8,0,0,0-.806.418l-2.089,3.82a.827.827,0,0,0,.716,1.224h21.011a.858.858,0,0,0,.687-1.313Z" transform="translate(-137.514 -348.962)" fill="#4a9eff"/>
    </g>
  </g>
</svg>
