<svg xmlns="http://www.w3.org/2000/svg" width="23.555" height="23.581" viewBox="0 0 23.555 23.581">
  <g id="sync-_1_" transform="translate(-0.592 511.958)">
    <path id="Path_83625" data-name="Path 83625" d="M11.46-511.932a11.849,11.849,0,0,0-4.284,1.189,11.759,11.759,0,0,0-3.916,3.091,12.1,12.1,0,0,0-2.437,5.044,9.642,9.642,0,0,0-.23,2.465,9.28,9.28,0,0,0,.1,1.7,8.561,8.561,0,0,0,.461,1.838.723.723,0,0,0,1.239,0c.138-.235.134-.364-.028-1.027a8.467,8.467,0,0,1-.3-2.538,8.625,8.625,0,0,1,.3-2.552A10.362,10.362,0,0,1,9.8-510.154a8.541,8.541,0,0,1,2.557-.3,9.491,9.491,0,0,1,1.506.078,10.469,10.469,0,0,1,3.681,1.3l.442.263-.806.811c-.673.682-.815.848-.857,1.009a.736.736,0,0,0,.369.848c.175.088.263.088,2.594.078,2.368-.014,2.419-.014,2.548-.111a1.357,1.357,0,0,0,.235-.249l.1-.152v-4.856l-.1-.152a.722.722,0,0,0-.917-.3,13,13,0,0,0-1.129,1.046l-.977.972-.451-.29a14.718,14.718,0,0,0-2.2-1.078,13.228,13.228,0,0,0-2.3-.585A18.155,18.155,0,0,0,11.46-511.932Z" transform="translate(0)" fill="#787878"/>
    <path id="Path_83627" data-name="Path 83627" d="M63.049-340.864c-.382.189-.447.5-.249,1.281a8.6,8.6,0,0,1,.3,2.557,8.6,8.6,0,0,1-.322,2.626,10.347,10.347,0,0,1-4.745,6.265,10.5,10.5,0,0,1-3.727,1.318,12.769,12.769,0,0,1-2.994,0,10.491,10.491,0,0,1-3.69-1.3l-.442-.263.806-.811c.673-.682.815-.848.857-1.009a.736.736,0,0,0-.369-.848c-.175-.088-.263-.088-2.594-.078-2.368.014-2.419.014-2.548.111a1.2,1.2,0,0,0-.23.249c-.106.152-.106.17-.106,1.681,0,.838.014,1.939.032,2.437.028.82.037.926.124,1.05a.709.709,0,0,0,.935.276,11.179,11.179,0,0,0,1.11-1.046l.926-.954.451.286a14.665,14.665,0,0,0,2.193,1.078,12.07,12.07,0,0,0,6,.553,11.472,11.472,0,0,0,3.317-1.1,11.21,11.21,0,0,0,3.183-2.34,11.283,11.283,0,0,0,2.11-2.985,11.711,11.711,0,0,0,.852-8.122c-.152-.59-.272-.806-.5-.926A.857.857,0,0,0,63.049-340.864Z" transform="translate(-40.454 -163.14)" fill="#787878"/>
    <path id="Icon_feather-check" data-name="Icon feather-check" d="M13.308,9,8.284,14.025,6,11.741" transform="translate(2.894 -511.195)" fill="none" stroke="#787878" stroke-linecap="round" stroke-linejoin="round" stroke-width="1.3"/>
  </g>
</svg>
