<svg xmlns="http://www.w3.org/2000/svg" width="17" height="16" viewBox="0 0 17 16">
  <g id="trash_3_" data-name="trash (3)" transform="translate(0.5 -1)">
    <g id="Rectangle_19476" data-name="Rectangle 19476" transform="translate(1.417 3)" fill="#fff" stroke="#515151" stroke-width="1">
      <path d="M0,0H13a0,0,0,0,1,0,0V11a3,3,0,0,1-3,3H3a3,3,0,0,1-3-3V0A0,0,0,0,1,0,0Z" stroke="none"/>
      <path d="M.5.5h12a0,0,0,0,1,0,0V11A2.5,2.5,0,0,1,10,13.5H3A2.5,2.5,0,0,1,.5,11V.5A0,0,0,0,1,.5.5Z" fill="none"/>
    </g>
    <line id="Line_649" data-name="Line 649" x2="16" transform="translate(0 3.5)" fill="none" stroke="#515151" stroke-linecap="round" stroke-width="1"/>
    <g id="Rectangle_19477" data-name="Rectangle 19477" transform="translate(4.417 1)" fill="#fff" stroke="#515151" stroke-width="1">
      <path d="M2,0H5A2,2,0,0,1,7,2V3A0,0,0,0,1,7,3H0A0,0,0,0,1,0,3V2A2,2,0,0,1,2,0Z" stroke="none"/>
      <path d="M2,.5H5A1.5,1.5,0,0,1,6.5,2v.5a0,0,0,0,1,0,0H.5a0,0,0,0,1,0,0V2A1.5,1.5,0,0,1,2,.5Z" fill="none"/>
    </g>
    <line id="Line_650" data-name="Line 650" y2="5" transform="translate(6.409 6.651)" fill="none" stroke="#515151" stroke-linecap="round" stroke-width="1"/>
    <line id="Line_651" data-name="Line 651" y2="5" transform="translate(9.591 6.651)" fill="none" stroke="#515151" stroke-linecap="round" stroke-width="1"/>
  </g>
</svg>
